{"glyphs":{"0":{"ha":780,"x_min":58,"x_max":745,"o":"m 329 -14 q 131 73 201 -11 q 59 308 61 157 q 64 408 58 358 l 92 593 q 223 900 125 795 q 473 1001 321 1004 q 672 915 602 998 q 744 681 742 831 q 739 580 745 630 l 710 396 q 579 88 676 193 q 329 -14 483 -17 m 559 704 q 464 844 559 839 q 290 635 327 850 l 256 406 q 245 286 245 334 q 339 144 241 149 q 514 359 477 135 l 550 600 q 559 704 559 659 z "},"1":{"ha":780,"x_min":156,"x_max":623,"o":"m 457 0 l 266 0 l 396 751 l 156 679 l 186 846 l 598 989 l 623 989 l 457 0 z "},"2":{"ha":780,"x_min":1,"x_max":749,"o":"m 659 0 l 1 0 l 23 142 l 374 471 q 517 635 481 572 q 543 759 552 699 q 446 845 529 843 q 337 800 381 846 q 284 677 294 753 l 93 676 q 148 844 98 768 q 280 961 197 919 q 458 1002 362 1002 q 672 924 595 999 q 740 726 749 850 q 575 434 729 586 l 477 341 l 275 159 l 684 158 l 659 0 z "},"3":{"ha":780,"x_min":17,"x_max":750,"o":"m 286 581 l 378 580 q 495 618 448 580 q 549 722 542 657 q 528 810 556 777 q 445 844 500 843 q 350 814 389 846 q 301 732 310 783 l 110 731 q 213 927 116 850 q 448 1002 309 1003 q 669 924 587 999 q 743 724 750 848 q 563 503 733 583 q 660 413 629 471 q 687 282 691 354 q 632 125 682 193 q 498 21 582 57 q 316 -14 414 -16 q 100 66 184 -12 q 18 271 17 144 l 208 271 q 239 181 207 216 q 329 145 271 146 q 443 183 395 144 q 498 285 490 222 q 474 389 507 353 q 374 427 441 425 l 262 427 l 286 581 z "},"4":{"ha":780,"x_min":12,"x_max":731,"o":"m 623 372 l 731 372 l 703 214 l 595 214 l 557 0 l 366 0 l 404 214 l 12 214 l 25 347 l 529 987 l 729 987 l 623 372 m 224 373 l 431 372 l 498 723 l 481 699 l 224 373 z "},"5":{"ha":780,"x_min":45,"x_max":777,"o":"m 104 488 l 237 987 l 777 987 l 751 824 l 372 824 l 307 610 q 450 648 368 648 q 646 558 576 648 q 705 321 715 469 q 647 146 696 224 q 518 26 598 68 q 342 -14 438 -16 q 190 24 258 -14 q 84 128 122 62 q 45 275 46 194 l 233 275 q 267 181 236 215 q 349 145 297 146 q 461 195 417 143 q 513 333 505 246 q 490 455 522 410 q 394 501 458 500 q 261 448 322 503 l 104 488 z "},"6":{"ha":780,"x_min":55,"x_max":725,"o":"m 672 998 l 657 836 l 620 836 q 284 579 387 823 q 483 660 369 663 q 618 615 563 659 q 699 496 673 572 q 718 330 725 421 q 660 153 709 233 q 529 28 610 73 q 355 -14 448 -16 q 188 40 258 -12 q 87 182 119 92 q 66 379 55 273 l 73 440 q 260 847 105 695 q 646 998 415 998 l 672 998 m 418 504 q 329 479 368 505 q 264 414 290 454 l 255 353 q 252 286 252 322 q 281 184 254 222 q 360 144 309 145 q 452 177 410 142 q 513 270 493 212 q 526 389 532 328 q 491 472 519 441 q 418 504 463 503 z "},"7":{"ha":780,"x_min":77,"x_max":808,"o":"m 789 867 l 288 0 l 77 0 l 577 829 l 105 829 l 130 987 l 808 987 l 789 867 z "},"8":{"ha":780,"x_min":35,"x_max":756,"o":"m 749 730 q 579 505 739 586 q 665 406 637 465 q 689 277 694 347 q 581 64 682 144 q 333 -14 481 -16 q 116 64 198 -12 q 42 264 35 140 q 235 513 52 429 q 142 720 136 592 q 192 869 147 804 q 312 968 237 934 q 477 1001 388 1003 q 681 925 606 998 q 749 730 756 851 m 500 290 q 479 387 508 349 q 395 427 451 426 q 289 387 334 429 q 236 279 245 346 q 257 183 229 220 q 342 144 285 145 q 448 183 404 142 q 500 290 492 224 m 555 721 q 538 809 562 777 q 467 844 514 842 q 376 808 414 845 q 332 710 339 771 q 348 620 326 655 q 419 584 371 585 q 510 621 472 583 q 555 721 548 659 z "},"9":{"ha":780,"x_min":89,"x_max":739,"o":"m 517 395 q 339 319 434 318 q 201 363 258 320 q 116 482 144 406 q 97 647 89 558 q 166 844 106 756 q 321 975 226 932 q 460 1001 385 1002 q 654 916 582 998 q 736 694 727 833 q 734 598 739 646 l 727 540 q 543 136 694 281 q 156 -10 392 -10 l 142 -10 l 157 154 l 167 154 q 387 212 300 152 q 517 395 473 272 m 392 469 q 536 552 473 466 l 547 634 q 551 699 551 663 q 524 803 549 764 q 449 844 498 842 q 361 809 400 844 q 302 711 322 773 q 288 589 282 650 q 320 502 292 534 q 392 469 347 469 z "},"\u0000":{"ha":0,"x_min":0,"x_max":0,"o":""},"\u0002":{"ha":0,"x_min":0,"x_max":0,"o":""},"\r":{"ha":342,"x_min":0,"x_max":0,"o":""}," ":{"ha":342,"x_min":0,"x_max":0,"o":""},"!":{"ha":373,"x_min":26,"x_max":391,"o":"m 250 303 l 91 303 l 187 987 l 391 987 l 250 303 m 28 89 q 56 164 26 134 q 132 197 86 195 q 208 170 176 198 q 241 96 239 142 q 212 20 242 52 q 136 -12 182 -11 q 58 18 88 -12 q 28 89 28 47 z "},"\"":{"ha":439,"x_min":82,"x_max":489,"o":"m 258 937 l 191 669 l 82 669 l 141 1042 l 275 1042 l 258 937 m 473 937 l 406 669 l 297 669 l 355 1042 l 489 1042 l 473 937 z "},"#":{"ha":809,"x_min":19,"x_max":829,"o":"m 414 278 l 293 278 l 197 0 l 71 0 l 167 278 l 19 278 l 39 395 l 207 395 l 273 587 l 122 587 l 143 705 l 313 705 l 411 987 l 536 987 l 439 705 l 561 705 l 658 987 l 784 987 l 687 705 l 829 705 l 808 587 l 646 587 l 580 395 l 725 395 l 705 278 l 540 278 l 444 0 l 318 0 l 414 278 m 332 395 l 454 395 l 520 587 l 398 587 l 332 395 z "},"$":{"ha":780,"x_min":40,"x_max":762,"o":"m 500 264 q 484 347 507 312 q 392 412 462 381 q 277 474 323 444 q 149 720 138 568 q 236 911 156 837 q 446 999 316 985 l 473 1144 l 580 1144 l 551 995 q 708 892 654 973 q 759 681 762 810 l 567 682 q 473 844 575 842 q 382 811 419 845 q 338 721 346 777 q 354 644 332 677 q 436 582 375 611 q 538 528 496 553 q 689 266 700 430 q 602 75 682 148 q 391 -11 522 3 l 364 -146 l 258 -146 l 285 -10 q 103 93 165 7 q 44 311 40 178 l 235 310 q 262 186 232 228 q 353 144 292 145 q 451 176 410 142 q 500 264 492 210 z "},"%":{"ha":1002,"x_min":121,"x_max":914,"o":"m 356 1002 q 499 942 447 1000 q 547 798 552 884 l 543 745 q 469 596 533 652 q 315 543 406 540 q 174 600 227 544 q 125 745 121 656 l 128 791 q 198 945 136 887 q 356 1002 261 1004 m 253 743 q 266 680 250 705 q 316 654 281 656 q 377 678 351 653 q 412 745 404 703 l 419 798 q 407 863 424 838 q 357 889 391 888 q 293 864 319 890 q 260 798 266 838 l 253 743 m 490 242 q 562 391 498 334 q 718 446 626 448 q 861 387 808 444 q 909 242 914 330 l 905 197 q 834 41 898 98 q 677 -14 770 -17 q 536 44 591 -13 q 487 189 481 100 l 490 242 m 613 188 q 627 125 610 151 q 677 98 645 100 q 742 121 717 97 q 774 189 767 146 l 781 243 q 769 308 786 283 q 719 333 752 332 q 655 310 682 334 q 621 242 629 285 l 613 188 m 262 75 l 168 133 l 763 895 l 856 839 l 262 75 z "},"&":{"ha":891,"x_min":20,"x_max":821,"o":"m 28 261 q 175 481 35 385 l 241 524 l 214 585 q 184 736 179 671 q 228 876 189 814 q 331 970 267 937 q 471 1001 395 1003 q 635 935 571 998 q 694 777 699 871 q 541 551 688 648 l 463 500 l 591 309 q 659 484 648 391 l 821 484 q 690 169 808 293 l 804 0 l 600 0 l 562 57 q 311 -13 440 -16 q 101 65 182 -12 q 28 261 20 141 m 326 144 q 467 184 385 142 l 322 408 l 306 397 q 224 271 234 344 q 245 180 216 214 q 326 144 275 146 m 351 739 q 351 707 349 723 q 384 616 355 671 l 439 650 q 530 765 524 701 q 514 821 534 799 q 462 844 495 844 q 389 814 420 845 q 351 739 357 784 z "},"'":{"ha":224,"x_min":81,"x_max":281,"o":"m 264 931 l 204 668 l 81 668 l 140 1042 l 281 1042 l 264 931 z "},"(":{"ha":479,"x_min":67,"x_max":542,"o":"m 83 399 q 228 832 115 641 q 509 1098 340 1023 l 542 989 q 248 420 310 812 q 226 181 227 287 q 353 -206 222 -98 l 311 -309 q 106 -27 164 -227 q 71 260 67 107 q 80 382 73 325 l 83 399 z "},")":{"ha":481,"x_min":-71,"x_max":410,"o":"m -38 -311 l -71 -203 q 223 372 162 -24 q 244 606 243 498 q 118 994 248 884 l 161 1096 q 298 969 241 1053 q 383 769 355 886 q 409 528 410 652 q 344 161 405 339 q 184 -138 283 -17 q -38 -311 85 -258 z "},"*":{"ha":617,"x_min":68,"x_max":651,"o":"m 266 655 l 68 718 l 125 833 l 320 746 l 349 987 l 479 987 l 425 752 l 633 832 l 651 701 l 429 641 l 538 456 l 429 386 l 343 585 l 193 396 l 92 477 l 266 655 z "},"+":{"ha":742,"x_min":31,"x_max":720,"o":"m 483 553 l 720 553 l 689 376 l 452 376 l 404 99 l 222 99 l 270 376 l 31 376 l 62 553 l 300 553 l 347 818 l 529 818 l 483 553 z "},",":{"ha":336,"x_min":-80,"x_max":212,"o":"m 21 -248 l -80 -193 l -31 -113 q 25 23 13 -41 l 50 167 l 212 167 l 192 42 q 21 -248 164 -134 z "},"-":{"ha":529,"x_min":61,"x_max":460,"o":"m 433 344 l 61 344 l 88 502 l 460 502 l 433 344 z "},".":{"ha":398,"x_min":28,"x_max":247,"o":"m 136 202 q 213 174 181 203 q 245 100 245 144 q 216 23 247 55 q 139 -8 184 -8 q 62 19 94 -9 q 30 93 31 47 q 59 170 28 138 q 136 202 90 201 z "},"/":{"ha":510,"x_min":-98,"x_max":591,"o":"m 52 -85 l -98 -85 l 440 987 l 591 987 l 52 -85 z "},":":{"ha":387,"x_min":28,"x_max":342,"o":"m 135 202 q 213 174 180 203 q 245 100 245 144 q 215 23 246 55 q 138 -8 184 -8 q 62 19 93 -9 q 29 93 31 47 q 58 170 28 138 q 135 202 89 201 m 231 758 q 308 729 276 759 q 340 655 340 700 q 311 579 342 610 q 234 547 279 547 q 157 574 189 546 q 125 648 126 603 q 154 725 123 694 q 231 758 184 756 z "},";":{"ha":360,"x_min":-66,"x_max":330,"o":"m 219 758 q 297 729 264 759 q 329 655 329 700 q 299 579 330 610 q 222 547 268 547 q 146 574 177 546 q 113 648 115 603 q 142 725 112 694 q 219 758 173 756 m 35 -248 l -66 -193 l -16 -113 q 39 23 27 -41 l 64 167 l 226 167 l 206 42 q 35 -248 178 -134 z "},"<":{"ha":692,"x_min":24,"x_max":663,"o":"m 229 415 l 581 279 l 549 98 l 24 345 l 52 505 l 663 753 l 628 554 l 229 415 z "},"=":{"ha":778,"x_min":55,"x_max":724,"o":"m 695 506 l 106 506 l 134 666 l 724 666 l 695 506 m 644 212 l 55 212 l 83 372 l 673 372 l 644 212 z "},">":{"ha":703,"x_min":22,"x_max":668,"o":"m 465 425 l 105 563 l 137 743 l 668 495 l 640 336 l 22 87 l 58 286 l 465 425 z "},"?":{"ha":677,"x_min":90,"x_max":688,"o":"m 218 302 q 254 451 224 391 q 348 563 284 512 q 433 638 411 614 q 484 775 491 703 q 407 843 477 841 q 326 812 359 844 q 281 726 292 781 l 90 724 q 189 929 98 853 q 416 1002 279 1004 q 616 928 545 999 q 680 741 688 858 q 548 522 671 625 l 461 450 q 385 303 399 392 l 218 302 m 155 91 q 184 168 153 136 q 260 200 214 199 q 336 173 304 201 q 369 98 368 144 q 340 24 370 56 q 263 -9 311 -8 q 187 18 218 -9 q 155 91 156 46 z "},"@":{"ha":1213,"x_min":16,"x_max":1164,"o":"m 810 -14 q 662 83 693 -11 q 480 -13 576 -15 q 356 53 399 -12 q 319 224 314 118 q 376 439 323 329 q 508 612 428 550 q 684 672 587 673 q 777 655 733 671 q 882 599 821 640 l 791 204 l 787 168 q 837 94 779 97 q 975 194 922 90 q 1040 450 1028 298 l 1042 484 q 1011 677 1045 593 q 904 804 977 760 q 724 850 831 848 q 513 803 613 852 q 334 658 413 753 q 211 438 256 562 q 161 188 165 315 q 211 -52 155 45 q 480 -188 290 -186 q 709 -142 589 -189 l 728 -249 q 481 -307 641 -307 q 251 -256 345 -306 q 104 -121 158 -205 q 37 75 51 -36 q 61 395 16 228 q 207 694 106 562 q 441 894 308 826 q 722 960 574 962 q 1036 839 921 957 q 1160 519 1151 722 q 1133 291 1164 404 q 1040 100 1101 178 q 810 -14 948 -18 m 468 217 q 529 106 460 109 q 603 140 566 104 q 657 221 640 175 l 743 545 q 696 554 722 553 q 554 481 611 557 q 472 256 497 404 l 468 217 z "},"A":{"ha":913,"x_min":-71,"x_max":829,"o":"m 595 203 l 250 203 l 149 0 l -71 0 l 457 987 l 641 987 l 829 0 l 626 0 l 595 203 m 332 368 l 570 368 l 514 736 l 332 368 z "},"B":{"ha":867,"x_min":14,"x_max":838,"o":"m 14 0 l 186 987 l 494 987 q 751 917 665 986 q 829 722 838 848 q 656 503 820 572 q 748 427 715 483 q 776 295 781 371 q 666 78 766 155 q 393 0 566 0 l 14 0 m 288 430 l 241 163 l 398 163 q 521 199 471 163 q 580 297 570 235 q 563 392 589 358 q 475 429 537 427 l 288 430 m 313 574 l 448 572 q 571 608 523 574 q 628 702 618 642 q 503 822 645 821 l 356 823 l 313 574 z "},"C":{"ha":888,"x_min":59,"x_max":887,"o":"m 819 330 q 749 148 808 227 q 597 27 691 69 q 395 -14 504 -16 q 225 32 298 -12 q 111 156 153 75 q 64 345 69 238 q 81 552 59 428 q 160 772 103 676 q 294 925 216 869 q 545 1001 404 1004 q 788 906 699 998 q 887 651 878 814 l 689 652 q 652 789 689 745 q 536 835 614 832 q 369 762 434 838 q 281 541 303 686 q 262 328 259 399 q 302 196 265 239 q 404 152 338 154 q 550 195 495 149 q 622 328 604 241 l 819 330 z "},"D":{"ha":882,"x_min":14,"x_max":843,"o":"m 14 0 l 186 987 l 469 987 q 649 942 569 985 q 778 818 728 899 q 838 636 827 737 q 836 515 843 577 l 831 479 q 661 131 802 262 q 319 0 520 0 l 14 0 m 356 823 l 241 163 l 324 163 q 544 263 461 163 q 640 566 627 363 l 641 588 q 598 760 643 700 q 465 822 553 819 l 356 823 z "},"E":{"ha":764,"x_min":14,"x_max":828,"o":"m 666 428 l 288 428 l 241 163 l 686 163 l 658 0 l 14 0 l 186 987 l 828 987 l 799 823 l 356 823 l 315 587 l 694 587 l 666 428 z "},"F":{"ha":745,"x_min":14,"x_max":811,"o":"m 662 404 l 283 404 l 213 0 l 14 0 l 186 987 l 811 987 l 782 823 l 356 823 l 311 568 l 691 568 l 662 404 z "},"G":{"ha":924,"x_min":65,"x_max":897,"o":"m 806 125 q 651 21 753 58 q 420 -13 549 -15 q 243 32 319 -12 q 122 157 166 75 q 72 345 78 239 q 93 574 65 442 q 187 805 120 706 q 347 954 254 905 q 555 1001 441 1003 q 797 914 709 998 q 897 672 884 829 l 705 673 q 661 795 698 755 q 552 837 625 834 q 354 727 427 841 q 272 395 282 612 q 308 216 265 279 q 437 151 350 152 q 609 199 538 148 l 642 369 l 462 369 l 488 519 l 865 519 l 806 125 z "},"H":{"ha":959,"x_min":14,"x_max":966,"o":"m 795 0 l 597 0 l 670 423 l 287 423 l 213 0 l 14 0 l 186 987 l 385 987 l 315 587 l 699 587 l 768 987 l 966 987 l 795 0 z "},"I":{"ha":399,"x_min":27,"x_max":397,"o":"m 226 0 l 27 0 l 198 987 l 397 987 l 226 0 z "},"J":{"ha":760,"x_min":1,"x_max":772,"o":"m 574 987 l 772 987 l 656 304 q 594 136 644 210 q 465 23 544 62 q 292 -14 387 -16 q 77 68 153 -12 q 5 292 1 149 l 205 292 q 303 150 195 152 q 404 189 362 148 q 457 304 445 231 l 574 987 z "},"K":{"ha":862,"x_min":14,"x_max":966,"o":"m 391 394 l 260 273 l 213 0 l 14 0 l 186 987 l 385 987 l 309 552 l 410 666 l 707 987 l 966 987 l 539 538 l 793 0 l 567 0 l 391 394 z "},"L":{"ha":736,"x_min":14,"x_max":661,"o":"m 241 163 l 661 163 l 632 0 l 14 0 l 186 987 l 385 987 l 241 163 z "},"M":{"ha":1187,"x_min":14,"x_max":1195,"o":"m 441 987 l 562 273 l 930 987 l 1195 987 l 1023 0 l 824 0 l 873 281 l 969 721 l 591 0 l 454 0 l 322 746 l 258 260 l 213 0 l 14 0 l 186 987 l 441 987 z "},"N":{"ha":958,"x_min":14,"x_max":966,"o":"m 795 0 l 602 0 l 328 659 l 213 0 l 14 0 l 186 987 l 378 987 l 653 328 l 768 987 l 966 987 l 795 0 z "},"O":{"ha":937,"x_min":61,"x_max":904,"o":"m 411 -14 q 238 33 313 -12 q 119 161 163 77 q 68 353 75 245 q 92 591 61 465 q 193 812 123 717 q 355 956 262 908 q 557 1001 448 1003 q 731 954 656 999 q 848 824 806 909 q 897 633 891 740 q 871 387 904 513 q 770 169 839 261 q 610 31 702 77 q 411 -14 518 -16 m 692 521 l 698 585 q 666 768 705 706 q 547 833 627 831 q 350 724 423 838 q 268 405 277 610 q 300 220 261 285 q 420 153 338 155 q 596 236 526 148 q 688 484 666 323 l 692 521 z "},"P":{"ha":876,"x_min":14,"x_max":875,"o":"m 274 348 l 213 0 l 14 0 l 186 987 l 532 987 q 783 898 692 987 q 863 666 875 809 q 742 434 852 521 q 461 347 632 347 l 274 348 m 302 513 l 467 511 q 600 553 547 511 q 663 665 653 594 q 641 777 673 735 q 543 822 608 819 l 356 823 l 302 513 z "},"Q":{"ha":937,"x_min":60,"x_max":899,"o":"m 650 64 l 787 -70 l 651 -176 l 478 -8 q 406 -13 439 -14 q 168 87 258 -12 q 66 354 77 186 q 79 540 60 437 q 140 729 97 643 q 244 877 182 815 q 386 971 307 939 q 554 1001 465 1003 q 728 954 653 999 q 846 825 802 909 q 895 633 889 741 q 892 515 899 574 l 880 437 q 650 64 835 184 m 696 585 q 662 771 701 711 q 545 833 623 831 q 348 724 420 838 q 265 405 275 610 q 297 220 258 285 q 417 153 336 155 q 593 236 524 148 q 685 484 663 323 q 696 585 694 549 z "},"R":{"ha":867,"x_min":14,"x_max":854,"o":"m 437 361 l 276 361 l 213 0 l 14 0 l 186 987 l 513 987 q 765 909 677 987 q 844 694 854 832 q 627 412 829 491 l 766 11 l 766 0 l 554 0 l 437 361 m 304 526 l 452 525 q 582 567 531 526 q 644 679 633 608 q 623 782 653 745 q 526 822 592 819 l 356 823 l 304 526 z "},"S":{"ha":835,"x_min":23,"x_max":837,"o":"m 557 264 q 478 387 572 345 l 347 439 q 131 720 119 541 q 185 866 136 802 q 324 966 235 930 q 517 1001 414 1002 q 749 916 661 998 q 836 695 837 833 l 637 695 q 608 800 641 762 q 506 838 575 837 q 388 807 438 840 q 328 719 338 775 q 427 602 315 645 l 517 568 l 568 544 q 755 266 768 445 q 700 115 749 178 q 564 18 650 52 q 375 -14 478 -16 q 188 30 270 -12 q 63 149 106 72 q 26 311 23 220 l 224 311 q 382 147 215 150 q 502 179 455 147 q 557 264 549 211 z "},"T":{"ha":840,"x_min":98,"x_max":908,"o":"m 879 823 l 586 823 l 444 0 l 245 0 l 387 823 l 98 823 l 127 987 l 908 987 l 879 823 z "},"U":{"ha":894,"x_min":57,"x_max":915,"o":"m 915 987 l 804 336 q 668 78 781 173 q 389 -14 555 -17 q 207 32 284 -12 q 94 155 130 75 q 68 336 57 235 l 179 987 l 378 987 l 267 335 q 267 264 262 297 q 397 150 280 154 q 535 196 481 147 q 604 336 589 245 l 715 987 l 915 987 z "},"V":{"ha":888,"x_min":98,"x_max":971,"o":"m 411 247 l 743 987 l 971 987 l 484 0 l 276 0 l 98 987 l 312 987 l 411 247 z "},"W":{"ha":1185,"x_min":115,"x_max":1251,"o":"m 810 287 l 1048 987 l 1251 987 l 884 0 l 684 0 l 632 658 l 374 0 l 174 0 l 115 987 l 309 987 l 329 290 l 595 987 l 764 987 l 810 287 z "},"X":{"ha":863,"x_min":-55,"x_max":932,"o":"m 460 648 l 693 987 l 932 987 l 569 488 l 774 0 l 554 0 l 425 345 l 186 0 l -55 0 l 316 507 l 117 987 l 334 987 l 460 648 z "},"Y":{"ha":840,"x_min":104,"x_max":938,"o":"m 434 544 l 710 987 l 938 987 l 507 347 l 447 0 l 245 0 l 309 370 l 104 987 l 314 987 l 434 544 z "},"Z":{"ha":823,"x_min":-23,"x_max":869,"o":"m 256 165 l 736 163 l 708 0 l -23 0 l -1 130 l 590 821 l 120 823 l 149 987 l 869 987 l 846 861 l 256 165 z "},"[":{"ha":381,"x_min":-21,"x_max":480,"o":"m 456 998 l 363 998 l 195 -79 l 288 -79 l 264 -230 l -21 -230 l 195 1149 l 480 1149 l 456 998 z "},"\\":{"ha":575,"x_min":104,"x_max":505,"o":"m 104 987 l 291 987 l 505 -85 l 318 -85 l 104 987 z "},"]":{"ha":381,"x_min":-92,"x_max":410,"o":"m 124 1149 l 410 1149 l 194 -230 l -92 -230 l -68 -79 l 26 -79 l 195 998 l 100 998 l 124 1149 z "},"^":{"ha":595,"x_min":39,"x_max":572,"o":"m 368 802 l 201 494 l 39 494 l 321 987 l 460 987 l 572 494 l 429 494 l 368 802 z "},"_":{"ha":608,"x_min":-97,"x_max":530,"o":"m 504 -153 l -97 -153 l -70 0 l 530 0 l 504 -153 z "},"`":{"ha":452,"x_min":138,"x_max":433,"o":"m 433 831 l 290 832 l 138 1040 l 336 1042 l 433 831 z "},"a":{"ha":729,"x_min":9,"x_max":675,"o":"m 427 0 q 419 66 418 28 q 232 -14 336 -16 q 72 49 136 -12 q 13 201 9 111 q 114 385 18 321 q 371 449 210 449 l 460 448 l 470 492 q 472 534 474 514 q 448 584 469 566 q 393 603 427 602 q 317 581 349 604 q 277 513 286 557 l 85 513 q 182 683 90 618 q 409 747 274 749 q 604 673 534 745 q 663 489 675 602 l 607 138 l 604 94 q 615 13 602 46 l 614 0 l 427 0 m 279 135 q 424 207 362 132 l 448 334 l 381 334 q 229 270 275 332 q 208 215 212 248 q 223 157 202 178 q 279 135 243 136 z "},"b":{"ha":765,"x_min":2,"x_max":713,"o":"m 707 365 q 602 87 687 191 q 380 -14 516 -18 q 204 79 264 -12 l 176 0 l 2 0 l 182 1042 l 374 1042 l 300 667 q 479 747 378 750 q 647 671 586 746 q 711 464 707 596 q 707 365 713 422 m 517 379 q 522 469 524 437 q 424 589 514 587 q 283 512 339 591 l 231 220 q 340 144 256 147 q 513 349 481 140 l 517 379 z "},"c":{"ha":709,"x_min":29,"x_max":678,"o":"m 323 144 q 412 173 376 142 q 458 253 447 203 l 637 254 q 589 115 633 176 q 472 18 545 53 q 319 -14 399 -16 q 107 78 185 -12 q 32 318 29 168 l 34 355 l 35 363 q 155 647 53 542 q 408 747 258 751 q 605 666 532 745 q 677 460 678 588 l 498 460 q 473 553 498 519 q 395 589 447 587 q 229 389 258 593 q 222 264 219 315 q 323 144 229 146 z "},"d":{"ha":766,"x_min":31,"x_max":795,"o":"m 366 748 q 532 666 469 745 l 604 1042 l 795 1042 l 615 0 l 444 0 l 455 79 q 264 -14 373 -17 q 144 22 195 -14 q 64 123 92 57 q 33 271 36 189 q 35 353 31 313 l 39 384 q 102 582 56 496 q 216 709 149 667 q 366 748 283 750 m 227 353 q 224 267 222 302 q 320 145 231 147 q 460 221 401 142 l 513 513 q 407 589 486 585 q 291 535 337 591 q 227 353 244 479 z "},"e":{"ha":735,"x_min":33,"x_max":709,"o":"m 351 -14 q 180 34 254 -13 q 69 161 106 80 q 41 340 33 242 l 43 367 q 105 564 53 474 q 239 702 157 653 q 421 747 321 750 q 636 643 563 745 q 691 387 709 542 l 680 303 l 231 303 q 265 189 228 232 q 367 145 302 146 q 550 226 471 142 l 637 117 q 518 20 596 55 q 351 -14 440 -15 m 412 589 q 318 556 359 591 q 244 436 277 522 l 507 436 l 511 454 q 512 505 515 481 q 479 567 505 545 q 412 589 452 589 z "},"f":{"ha":490,"x_min":50,"x_max":589,"o":"m 54 0 l 156 590 l 50 590 l 75 734 l 181 734 l 191 808 q 286 992 208 925 q 485 1057 364 1059 q 589 1043 526 1056 l 572 890 q 515 899 539 899 q 428 873 465 899 q 383 793 392 846 l 373 734 l 515 734 l 490 590 l 349 590 l 246 0 l 54 0 z "},"g":{"ha":776,"x_min":-11,"x_max":753,"o":"m 39 368 q 150 644 59 538 q 378 748 240 750 q 553 663 495 745 l 578 734 l 753 734 l 633 25 q 509 -207 614 -121 q 248 -290 404 -292 q 103 -257 172 -288 q -11 -170 34 -225 l 84 -54 q 244 -137 148 -134 q 372 -98 319 -140 q 444 20 425 -56 l 454 64 q 275 -14 374 -16 q 104 66 168 -12 q 35 270 41 144 q 39 368 33 311 m 227 288 q 253 185 227 224 q 331 145 280 147 q 469 212 409 142 l 526 522 q 418 589 497 586 q 294 530 345 591 q 231 368 243 469 q 227 288 226 318 z "},"h":{"ha":761,"x_min":-3,"x_max":704,"o":"m 294 652 q 492 747 380 749 q 653 669 602 745 q 691 463 704 593 l 614 0 l 422 0 l 500 465 q 502 513 504 491 q 416 589 495 587 q 281 522 339 591 l 189 0 l -3 0 l 178 1042 l 370 1042 l 294 652 z "},"i":{"ha":364,"x_min":12,"x_max":376,"o":"m 204 0 l 12 0 l 139 734 l 332 734 l 204 0 m 161 920 q 191 996 160 966 q 267 1025 222 1025 q 342 999 310 1027 q 375 927 374 971 q 347 854 376 885 q 270 821 317 823 q 195 847 227 820 q 161 920 163 874 z "},"j":{"ha":357,"x_min":-178,"x_max":373,"o":"m 332 734 l 201 -40 q 112 -231 185 -163 q -76 -298 39 -300 q -178 -286 -122 -297 l -162 -130 q -103 -138 -128 -137 q 7 -41 -13 -140 l 140 734 l 332 734 m 158 920 q 186 995 157 965 q 263 1025 216 1024 q 340 998 310 1025 q 372 927 370 970 q 343 852 373 882 q 267 821 313 823 q 192 847 224 820 q 158 920 159 874 z "},"k":{"ha":726,"x_min":2,"x_max":776,"o":"m 319 292 l 231 215 l 193 0 l 2 0 l 182 1042 l 374 1042 l 275 476 l 313 516 l 530 734 l 776 734 l 455 418 l 659 0 l 450 0 l 319 292 z "},"l":{"ha":364,"x_min":12,"x_max":385,"o":"m 204 0 l 12 0 l 193 1042 l 385 1042 l 204 0 z "},"m":{"ha":1173,"x_min":2,"x_max":1111,"o":"m 307 734 l 292 651 q 507 747 380 750 q 619 716 574 746 q 680 635 664 686 q 907 747 777 750 q 1060 678 1008 745 q 1103 484 1111 611 l 1101 467 l 1023 0 l 831 0 l 909 469 q 911 515 912 494 q 830 589 907 587 q 695 505 751 589 l 693 489 l 608 0 l 416 0 l 494 467 q 496 514 497 492 q 416 588 492 586 q 285 519 343 590 l 193 0 l 2 0 l 129 734 l 307 734 z "},"n":{"ha":762,"x_min":-2,"x_max":705,"o":"m 304 734 l 288 648 q 502 747 376 750 q 655 671 606 745 q 691 467 705 597 l 614 0 l 422 0 l 501 469 q 503 517 505 495 q 416 588 494 586 q 281 518 340 591 l 189 0 l -2 0 l 125 734 l 304 734 z "},"o":{"ha":768,"x_min":30,"x_max":725,"o":"m 422 747 q 589 697 519 746 q 692 564 659 649 q 715 375 725 479 q 594 92 700 200 q 332 -14 488 -16 q 166 36 236 -12 q 63 168 96 83 q 39 355 30 253 q 163 644 57 537 q 422 747 269 751 m 229 286 q 259 183 230 220 q 341 144 288 145 q 479 225 429 141 q 526 445 530 309 q 495 549 524 510 q 412 589 466 588 q 276 509 327 592 q 229 286 224 426 z "},"p":{"ha":765,"x_min":-47,"x_max":712,"o":"m 707 365 q 646 160 692 250 q 532 27 600 71 q 380 -14 463 -16 q 212 65 273 -12 l 144 -282 l -47 -282 l 129 734 l 305 734 l 292 661 q 479 747 372 750 q 647 669 587 745 q 711 464 707 593 q 707 365 712 422 m 517 379 l 521 444 q 497 549 522 510 q 422 589 471 587 q 285 518 339 591 l 230 216 q 338 144 255 147 q 453 198 407 142 q 517 379 499 254 z "},"q":{"ha":768,"x_min":31,"x_max":743,"o":"m 366 748 q 541 656 480 745 l 572 734 l 743 734 l 566 -282 l 374 -282 l 442 64 q 264 -14 366 -16 q 144 22 195 -13 q 64 124 92 58 q 33 271 36 191 q 35 355 31 314 l 39 385 q 102 584 56 498 q 216 710 149 669 q 366 748 283 750 m 224 267 q 321 144 231 146 q 459 216 401 142 l 515 521 q 408 589 488 587 q 290 533 336 591 q 229 369 243 474 q 224 267 222 299 z "},"r":{"ha":498,"x_min":2,"x_max":529,"o":"m 505 550 q 440 557 465 557 q 278 480 338 559 l 193 0 l 2 0 l 130 734 l 309 734 l 292 645 q 463 749 361 749 q 529 739 491 749 l 505 550 z "},"s":{"ha":699,"x_min":6,"x_max":661,"o":"m 427 207 q 352 286 438 261 l 290 301 q 77 514 71 361 q 169 683 81 618 q 382 747 258 749 q 583 682 507 746 q 661 510 660 617 l 471 511 q 378 606 473 605 q 300 584 333 606 q 260 524 267 562 q 342 447 250 469 l 369 441 q 512 390 463 418 q 588 318 562 361 q 613 216 615 275 q 568 94 611 146 q 450 13 525 41 q 292 -14 375 -16 q 89 57 170 -12 q 6 235 7 125 l 186 233 q 299 127 189 128 q 386 149 352 127 q 427 207 420 170 z "},"t":{"ha":462,"x_min":38,"x_max":480,"o":"m 390 914 l 358 734 l 480 734 l 455 590 l 333 590 l 271 222 q 276 170 267 188 q 322 150 286 151 q 380 153 333 149 l 367 3 q 257 -12 316 -14 q 117 47 163 -11 q 79 203 71 104 l 142 590 l 38 590 l 63 734 l 167 734 l 198 914 l 390 914 z "},"u":{"ha":761,"x_min":40,"x_max":748,"o":"m 456 76 q 254 -14 375 -16 q 94 62 149 -12 q 52 259 40 137 l 132 734 l 323 734 l 242 257 q 241 215 239 235 q 317 145 248 147 q 464 214 406 142 l 555 734 l 748 734 l 621 0 l 442 0 l 456 76 z "},"v":{"ha":688,"x_min":62,"x_max":726,"o":"m 311 242 l 519 734 l 726 734 l 371 0 l 188 0 l 62 734 l 256 734 l 311 242 z "},"w":{"ha":997,"x_min":78,"x_max":1029,"o":"m 665 267 l 839 734 l 1029 734 l 721 0 l 561 0 l 507 459 l 292 0 l 132 0 l 78 734 l 257 734 l 269 272 l 478 734 l 616 734 l 665 267 z "},"x":{"ha":692,"x_min":-56,"x_max":724,"o":"m 355 516 l 509 734 l 724 734 l 458 365 l 607 0 l 413 0 l 323 229 l 161 0 l -56 0 l 221 384 l 79 734 l 273 734 l 355 516 z "},"y":{"ha":683,"x_min":-37,"x_max":736,"o":"m 313 279 l 523 734 l 736 734 l 307 -111 q 198 -253 260 -208 q 55 -298 136 -298 q -37 -284 23 -298 l -23 -135 l 3 -136 q 140 -68 97 -139 l 182 10 l 62 734 l 260 734 l 313 279 z "},"z":{"ha":692,"x_min":-22,"x_max":686,"o":"m 252 159 l 597 158 l 570 0 l -22 0 l 0 130 l 409 574 l 87 575 l 115 734 l 686 734 l 665 608 l 252 159 z "},"{":{"ha":452,"x_min":26,"x_max":513,"o":"m 297 -244 q 138 -127 190 -208 q 98 72 85 -45 l 117 211 q 118 264 120 239 q 26 348 111 340 l 39 488 q 185 639 165 494 l 207 795 q 481 1086 247 1015 l 513 973 q 376 767 399 929 l 355 612 q 203 416 332 481 q 272 329 250 381 q 288 210 294 276 l 267 50 l 264 11 q 338 -135 259 -99 l 297 -244 z "},"|":{"ha":347,"x_min":21,"x_max":321,"o":"m 138 -183 l 21 -183 l 204 987 l 321 987 l 138 -183 z "},"}":{"ha":452,"x_min":-64,"x_max":422,"o":"m -64 -134 q 73 73 50 -90 l 94 229 q 248 423 117 359 q 177 510 199 456 q 161 630 155 564 l 182 790 l 185 829 q 111 975 190 938 l 155 1082 q 314 963 264 1045 q 351 768 363 882 l 332 629 q 331 576 329 600 q 422 491 338 498 l 410 351 q 264 201 283 344 l 245 66 q -32 -247 211 -174 l -64 -134 z "},"~":{"ha":880,"x_min":54,"x_max":816,"o":"m 816 539 q 781 392 812 459 q 696 289 749 326 q 575 254 644 252 q 482 277 523 255 q 402 340 441 300 q 344 391 363 380 q 300 402 324 401 q 233 370 260 402 q 196 280 205 338 l 54 281 q 129 486 62 408 q 297 562 195 564 q 391 537 349 560 q 481 464 433 515 q 570 414 530 414 q 641 448 612 414 q 679 538 670 481 l 816 539 z "},"¡":{"ha":387,"x_min":-25,"x_max":340,"o":"m 116 433 l 275 433 l 178 -250 l -25 -250 l 116 433 m 338 646 q 309 569 340 600 q 233 538 277 538 q 158 566 191 537 q 125 640 126 594 q 153 715 123 684 q 230 747 183 746 q 305 721 273 749 q 338 646 337 692 z "},"¢":{"ha":782,"x_min":51,"x_max":712,"o":"m 351 144 q 440 173 404 142 q 486 253 476 203 l 667 254 q 587 82 659 152 q 401 -7 515 12 l 368 -166 l 235 -166 l 269 -6 q 104 117 158 20 q 65 355 51 215 q 167 621 82 522 q 388 742 252 720 l 420 894 l 553 894 l 521 739 q 662 645 611 718 q 711 460 712 572 l 532 460 l 531 483 q 431 589 522 585 q 318 539 363 593 q 258 374 273 486 q 252 265 250 300 q 351 144 256 146 z "},"£":{"ha":807,"x_min":-4,"x_max":820,"o":"m 369 391 l 357 291 q 289 161 347 217 l 723 163 l 694 0 l -4 0 l 25 163 l 76 161 q 127 202 109 174 q 155 286 145 229 l 169 391 l 62 391 l 90 551 l 191 551 l 210 701 q 319 922 227 842 q 547 1000 412 1003 q 748 922 677 998 q 817 717 820 846 l 627 718 q 535 838 631 836 q 453 803 488 839 q 409 705 419 767 l 391 551 l 594 551 l 566 391 l 369 391 z "},"¤":{"ha":939,"x_min":-2,"x_max":946,"o":"m 659 71 q 409 -14 536 -16 q 184 72 273 -11 l 81 -18 l -2 90 l 102 174 q 77 408 64 300 q 193 663 95 554 l 115 769 l 216 857 l 290 760 q 530 836 410 839 q 747 758 655 835 l 863 858 l 946 750 l 831 656 q 860 417 873 530 q 753 173 844 279 l 829 71 l 728 -18 l 659 71 m 200 406 q 213 264 190 332 q 288 157 236 197 q 410 114 339 117 q 559 152 488 111 q 678 264 630 193 q 738 418 726 336 q 725 560 748 493 q 650 667 702 627 q 528 709 599 706 q 378 670 450 711 q 259 559 306 629 q 200 406 212 488 z "},"¥":{"ha":729,"x_min":20,"x_max":822,"o":"m 392 606 l 605 987 l 822 987 l 524 505 l 665 503 l 643 385 l 454 385 l 441 307 l 631 307 l 610 189 l 420 189 l 387 0 l 189 0 l 222 189 l 20 189 l 41 307 l 241 307 l 256 385 l 54 385 l 75 503 l 240 503 l 112 987 l 311 987 l 392 606 z "},"¦":{"ha":347,"x_min":-19,"x_max":357,"o":"m -19 -183 l 75 356 l 248 356 l 154 -183 l -19 -183 m 267 473 l 95 473 l 184 987 l 357 987 l 267 473 z "},"§":{"ha":853,"x_min":-19,"x_max":823,"o":"m 764 332 q 721 216 759 262 q 625 139 684 170 q 682 -47 689 64 q 630 -185 676 -127 q 500 -276 585 -243 q 311 -307 416 -309 q 68 -231 155 -305 q -16 -23 -19 -156 l 174 -23 q 209 -116 172 -85 q 317 -147 246 -147 q 436 -121 391 -147 q 490 -50 481 -96 q 398 56 504 17 l 332 77 q 114 190 178 124 q 56 357 50 256 q 195 551 63 477 q 137 737 130 627 q 234 920 145 850 q 465 1000 323 989 l 511 1001 q 741 922 659 998 q 821 711 823 846 l 631 711 q 600 807 633 772 q 504 842 566 841 q 387 816 434 844 q 330 739 340 788 q 433 627 315 660 q 615 563 552 594 q 712 492 677 531 q 764 332 770 427 m 325 478 q 252 376 264 441 q 350 257 236 294 l 404 240 l 492 211 q 570 312 556 249 q 475 427 584 387 l 325 478 z "},"¨":{"ha":635,"x_min":142,"x_max":647,"o":"m 143 924 q 168 985 142 959 q 232 1013 193 1011 q 298 988 271 1014 q 326 928 326 963 q 301 866 328 892 q 237 840 275 841 q 173 862 201 838 q 143 924 144 886 m 464 924 q 488 985 463 959 q 553 1013 514 1011 q 618 989 591 1014 q 647 928 646 964 q 622 865 647 890 q 558 839 596 840 q 492 862 521 838 q 464 924 464 886 z "},"©":{"ha":1063,"x_min":63,"x_max":1027,"o":"m 739 405 q 670 246 732 303 q 505 191 608 189 q 348 268 404 194 q 301 454 292 342 l 309 528 q 392 726 321 653 q 567 798 462 799 q 720 739 665 795 q 772 583 774 682 l 669 584 q 570 707 678 704 q 465 660 507 708 q 413 527 422 611 q 402 428 403 442 q 404 396 402 414 q 431 316 406 347 q 500 283 456 285 q 635 404 614 278 l 739 405 m 159 490 q 179 284 144 382 q 291 130 214 187 q 469 71 368 72 q 677 124 578 68 q 844 280 776 180 q 930 499 913 380 q 910 704 945 607 q 799 857 875 800 q 620 916 723 913 q 409 861 510 919 q 241 702 307 804 q 159 490 174 601 m 77 490 q 136 688 89 593 q 258 856 182 783 q 424 966 334 928 q 612 1001 515 1003 q 832 931 736 998 q 978 747 928 865 q 1013 498 1027 629 q 931 257 998 370 q 758 73 863 144 q 478 -14 627 -16 q 257 57 353 -11 q 112 242 161 124 q 77 490 63 360 z "},"ª":{"ha":605,"x_min":127,"x_max":571,"o":"m 420 476 l 418 525 q 281 469 357 469 q 169 509 210 469 q 127 618 127 550 q 191 738 128 696 q 368 781 254 781 l 439 779 l 448 817 l 450 848 q 395 901 448 899 q 296 833 314 903 l 178 842 q 242 960 183 917 q 391 1002 302 1003 q 522 949 473 1000 q 564 814 571 899 l 528 578 l 526 538 q 531 476 525 509 l 420 476 m 304 565 q 413 608 351 565 l 432 701 l 378 701 q 286 677 321 699 q 245 621 252 656 q 256 580 241 595 q 304 565 271 565 z "},"«":{"ha":680,"x_min":41,"x_max":656,"o":"m 189 345 l 298 85 l 185 85 l 41 348 l 41 362 l 265 627 l 403 627 l 189 345 m 441 345 l 551 85 l 438 85 l 294 348 l 294 362 l 518 627 l 656 627 l 441 345 z "},"¬":{"ha":749,"x_min":86,"x_max":657,"o":"m 606 254 l 473 254 l 505 430 l 86 430 l 106 546 l 657 546 l 606 254 z "},"®":{"ha":1063,"x_min":63,"x_max":1027,"o":"m 77 490 q 136 688 89 593 q 258 856 182 783 q 424 966 334 928 q 612 1001 515 1003 q 832 931 736 998 q 978 747 928 865 q 1013 498 1027 629 q 931 257 998 370 q 758 73 863 144 q 478 -14 627 -16 q 257 57 353 -11 q 112 242 161 124 q 77 490 63 360 m 159 490 q 180 283 144 381 q 291 130 215 186 q 469 71 367 73 q 676 123 576 68 q 844 280 776 179 q 930 499 913 380 q 910 704 945 607 q 799 857 875 800 q 620 916 723 913 q 409 861 510 919 q 241 702 307 804 q 159 490 174 601 m 443 443 l 407 214 l 307 214 l 397 791 l 570 790 q 719 741 667 787 q 767 617 770 694 q 743 547 765 578 q 674 490 720 517 q 724 389 720 457 q 721 329 725 370 q 718 269 716 288 l 720 226 l 720 213 l 619 214 q 616 263 615 239 q 625 350 617 292 q 615 416 629 393 q 556 441 601 439 l 443 443 m 457 534 l 536 533 q 627 557 591 535 q 669 616 662 579 q 658 677 677 656 q 578 700 639 698 l 483 701 l 457 534 z "},"¯":{"ha":682,"x_min":182,"x_max":656,"o":"m 637 873 l 182 873 l 201 986 l 656 986 l 637 873 z "},"°":{"ha":530,"x_min":153,"x_max":511,"o":"m 155 808 q 213 945 156 887 q 346 1002 271 1003 q 464 946 416 1000 q 509 820 511 892 q 452 684 508 741 q 321 629 396 627 q 201 683 250 630 q 155 808 153 735 m 252 809 q 265 754 248 779 q 315 730 283 730 q 378 755 350 730 q 413 819 407 780 q 400 877 417 852 q 351 901 383 901 q 287 874 317 901 q 252 809 258 847 z "},"±":{"ha":730,"x_min":10,"x_max":699,"o":"m 482 639 l 699 639 l 673 475 l 457 475 l 418 229 l 250 229 l 289 475 l 68 475 l 94 639 l 315 639 l 351 871 l 519 871 l 482 639 m 580 1 l 10 1 l 35 160 l 605 160 l 580 1 z "},"²":{"ha":509,"x_min":55,"x_max":513,"o":"m 464 452 l 55 452 l 73 554 l 300 737 q 372 833 364 791 q 366 871 378 857 q 329 886 353 886 q 247 810 263 886 l 109 808 q 174 946 114 894 q 321 996 234 998 q 461 951 410 995 q 512 832 513 907 q 397 659 509 739 l 345 622 l 256 565 l 484 564 l 464 452 z "},"³":{"ha":509,"x_min":65,"x_max":522,"o":"m 237 771 l 292 771 q 354 789 329 772 q 385 836 378 806 q 372 871 388 859 q 332 884 357 884 q 259 843 278 884 l 118 842 q 179 956 123 914 q 323 996 235 997 q 468 954 415 994 q 519 847 522 914 q 412 723 517 767 q 471 679 452 709 q 490 607 491 648 q 424 487 489 532 q 262 445 359 443 q 120 492 174 446 q 65 614 66 537 l 197 613 q 267 557 202 557 q 327 574 302 557 q 358 621 352 591 q 294 678 369 675 l 231 678 l 237 771 z "},"´":{"ha":454,"x_min":126,"x_max":511,"o":"m 289 1042 l 511 1042 l 295 831 l 126 831 l 289 1042 z "},"µ":{"ha":836,"x_min":-28,"x_max":783,"o":"m 339 734 l 269 312 l 265 256 q 350 145 260 147 q 500 216 440 142 l 591 734 l 783 734 l 655 0 l 487 0 l 492 47 q 336 -15 420 -16 q 222 18 273 -15 l 163 -282 l -28 -282 l 148 734 l 339 734 z "},"¶":{"ha":667,"x_min":89,"x_max":680,"o":"m 363 0 l 424 353 l 389 353 q 167 441 245 355 q 101 665 89 528 q 215 899 114 810 q 467 988 316 988 l 680 987 l 508 0 l 363 0 z "},"·":{"ha":412,"x_min":103,"x_max":321,"o":"m 104 469 q 134 546 103 515 q 210 578 164 577 q 287 551 254 580 q 320 476 319 522 q 291 400 321 432 q 213 368 260 368 q 138 394 170 366 q 104 469 106 422 z "},"¸":{"ha":368,"x_min":-31,"x_max":222,"o":"m 151 6 l 137 -37 q 200 -76 179 -46 q 222 -147 222 -105 q 157 -269 222 -225 q -31 -315 92 -312 l -25 -200 q 62 -140 50 -197 q 3 -94 70 -99 l -20 -92 l 9 4 l 151 6 z "},"¹":{"ha":509,"x_min":155,"x_max":442,"o":"m 355 452 l 220 452 l 284 821 l 155 793 l 175 907 l 425 985 l 442 986 l 355 452 z "},"º":{"ha":623,"x_min":128,"x_max":604,"o":"m 394 1002 q 549 930 494 999 q 597 760 604 861 l 593 715 q 512 532 583 600 q 340 467 441 465 q 185 537 242 470 q 136 708 128 605 l 139 751 q 219 934 148 864 q 394 1002 290 1004 m 252 706 q 252 657 250 682 q 278 591 256 616 q 339 566 301 566 q 428 602 391 564 q 475 708 465 640 l 483 777 l 482 810 q 395 901 472 899 q 306 866 343 903 q 258 760 269 828 l 252 706 z "},"»":{"ha":680,"x_min":-7,"x_max":614,"o":"m 211 626 l 355 363 l 355 349 l 131 84 l -7 84 l 207 366 l 98 625 l 211 626 m 469 626 l 614 363 l 613 349 l 389 84 l 252 84 l 465 366 l 356 625 l 469 626 z "},"¼":{"ha":974,"x_min":132,"x_max":884,"o":"m 332 450 l 197 450 l 261 819 l 132 791 l 152 905 l 402 983 l 419 984 l 332 450 m 254 81 l 159 138 l 755 901 l 848 844 l 254 81 m 819 220 l 884 220 l 863 108 l 806 108 l 786 0 l 650 0 l 669 108 l 442 108 l 452 210 l 736 534 l 873 536 l 819 220 m 587 222 l 690 220 l 720 367 l 708 350 l 587 222 z "},"½":{"ha":1032,"x_min":121,"x_max":951,"o":"m 226 81 l 132 138 l 727 901 l 820 844 l 226 81 m 321 454 l 186 454 l 250 823 l 121 795 l 141 909 l 391 987 l 408 988 l 321 454 m 901 0 l 492 0 l 510 102 l 737 285 q 810 380 802 338 q 803 419 815 405 q 766 433 791 433 q 684 357 701 433 l 546 356 q 611 493 551 441 q 758 544 671 545 q 899 499 847 543 q 949 380 951 455 q 835 207 946 286 l 782 170 l 694 113 l 922 111 l 901 0 z "},"¾":{"ha":1095,"x_min":96,"x_max":989,"o":"m 359 81 l 265 138 l 861 901 l 954 844 l 359 81 m 924 220 l 989 220 l 968 108 l 910 108 l 890 0 l 755 0 l 774 108 l 547 108 l 556 210 l 840 534 l 978 536 l 924 220 m 692 222 l 795 220 l 825 367 l 812 350 l 692 222 m 268 771 l 323 771 q 384 789 359 772 q 415 836 409 806 q 403 871 418 859 q 363 884 387 884 q 290 843 309 884 l 149 842 q 209 956 153 914 q 353 996 265 997 q 499 954 446 994 q 550 847 552 914 q 443 723 548 767 q 502 679 482 709 q 521 607 522 648 q 455 487 519 532 q 292 445 390 443 q 151 492 205 446 q 96 614 97 537 l 228 613 q 297 557 233 557 q 357 574 332 557 q 389 621 382 591 q 325 678 399 675 l 261 678 l 268 771 z "},"¿":{"ha":677,"x_min":-28,"x_max":570,"o":"m 439 437 q 406 294 434 354 q 319 184 377 233 l 273 145 q 175 -1 186 73 q 186 -73 169 -45 q 251 -103 204 -102 q 333 -75 299 -104 q 379 14 366 -45 l 570 16 q 472 -189 562 -114 q 244 -261 382 -264 q 45 -191 118 -260 q -21 -1 -28 -121 q 100 210 -14 108 l 199 292 q 273 436 257 345 l 439 437 m 507 647 q 477 570 508 600 q 401 539 446 539 q 326 566 358 538 q 293 640 294 594 q 323 718 292 687 q 398 748 354 748 q 473 721 441 749 q 507 647 505 693 z "},"Æ":{"ha":1273,"x_min":-75,"x_max":1289,"o":"m 1157 0 l 566 0 l 596 226 l 309 226 l 160 0 l -75 0 l 613 987 l 1289 987 l 1260 827 l 867 827 l 835 587 l 1166 587 l 1137 427 l 814 427 l 778 159 l 1185 159 l 1157 0 m 417 395 l 619 393 l 669 768 l 417 395 z "},"×":{"ha":722,"x_min":17,"x_max":713,"o":"m 17 262 l 256 474 l 91 686 l 213 791 l 377 581 l 613 792 l 713 669 l 474 456 l 640 244 l 518 138 l 353 349 l 117 139 l 17 262 z "},"Ø":{"ha":935,"x_min":8,"x_max":962,"o":"m 411 -14 q 222 35 306 -13 l 146 -64 l 8 -64 l 140 102 q 73 471 46 259 l 78 511 q 166 770 98 656 q 335 943 233 884 q 559 1002 436 1003 q 758 945 673 999 l 825 1029 l 962 1029 l 838 873 q 895 515 920 716 l 892 488 q 733 123 863 262 q 411 -14 602 -16 m 262 374 q 264 277 259 326 l 654 795 q 551 835 620 831 q 373 752 444 838 q 279 508 302 666 q 262 374 266 421 m 708 692 l 325 182 q 419 151 359 155 q 588 224 519 148 q 685 448 657 301 q 708 692 713 595 z "},"Þ":{"ha":827,"x_min":16,"x_max":804,"o":"m 379 987 l 347 806 l 467 806 q 715 723 626 805 q 793 506 804 641 q 734 340 786 410 q 594 232 682 269 q 400 194 507 194 l 242 195 l 208 0 l 16 0 l 188 987 l 379 987 m 321 648 l 269 353 l 404 352 q 535 392 480 352 q 602 505 591 433 q 578 607 612 569 q 478 648 544 645 l 321 648 z "},"ß":{"ha":857,"x_min":18,"x_max":778,"o":"m 209 0 l 18 0 l 145 747 q 259 978 165 895 q 498 1057 353 1061 q 684 986 616 1055 q 745 812 753 918 q 732 753 743 781 q 691 675 722 726 q 652 603 661 624 q 638 557 643 582 q 647 493 633 526 q 701 409 661 460 q 760 320 742 359 q 777 246 778 282 q 682 55 770 125 q 454 -14 593 -16 q 265 26 342 -13 l 317 180 q 456 144 377 142 q 542 170 505 144 q 588 242 579 195 q 579 307 593 275 q 519 391 564 340 q 457 483 475 442 q 446 548 444 514 q 458 605 448 578 q 498 680 469 632 q 537 752 527 728 q 551 803 547 777 q 535 873 556 845 q 472 903 515 901 q 382 865 416 905 q 336 745 347 825 l 209 0 z "},"æ":{"ha":1144,"x_min":7,"x_max":1120,"o":"m 762 -14 q 523 85 597 -10 q 249 -14 408 -16 q 120 15 177 -13 q 35 93 64 43 q 10 211 7 143 q 108 381 15 322 q 364 441 201 441 l 477 439 l 486 480 q 488 522 490 503 q 410 589 478 587 q 326 569 362 591 q 281 505 290 547 l 91 517 q 191 688 96 626 q 420 748 286 751 q 625 673 559 745 q 850 747 728 749 q 1050 652 980 744 q 1104 415 1120 560 l 1087 305 l 652 305 q 680 189 645 232 q 786 145 715 146 q 890 159 841 144 q 989 197 940 174 l 1030 66 q 762 -14 939 -14 m 289 130 q 435 184 354 130 l 461 313 l 367 313 q 255 283 300 311 q 203 208 210 254 q 220 151 196 172 q 289 130 243 130 m 839 589 q 665 436 723 593 l 916 436 l 920 457 q 923 505 924 481 q 839 589 918 585 z "},"ð":{"ha":782,"x_min":35,"x_max":748,"o":"m 643 883 q 725 671 702 778 q 734 443 748 564 l 730 408 q 596 100 707 217 q 331 -14 485 -18 q 175 30 243 -12 q 71 148 106 73 q 43 312 35 224 q 98 492 52 412 q 217 615 143 572 q 383 656 290 657 q 544 603 471 653 q 481 783 540 698 l 338 699 l 296 786 l 406 846 q 246 920 351 892 l 319 1071 q 571 949 471 1035 l 701 1025 l 742 937 l 643 883 m 549 451 q 496 493 530 479 q 421 507 463 507 q 295 454 345 509 q 235 312 244 399 q 256 192 227 238 q 343 143 286 145 q 461 196 412 141 q 531 357 510 252 l 547 442 l 549 451 z "},"÷":{"ha":775,"x_min":37,"x_max":743,"o":"m 715 387 l 37 387 l 64 543 l 743 543 l 715 387 m 330 735 q 359 811 329 780 q 437 842 390 842 q 513 815 482 844 q 546 742 545 787 q 516 667 547 697 q 440 636 486 636 q 363 663 394 635 q 330 735 332 691 m 235 184 q 264 260 233 229 q 341 292 294 292 q 418 264 387 293 q 450 191 449 236 q 421 116 452 146 q 345 85 390 85 q 267 112 298 84 q 235 184 236 140 z "},"ø":{"ha":767,"x_min":18,"x_max":733,"o":"m 37 370 q 104 568 51 479 q 240 703 157 656 q 425 749 323 750 q 547 727 487 748 l 615 825 l 733 824 l 631 679 q 715 456 709 588 q 711 361 716 417 q 645 165 697 251 q 509 31 593 79 q 322 -15 425 -16 q 206 5 263 -14 l 136 -96 l 18 -96 l 120 50 q 34 273 39 139 q 37 370 32 311 m 217 287 q 221 217 214 252 l 463 583 q 418 591 441 591 q 279 516 332 593 q 217 287 227 439 m 530 441 q 528 508 532 474 l 288 148 q 328 142 309 142 q 452 196 401 140 q 521 361 502 252 q 530 441 528 412 z "},"þ":{"ha":771,"x_min":-45,"x_max":713,"o":"m 708 365 q 647 159 694 248 q 533 27 601 70 q 381 -14 465 -16 q 213 64 277 -12 l 146 -282 l -45 -282 l 184 1042 l 376 1042 l 303 669 q 481 747 380 750 q 647 671 587 746 q 712 464 708 596 q 708 365 713 422 m 518 379 l 522 444 q 498 549 524 510 q 424 589 473 587 q 287 519 342 591 l 231 214 q 339 144 256 146 q 451 195 406 142 q 514 351 497 248 l 518 379 z "},"đ":{"ha":856,"x_min":31,"x_max":884,"o":"m 862 826 l 758 826 l 615 0 l 444 0 l 455 79 q 264 -14 374 -16 q 100 64 162 -12 q 33 273 38 140 q 37 372 31 311 q 97 575 50 485 q 213 707 144 665 q 367 748 281 750 q 532 666 469 745 l 566 826 l 400 826 l 422 950 l 587 950 l 604 1042 l 796 1042 l 780 950 l 884 950 l 862 826 m 222 288 q 246 183 221 221 q 319 143 271 144 q 460 221 400 140 l 513 513 q 406 588 486 586 q 273 510 321 591 q 222 288 225 429 z "},"Ħ":{"ha":977,"x_min":24,"x_max":1030,"o":"m 949 830 l 1030 830 l 1010 712 l 929 712 l 806 0 l 607 0 l 681 423 l 297 423 l 224 0 l 24 0 l 148 712 l 73 712 l 94 830 l 168 830 l 195 987 l 395 987 l 368 830 l 751 830 l 779 987 l 977 987 l 949 830 m 326 587 l 709 587 l 731 712 l 347 712 l 326 587 z "},"ı":{"ha":376,"x_min":17,"x_max":336,"o":"m 208 0 l 17 0 l 144 734 l 336 734 l 208 0 z "},"ĸ":{"ha":802,"x_min":14,"x_max":823,"o":"m 336 271 l 253 271 l 206 0 l 14 0 l 142 734 l 334 734 l 285 458 l 334 458 l 568 734 l 823 734 l 503 370 l 696 0 l 461 0 l 336 271 z "},"Ł":{"ha":758,"x_min":18,"x_max":682,"o":"m 340 611 l 490 652 l 469 533 l 320 491 l 263 163 l 682 163 l 654 0 l 36 0 l 111 431 l 18 406 l 39 526 l 132 551 l 208 987 l 406 987 l 340 611 z "},"ł":{"ha":418,"x_min":19,"x_max":434,"o":"m 334 622 l 434 653 l 413 532 l 314 501 l 227 0 l 35 0 l 111 435 l 19 406 l 40 526 l 132 556 l 216 1042 l 408 1042 l 334 622 z "},"Ŋ":{"ha":954,"x_min":13,"x_max":964,"o":"m 964 987 l 793 -17 q 700 -224 777 -149 q 500 -298 622 -300 q 396 -286 452 -297 l 422 -123 q 486 -133 463 -134 q 597 -7 572 -133 l 599 0 l 330 673 l 212 0 l 13 0 l 184 987 l 377 987 l 649 315 l 766 987 l 964 987 z "},"ŋ":{"ha":767,"x_min":0,"x_max":697,"o":"m 304 734 l 288 629 q 503 747 378 750 q 644 685 594 746 q 696 519 694 625 q 694 448 697 484 l 618 -23 q 526 -227 602 -155 q 330 -298 451 -300 q 229 -286 284 -297 l 254 -128 q 318 -139 290 -139 q 425 -23 403 -139 l 502 448 l 505 498 q 426 587 505 584 q 286 530 351 590 l 191 0 l 0 0 l 127 734 l 304 734 z "},"Œ":{"ha":1312,"x_min":51,"x_max":1338,"o":"m 1168 0 l 597 0 l 464 -12 l 405 -12 q 212 43 295 -9 q 90 189 130 96 q 65 391 51 281 l 96 593 q 251 891 125 781 q 553 1002 376 1002 l 602 1000 l 743 987 l 1338 987 l 1309 823 l 867 823 l 825 587 l 1204 587 l 1176 428 l 798 428 l 752 163 l 1196 163 l 1168 0 m 411 145 q 546 151 464 143 l 673 835 q 549 846 612 844 q 376 780 445 846 q 289 594 308 713 l 256 390 q 254 302 250 345 q 300 189 260 230 q 411 145 341 148 z "},"œ":{"ha":1222,"x_min":39,"x_max":1180,"o":"m 52 370 q 159 626 70 524 q 437 748 269 751 q 570 720 509 747 q 666 647 630 694 q 910 747 776 750 q 1062 702 1000 745 q 1152 585 1124 660 q 1168 416 1180 509 l 1152 305 l 726 305 q 753 191 721 234 q 848 146 785 149 q 1055 197 941 141 l 1099 68 q 980 7 1053 28 q 824 -13 908 -14 q 691 13 752 -13 q 594 87 631 39 q 335 -14 481 -16 q 171 35 239 -12 q 71 168 103 83 q 50 355 39 252 l 52 370 m 241 355 l 238 286 q 266 182 238 220 q 346 142 294 144 q 468 199 419 140 q 530 361 517 257 l 531 375 l 534 420 q 425 589 539 584 q 308 537 355 591 q 245 378 260 483 l 241 355 m 899 590 q 759 482 812 592 l 740 438 l 981 438 q 987 507 989 483 q 961 568 984 546 q 899 590 938 589 z "},"ſ":{"ha":356,"x_min":6,"x_max":551,"o":"m 6 0 l 141 798 q 235 989 157 920 q 437 1057 312 1059 q 551 1042 478 1057 l 519 891 q 456 899 482 899 q 376 873 408 900 q 335 798 345 846 l 197 0 l 6 0 z "},"Ə":{"ha":943,"x_min":45,"x_max":918,"o":"m 408 -14 q 201 47 286 -12 q 81 211 116 106 q 63 450 45 316 l 81 560 l 701 559 q 703 664 711 616 q 635 779 689 738 q 496 821 582 819 q 231 779 374 824 l 214 949 q 441 999 290 994 l 513 1000 q 730 945 638 999 q 867 793 823 890 q 901 542 918 684 l 888 456 q 724 115 859 245 q 408 -14 590 -16 m 419 163 q 682 396 595 158 l 256 395 q 250 288 242 328 q 304 197 260 229 q 419 163 348 165 z "},"ƒ":{"ha":493,"x_min":-125,"x_max":582,"o":"m 477 590 l 341 590 l 246 -33 q 161 -229 231 -159 q -24 -298 90 -298 q -125 -287 -71 -298 l -104 -130 q -43 -140 -72 -140 q 53 -33 37 -140 l 149 590 l 43 590 l 66 734 l 172 734 l 179 798 q 271 990 193 921 q 471 1057 349 1059 q 582 1043 509 1057 l 555 890 q 490 899 521 899 q 411 871 441 899 q 373 798 381 844 l 363 734 l 500 734 l 477 590 z "},"Ơ":{"ha":951,"x_min":57,"x_max":1075,"o":"m 405 -14 q 232 33 307 -12 q 113 161 157 77 q 62 353 69 245 q 74 532 57 429 q 133 723 91 635 q 239 874 176 811 q 381 970 302 938 q 551 1001 461 1003 q 709 966 637 1000 q 827 872 782 932 q 906 928 877 886 q 947 1062 935 969 l 1075 1063 q 1017 872 1065 941 q 882 776 969 802 q 895 646 892 710 q 876 436 898 551 q 802 228 854 320 q 677 78 749 136 q 405 -14 559 -16 m 692 585 q 542 833 702 828 q 344 724 417 838 q 262 405 271 610 q 294 220 255 285 q 414 153 332 155 q 588 233 518 148 q 681 475 658 318 q 692 585 691 558 z "},"ơ":{"ha":789,"x_min":27,"x_max":867,"o":"m 45 370 q 86 522 54 451 q 171 645 118 593 q 433 748 277 751 q 669 640 587 745 q 722 698 703 662 q 751 802 742 734 l 867 803 q 822 649 859 706 q 715 562 786 593 q 720 375 731 468 q 556 57 691 159 q 332 -14 458 -18 q 106 93 186 -10 q 43 355 27 195 l 45 370 m 235 355 q 233 286 232 322 q 261 182 233 220 q 342 143 290 144 q 460 194 412 141 q 524 347 508 248 l 528 375 q 532 444 532 407 q 502 549 530 510 q 421 589 474 588 q 300 534 349 591 q 237 369 252 476 l 235 355 z "},"Ư":{"ha":966,"x_min":56,"x_max":1180,"o":"m 921 987 l 892 830 q 1002 885 964 839 q 1054 1042 1041 931 l 1180 1043 q 1092 808 1166 885 q 881 726 1017 731 l 810 336 q 674 78 787 172 q 394 -14 561 -16 q 145 86 235 -11 q 75 336 56 182 l 185 987 l 384 987 l 273 335 q 273 264 269 297 q 404 149 286 153 q 541 195 488 146 q 610 332 594 243 l 722 987 l 921 987 z "},"ư":{"ha":829,"x_min":41,"x_max":947,"o":"m 947 799 q 885 618 940 680 q 720 545 829 557 l 621 0 l 442 0 l 456 76 q 254 -14 372 -16 q 95 61 149 -12 q 53 259 41 135 l 132 734 l 323 734 l 242 256 q 241 214 239 234 q 317 145 248 147 q 464 214 406 142 l 555 734 l 747 734 l 725 637 q 800 686 774 651 q 836 798 825 721 l 947 799 z "},"ȷ":{"ha":387,"x_min":-170,"x_max":347,"o":"m 347 734 l 218 -22 q 124 -227 200 -155 q -68 -298 48 -300 q -170 -286 -115 -297 l -145 -130 q -81 -140 -114 -139 q 26 -15 5 -140 l 155 734 l 347 734 z "},"ə":{"ha":720,"x_min":30,"x_max":688,"o":"m 391 747 q 553 700 484 746 q 654 572 621 654 q 679 391 688 490 l 677 371 q 615 172 666 261 q 484 34 564 83 q 306 -13 403 -16 q 101 82 172 -9 q 46 318 30 172 l 63 429 l 490 429 q 461 543 494 500 q 366 588 429 585 q 160 536 273 593 l 116 665 q 236 727 163 706 q 391 747 309 749 m 316 144 q 475 296 416 140 l 235 296 l 230 275 q 227 227 225 250 q 254 166 231 189 q 316 144 277 144 z "},"ˆ":{"ha":675,"x_min":159,"x_max":663,"o":"m 663 854 l 663 840 l 516 844 l 433 941 l 314 844 l 159 842 l 159 857 l 376 1042 l 486 1042 l 663 854 z "},"ˇ":{"ha":641,"x_min":163,"x_max":683,"o":"m 399 946 l 513 1042 l 682 1046 l 683 1031 l 460 844 l 339 844 l 163 1034 l 163 1046 l 321 1042 l 399 946 z "},"ˉ":{"ha":682,"x_min":182,"x_max":656,"o":"m 637 873 l 182 873 l 201 986 l 656 986 l 637 873 z "},"˘":{"ha":605,"x_min":165,"x_max":618,"o":"m 618 1036 q 547 886 614 942 q 379 833 479 831 q 226 889 286 835 q 165 1036 167 943 l 300 1035 q 378 945 297 947 q 448 969 422 944 q 482 1035 475 994 l 618 1036 z "},"˙":{"ha":364,"x_min":168,"x_max":366,"o":"m 264 1025 q 333 1002 304 1027 q 364 935 363 978 q 339 867 366 895 q 269 839 312 839 q 200 862 231 838 q 169 928 170 887 q 195 998 168 970 q 264 1025 223 1025 z "},"˚":{"ha":456,"x_min":163,"x_max":458,"o":"m 163 894 q 208 997 163 955 q 315 1038 253 1038 q 415 999 374 1038 q 457 903 457 959 q 414 803 458 845 q 306 762 370 762 q 206 800 248 762 q 163 894 165 838 m 240 894 q 250 846 235 867 q 294 826 265 826 q 351 848 326 826 q 381 903 375 870 q 370 952 385 932 q 327 972 354 972 q 270 949 295 972 q 240 894 244 926 z "},"˛":{"ha":412,"x_min":-63,"x_max":203,"o":"m 203 -3 l 172 -21 q 84 -124 91 -70 q 114 -163 80 -160 q 168 -149 134 -163 l 182 -258 q 78 -286 138 -286 q -24 -248 14 -286 q -63 -149 -63 -210 q 99 41 -63 -33 l 203 -3 z "},"˜":{"ha":654,"x_min":149,"x_max":664,"o":"m 664 1035 q 616 903 659 955 q 507 851 573 851 q 471 857 488 851 q 419 882 454 863 q 367 907 385 901 q 330 913 350 913 q 262 846 279 911 l 149 853 q 199 985 154 932 q 309 1036 244 1038 q 343 1031 327 1036 q 396 1006 359 1026 q 451 980 434 985 q 486 975 467 975 q 555 1042 538 977 l 664 1035 z "},"˝":{"ha":559,"x_min":105,"x_max":706,"o":"m 519 1041 l 706 1041 l 496 837 l 336 837 l 519 1041 m 263 1041 l 446 1040 l 260 837 l 105 837 l 263 1041 z "},"˳":{"ha":430,"x_min":-5,"x_max":243,"o":"m -3 -160 q 33 -74 -5 -109 q 121 -38 70 -38 q 207 -71 173 -38 q 242 -152 241 -104 q 207 -237 243 -203 q 120 -271 170 -271 q 33 -239 68 -271 q -3 -160 -2 -206 m 71 -160 q 78 -192 68 -178 q 107 -206 87 -206 q 147 -190 130 -206 q 168 -152 164 -174 q 162 -119 171 -134 q 134 -104 154 -104 q 94 -120 113 -104 q 71 -160 76 -136 z "},"̀":{"ha":0,"x_min":-475,"x_max":-182,"o":"m -182 832 l -327 831 l -475 1040 l -277 1042 l -182 832 z "},"́":{"ha":0,"x_min":-382,"x_max":7,"o":"m -216 1042 l 7 1042 l -212 831 l -382 831 l -216 1042 z "},"̃":{"ha":0,"x_min":-538,"x_max":-23,"o":"m -23 1035 q -71 903 -28 955 q -180 851 -114 851 q -216 857 -199 851 q -268 882 -233 863 q -320 907 -302 901 q -357 913 -337 913 q -425 846 -408 911 l -538 853 q -488 985 -533 932 q -378 1036 -443 1038 q -344 1031 -360 1036 q -291 1006 -328 1026 q -236 980 -253 985 q -201 975 -220 975 q -132 1042 -149 977 l -23 1035 z "},"̉":{"ha":0,"x_min":-394,"x_max":-128,"o":"m -394 859 l -392 951 l -360 954 q -289 998 -296 961 q -341 1039 -283 1035 l -372 1040 l -361 1133 q -128 1004 -128 1125 q -237 903 -128 925 l -243 858 l -394 859 z "},"̏":{"ha":0,"x_min":-585,"x_max":-28,"o":"m -250 849 l -424 849 l -585 1029 l -380 1029 l -250 849 m -28 849 l -196 849 l -326 1029 l -127 1029 l -28 849 z "},"̣":{"ha":0,"x_min":-600,"x_max":-384,"o":"m -598 -162 q -568 -92 -600 -119 q -494 -64 -537 -64 q -419 -88 -452 -63 q -385 -155 -387 -113 q -415 -227 -384 -199 q -490 -254 -446 -254 q -565 -229 -534 -255 q -598 -162 -597 -203 z "},"΄":{"ha":460,"x_min":217,"x_max":488,"o":"m 307 1086 l 488 1086 l 339 852 l 217 852 l 307 1086 z "},"΅":{"ha":745,"x_min":156,"x_max":747,"o":"m 467 1187 l 646 1187 l 505 962 l 400 962 l 467 1187 m 157 924 q 182 985 156 959 q 246 1013 208 1011 q 311 990 283 1014 q 340 928 339 966 q 316 866 342 892 q 252 840 290 841 q 188 862 216 838 q 157 924 159 886 m 564 923 q 588 986 562 960 q 652 1013 614 1011 q 716 990 688 1014 q 746 928 745 966 q 722 866 747 891 q 657 839 696 840 q 591 862 619 838 q 564 923 564 887 z "},"·":{"ha":412,"x_min":103,"x_max":321,"o":"m 104 469 q 134 546 103 515 q 210 578 164 577 q 287 551 254 580 q 320 476 319 522 q 291 400 321 432 q 213 368 260 368 q 138 394 170 366 q 104 469 106 422 z "},"Γ":{"ha":758,"x_min":16,"x_max":815,"o":"m 787 823 l 357 823 l 214 0 l 16 0 l 187 987 l 815 987 l 787 823 z "},"Δ":{"ha":991,"x_min":-62,"x_max":903,"o":"m 491 987 l 697 987 l 903 0 l -62 0 l 491 987 m 241 165 l 672 163 l 561 750 l 241 165 z "},"Θ":{"ha":934,"x_min":58,"x_max":899,"o":"m 595 412 l 342 412 l 370 569 l 623 569 l 595 412 m 406 -14 q 233 33 308 -12 q 114 161 158 77 q 64 353 71 245 q 75 532 58 429 q 135 723 92 635 q 240 874 177 811 q 383 970 303 938 q 553 1001 463 1003 q 725 955 651 999 q 843 825 800 911 q 892 633 886 740 q 867 389 899 514 q 766 170 835 263 q 606 31 698 77 q 406 -14 513 -16 m 688 520 l 693 585 q 662 766 700 702 q 543 833 623 831 q 346 724 418 838 q 263 405 273 610 q 295 220 256 285 q 415 153 334 155 q 591 235 521 148 q 682 480 661 321 l 688 520 z "},"Λ":{"ha":879,"x_min":-64,"x_max":787,"o":"m 491 705 l 158 0 l -64 0 l 429 987 l 635 987 l 787 0 l 578 0 l 491 705 z "},"Ξ":{"ha":770,"x_min":-9,"x_max":784,"o":"m 20 163 l 669 163 l 641 0 l -9 0 l 20 163 m 168 578 l 665 578 l 637 420 l 140 420 l 168 578 m 178 987 l 784 987 l 755 823 l 150 823 l 178 987 z "},"Π":{"ha":960,"x_min":16,"x_max":967,"o":"m 796 0 l 597 0 l 739 823 l 357 823 l 214 0 l 16 0 l 187 987 l 967 987 l 796 0 z "},"Σ":{"ha":770,"x_min":-24,"x_max":813,"o":"m 562 493 l 276 165 l 686 163 l 657 0 l -24 0 l -5 112 l 353 509 l 131 895 l 148 987 l 813 987 l 784 823 l 384 823 l 562 505 l 562 493 z "},"Φ":{"ha":1044,"x_min":55,"x_max":1021,"o":"m 699 871 q 875 815 800 865 q 986 681 950 765 q 1013 493 1021 596 q 944 298 1002 383 q 790 164 886 213 q 579 112 694 115 l 554 0 l 355 0 l 380 113 q 204 166 279 118 q 92 298 128 215 q 64 481 55 381 q 133 681 75 593 q 288 819 191 769 q 501 872 384 869 l 526 987 l 725 987 l 699 871 m 260 481 q 283 349 249 399 q 400 288 317 298 l 480 698 q 331 632 389 690 q 260 481 272 574 m 819 569 q 680 696 802 679 l 600 287 q 728 333 674 294 q 805 438 781 372 q 819 569 828 504 z "},"Ψ":{"ha":985,"x_min":73,"x_max":1043,"o":"m 589 427 q 789 670 754 465 l 843 987 l 1043 987 l 989 673 q 854 390 964 498 q 571 265 745 281 l 519 0 l 321 0 l 372 266 q 153 379 233 281 q 78 630 73 478 l 81 673 l 134 987 l 332 987 l 279 673 q 275 596 274 634 q 306 489 277 532 q 390 430 335 446 l 492 987 l 691 987 l 589 427 z "},"Ω":{"ha":912,"x_min":7,"x_max":870,"o":"m 438 168 q 568 300 519 202 q 636 597 616 397 q 640 690 642 651 q 524 835 629 830 q 391 775 445 839 q 318 586 337 711 q 296 417 300 461 q 294 332 293 374 q 371 168 297 204 l 345 0 l 7 0 l 37 165 l 179 166 q 87 429 98 301 q 101 612 80 498 q 184 816 122 726 q 337 955 247 906 q 535 1000 428 1003 q 720 943 642 998 q 834 792 798 888 q 857 583 870 696 l 850 536 q 629 162 820 302 l 774 165 l 745 0 l 412 0 l 438 168 z "},"α":{"ha":766,"x_min":34,"x_max":736,"o":"m 736 734 l 653 248 q 647 185 646 206 q 673 149 648 151 q 689 151 676 149 l 691 1 q 614 -13 656 -14 q 520 16 559 -12 q 467 99 481 44 q 372 11 421 38 q 269 -14 323 -16 q 148 21 200 -14 q 67 119 96 55 q 36 262 39 184 q 38 345 34 304 l 42 375 q 104 576 58 489 q 218 707 151 664 q 371 747 286 749 q 532 644 480 745 l 567 734 l 736 734 m 231 342 l 227 300 l 227 283 q 323 143 226 146 q 452 208 395 141 l 508 519 q 410 589 481 587 q 268 489 317 592 q 231 342 243 439 z "},"β":{"ha":817,"x_min":-26,"x_max":785,"o":"m 500 1002 q 708 928 632 999 q 777 739 785 857 q 614 518 768 600 q 710 429 677 489 q 739 286 744 368 q 639 66 730 149 q 410 -14 549 -17 q 227 39 311 -13 l 166 -275 l -26 -275 l 141 701 q 260 919 160 835 q 500 1002 361 1003 m 432 581 q 536 621 499 582 q 582 725 574 660 q 562 810 588 778 q 490 844 536 843 q 388 806 431 846 q 334 701 345 766 l 243 182 q 373 143 292 143 q 510 201 457 143 q 551 345 562 259 q 519 412 546 388 q 448 438 492 436 l 371 439 l 391 582 l 432 581 z "},"γ":{"ha":694,"x_min":71,"x_max":739,"o":"m 313 233 l 532 734 l 739 734 l 369 -3 l 320 -283 l 128 -283 l 182 28 l 71 734 l 264 734 l 313 233 z "},"δ":{"ha":767,"x_min":28,"x_max":747,"o":"m 210 842 q 295 1007 214 946 q 504 1067 377 1069 q 680 1036 575 1066 l 665 884 q 517 917 582 918 q 431 898 465 917 q 391 847 398 879 q 442 772 379 804 l 469 759 q 722 370 747 636 l 720 357 q 654 164 707 250 q 517 30 600 77 q 334 -14 433 -17 q 108 90 189 -10 q 41 344 28 189 q 124 555 53 472 q 304 659 196 639 l 304 670 q 234 743 259 699 q 210 842 208 787 m 233 290 q 263 183 235 222 q 344 142 292 144 q 465 200 415 140 q 530 366 515 259 q 532 445 535 412 l 529 463 q 425 592 510 562 q 301 532 351 590 q 237 372 252 474 q 233 290 233 325 z "},"ε":{"ha":756,"x_min":26,"x_max":717,"o":"m 28 202 q 68 306 31 262 q 192 382 106 350 q 122 445 146 407 q 97 527 97 483 q 140 644 98 594 q 261 722 181 694 q 437 747 342 749 q 581 716 517 745 q 680 638 644 688 q 717 521 715 589 l 528 522 q 500 578 528 559 q 422 598 472 598 q 330 575 369 598 q 283 513 290 551 q 378 441 271 445 l 513 440 l 490 309 l 378 310 q 270 286 310 310 q 222 217 229 262 q 247 156 215 180 q 329 132 279 132 q 425 153 385 130 q 475 217 465 176 l 668 218 q 619 91 664 144 q 498 12 574 39 q 335 -14 423 -16 q 176 14 248 -12 q 65 88 104 41 q 28 202 26 135 z "},"ζ":{"ha":682,"x_min":51,"x_max":750,"o":"m 750 987 l 729 866 l 393 525 q 262 283 280 405 q 270 206 255 236 q 331 159 286 176 l 439 119 q 550 -28 555 73 q 500 -149 547 -87 q 371 -264 453 -211 l 275 -184 l 299 -158 q 353 -68 345 -109 q 326 -17 360 -32 l 302 -8 l 243 10 q 67 254 51 77 q 129 447 75 351 q 304 667 182 544 l 472 829 l 134 830 l 162 987 l 750 987 z "},"η":{"ha":767,"x_min":0,"x_max":710,"o":"m 304 734 l 288 642 q 503 747 380 750 q 660 672 609 745 q 697 469 710 598 l 570 -281 l 378 -281 l 507 470 q 507 515 509 494 q 427 589 500 585 q 285 526 351 591 l 191 0 l 0 0 l 127 734 l 304 734 z "},"θ":{"ha":802,"x_min":71,"x_max":754,"o":"m 340 -14 q 144 75 214 -11 q 71 312 73 160 q 77 412 71 362 l 106 607 q 237 901 140 798 q 485 1001 335 1004 q 681 913 611 998 q 753 677 751 827 q 748 576 754 626 l 724 418 q 649 175 703 273 q 518 31 596 77 q 340 -14 440 -16 m 539 422 l 274 422 l 267 385 q 257 289 257 331 q 351 144 254 149 q 522 339 477 136 l 531 385 l 539 422 m 286 572 l 554 572 l 559 606 q 568 701 568 669 q 474 844 568 839 q 321 720 371 848 q 286 572 304 676 z "},"ι":{"ha":460,"x_min":56,"x_max":366,"o":"m 343 734 l 258 227 q 263 174 254 193 q 309 155 273 156 q 366 159 327 154 l 353 9 q 243 -6 306 -7 q 103 53 151 -5 q 64 209 56 110 l 152 734 l 343 734 z "},"λ":{"ha":745,"x_min":-71,"x_max":681,"o":"m 285 1047 q 389 1018 345 1046 q 451 930 433 989 l 606 219 q 627 166 616 181 q 658 149 639 152 l 669 149 l 681 149 l 669 -8 q 603 -11 636 -12 q 425 140 463 -7 l 367 448 l 144 0 l -71 0 l 312 729 l 286 829 q 255 877 276 864 q 196 888 235 890 l 175 886 l 184 1034 q 285 1047 230 1048 z "},"ξ":{"ha":720,"x_min":45,"x_max":731,"o":"m 686 814 q 543 840 600 840 q 427 814 473 840 q 373 739 382 788 q 396 671 365 695 q 494 644 427 646 l 606 644 l 577 480 l 494 481 q 321 435 387 481 q 243 305 255 389 q 361 155 227 194 l 439 132 l 477 119 q 595 -31 600 74 q 545 -152 591 -91 q 416 -267 498 -214 l 318 -186 q 378 -118 362 -142 q 399 -69 394 -93 q 366 -18 404 -36 l 347 -10 l 311 1 q 145 78 197 39 q 69 169 94 116 q 50 298 45 222 q 117 460 57 393 q 292 565 176 526 q 212 633 241 591 q 184 735 182 675 q 285 930 189 857 q 527 1002 380 1003 q 731 966 625 1002 l 686 814 z "},"π":{"ha":873,"x_min":64,"x_max":883,"o":"m 857 584 l 744 584 l 683 228 q 688 175 679 193 q 734 155 698 157 q 793 159 755 155 l 779 9 q 670 -6 732 -7 q 530 52 577 -5 q 492 209 483 109 l 553 584 l 372 584 l 271 0 l 79 0 l 181 584 l 64 584 l 90 734 l 883 734 l 857 584 z "},"ρ":{"ha":767,"x_min":-45,"x_max":712,"o":"m 69 391 q 191 648 93 550 q 442 747 294 751 q 579 710 520 745 q 671 608 637 675 q 709 456 705 540 q 707 363 712 410 l 705 349 q 646 153 692 238 q 533 26 601 68 q 381 -14 465 -16 q 214 70 273 -12 l 146 -282 l -45 -282 l 69 391 m 230 204 q 339 142 259 145 q 453 192 407 140 q 513 345 498 244 l 515 363 q 519 456 522 420 q 421 590 512 585 q 319 540 361 593 q 259 382 277 488 l 230 204 z "},"ς":{"ha":700,"x_min":28,"x_max":684,"o":"m 419 747 q 614 666 543 745 q 680 460 684 587 l 501 460 q 409 589 505 585 q 294 536 341 593 q 233 374 247 480 q 230 285 226 314 q 332 162 241 200 l 418 130 q 528 -17 532 85 q 480 -138 526 -77 q 353 -254 435 -199 l 254 -172 l 278 -148 q 333 -56 325 -99 q 326 -18 338 -31 q 288 3 313 -6 q 90 134 152 48 q 39 355 28 220 l 40 363 q 163 645 58 538 q 419 747 268 751 z "},"σ":{"ha":778,"x_min":28,"x_max":818,"o":"m 789 575 l 623 574 q 682 459 665 513 q 696 348 700 406 q 578 83 682 182 q 326 -14 474 -16 q 161 35 230 -12 q 60 168 92 83 q 39 357 28 253 l 40 372 q 165 634 60 534 q 426 734 270 734 l 818 734 l 789 575 m 230 355 q 227 286 227 323 q 255 182 227 221 q 336 142 283 144 q 452 200 406 140 q 509 361 497 259 l 511 375 l 513 439 q 487 538 513 501 q 412 576 461 574 q 295 526 342 578 q 233 378 248 474 l 230 355 z "},"τ":{"ha":708,"x_min":58,"x_max":729,"o":"m 702 576 l 468 576 l 407 221 l 406 195 q 446 149 406 151 q 512 159 471 146 l 519 7 q 401 -13 463 -14 q 256 54 304 -10 q 218 224 208 118 l 276 576 l 58 576 l 85 734 l 729 734 l 702 576 z "},"υ":{"ha":742,"x_min":48,"x_max":703,"o":"m 330 734 l 256 279 l 253 239 l 253 222 q 311 143 256 146 q 458 253 401 139 q 511 563 515 366 q 488 736 509 651 l 663 734 q 696 475 703 621 q 636 201 688 310 q 499 37 585 92 q 305 -15 414 -18 q 113 69 178 -12 q 62 283 48 150 l 138 734 l 330 734 z "},"φ":{"ha":1011,"x_min":26,"x_max":975,"o":"m 344 -6 q 106 129 185 19 q 45 399 26 239 q 106 592 57 503 q 239 744 155 682 l 363 637 q 262 484 296 566 q 232 317 228 399 q 361 153 239 191 l 430 545 q 503 690 441 633 q 652 745 565 747 q 826 695 750 743 q 939 563 902 646 q 966 383 975 480 q 834 114 948 218 q 535 -9 720 10 l 475 -324 l 283 -324 l 344 -6 m 551 150 q 715 245 656 175 q 777 423 774 316 q 748 549 777 505 q 670 587 720 593 q 627 551 636 583 l 551 150 z "},"ψ":{"ha":1009,"x_min":35,"x_max":987,"o":"m 657 734 l 551 151 q 697 233 641 175 q 774 380 753 292 q 788 573 794 468 q 760 736 783 656 l 930 734 q 972 574 964 658 q 939 279 987 404 q 786 81 891 155 q 534 -8 681 6 l 473 -324 l 282 -324 l 342 -6 q 112 125 189 17 q 55 399 35 233 l 111 734 l 303 734 l 247 397 q 243 319 241 357 q 359 153 248 192 l 466 734 l 657 734 z "},"ω":{"ha":1113,"x_min":45,"x_max":1065,"o":"m 389 733 l 304 566 q 236 294 241 429 q 304 142 229 147 q 439 308 407 135 l 482 572 l 684 572 l 646 333 q 642 259 642 298 q 716 143 642 145 q 848 317 811 138 q 865 564 874 441 q 827 736 858 652 l 1001 734 q 1050 565 1040 654 q 1029 280 1065 425 q 912 59 994 136 q 709 -14 830 -17 q 589 25 642 -13 q 517 130 536 64 q 412 19 469 55 q 286 -15 355 -16 q 107 67 169 -12 q 45 289 45 147 q 83 523 45 414 q 199 733 121 631 l 389 733 z "},"ϑ":{"ha":808,"x_min":54,"x_max":811,"o":"m 802 391 l 721 372 l 711 314 q 585 70 686 157 q 341 -14 484 -18 q 186 31 254 -12 q 87 148 119 74 q 64 311 54 222 l 90 477 l 273 477 l 246 310 q 268 196 237 241 q 361 149 300 151 q 456 189 417 147 q 510 310 494 231 l 522 373 q 337 497 404 406 q 279 712 271 588 q 326 869 287 805 q 427 969 364 934 q 566 1001 489 1004 q 731 919 673 998 q 774 716 788 839 l 744 543 l 811 557 l 802 391 m 460 722 q 459 669 456 694 q 542 551 468 588 l 576 737 l 579 765 q 541 827 582 826 q 490 805 511 829 q 461 739 469 782 l 460 722 z "},"ϒ":{"ha":803,"x_min":78,"x_max":907,"o":"m 414 522 l 585 841 q 682 970 629 930 q 805 1008 736 1009 q 907 991 850 1008 l 871 832 q 835 837 849 837 q 758 787 788 836 l 482 319 l 427 0 l 227 0 l 287 343 l 180 787 q 127 833 165 830 q 87 829 116 833 l 78 989 q 168 1004 123 1005 q 349 844 307 1001 l 414 522 z "},"ϖ":{"ha":1121,"x_min":44,"x_max":1166,"o":"m 1140 594 l 1061 595 l 1061 491 q 1039 302 1060 399 q 975 130 1019 204 q 868 19 932 56 q 724 -15 805 -17 q 594 27 649 -14 q 522 134 539 68 q 279 -14 425 -19 q 105 68 166 -12 q 46 291 45 148 q 125 597 46 460 l 44 595 l 70 734 l 1166 734 l 1140 594 m 874 491 l 872 594 l 321 595 q 236 245 227 414 q 298 143 241 146 q 393 185 354 138 q 446 324 431 233 l 469 470 l 670 470 l 649 333 q 646 256 644 290 q 728 143 649 145 q 857 326 823 140 q 874 491 873 420 z "},"Ђ":{"ha":1014,"x_min":90,"x_max":960,"o":"m 839 823 l 528 823 l 481 585 q 637 606 566 607 q 811 568 736 605 q 923 464 886 531 q 953 306 960 397 q 830 75 941 159 q 538 -13 720 -9 l 553 142 q 689 184 636 144 q 751 294 742 224 q 726 399 760 360 q 621 440 691 437 q 465 427 559 442 l 385 0 l 186 0 l 329 823 l 90 823 l 119 987 l 868 987 l 839 823 z "},"Є":{"ha":895,"x_min":60,"x_max":888,"o":"m 820 329 q 750 149 808 228 q 598 27 692 69 q 397 -14 505 -16 q 225 32 298 -12 q 111 156 152 75 q 64 344 70 238 q 80 544 60 421 q 156 765 101 666 q 292 922 212 864 q 545 1001 403 1004 q 788 906 698 998 q 888 650 879 814 l 690 651 q 652 790 690 745 q 536 837 614 835 q 384 779 448 840 q 281 576 321 718 l 582 576 l 553 412 l 264 412 q 259 323 258 369 q 297 197 260 243 q 405 149 334 151 q 549 192 493 146 q 623 328 604 239 l 820 329 z "},"Љ":{"ha":1432,"x_min":-45,"x_max":1383,"o":"m 907 652 l 1052 651 q 1294 558 1204 646 q 1372 332 1383 469 q 1247 92 1361 184 q 960 0 1134 0 l 595 0 l 738 823 l 485 823 l 391 387 q 254 91 345 183 q 21 0 163 -1 l -45 0 l -21 163 l 2 165 q 138 243 85 172 q 218 469 191 315 l 233 555 l 322 987 l 966 987 l 907 652 m 880 488 l 823 163 l 968 162 q 1105 210 1048 163 q 1173 334 1161 256 q 1148 441 1183 397 q 1048 487 1114 484 l 880 488 z "},"Њ":{"ha":1433,"x_min":16,"x_max":1383,"o":"m 313 571 l 696 571 l 768 987 l 966 987 l 907 646 l 1038 645 q 1290 556 1197 644 q 1371 329 1383 469 q 1248 91 1360 182 q 962 0 1135 0 l 597 0 l 667 408 l 286 408 l 214 0 l 16 0 l 187 987 l 386 987 l 313 571 m 879 481 l 824 165 l 970 163 q 1107 211 1051 165 q 1174 331 1162 258 q 1147 438 1183 397 q 1048 481 1112 478 l 879 481 z "},"Ћ":{"ha":1046,"x_min":93,"x_max":959,"o":"m 826 823 l 519 823 l 477 618 q 616 631 553 632 q 870 542 781 629 q 943 304 959 455 l 892 0 l 694 0 l 745 305 q 723 426 755 387 q 608 467 691 465 q 460 457 562 469 l 376 0 l 178 0 l 320 823 l 93 823 l 122 987 l 855 987 l 826 823 z "},"Џ":{"ha":950,"x_min":6,"x_max":958,"o":"m 177 987 l 376 987 l 233 163 l 615 163 l 758 987 l 958 987 l 786 0 l 505 0 l 463 -244 l 262 -244 l 304 0 l 6 0 l 177 987 z "},"Б":{"ha":851,"x_min":12,"x_max":812,"o":"m 783 823 l 356 823 l 323 631 l 452 631 q 707 547 614 630 q 789 325 799 463 q 665 89 778 178 q 378 0 553 0 l 12 0 l 184 987 l 812 987 l 783 823 m 294 467 l 241 163 l 387 163 q 522 207 465 163 q 590 327 578 252 q 565 426 599 389 q 463 467 531 464 l 294 467 z "},"Д":{"ha":1014,"x_min":-85,"x_max":979,"o":"m 863 -243 l 678 -243 l 720 0 l 144 0 l 102 -242 l -85 -242 l -26 163 l 37 162 q 227 471 169 248 l 241 528 l 349 987 l 979 987 l 836 163 l 949 163 l 863 -243 m 271 160 l 637 163 l 752 823 l 511 823 l 432 485 q 271 160 377 273 z "},"Ж":{"ha":1351,"x_min":-66,"x_max":1436,"o":"m 898 402 l 780 402 l 710 0 l 511 0 l 581 402 l 471 402 l 193 0 l -66 0 l 333 541 l 130 987 l 367 987 l 511 589 l 613 589 l 682 987 l 881 987 l 812 589 l 901 589 l 1178 987 l 1436 987 l 1069 519 l 1270 0 l 1031 0 l 898 402 z "},"З":{"ha":838,"x_min":17,"x_max":817,"o":"m 433 582 q 555 621 509 583 q 610 722 602 658 q 581 805 616 774 q 481 838 546 836 q 373 808 420 839 q 316 720 326 777 l 117 720 q 172 868 121 804 q 308 967 223 932 q 490 1001 393 1002 q 668 964 591 1000 q 781 867 745 928 q 811 725 817 806 q 625 503 802 584 q 722 413 691 471 q 748 282 753 355 q 690 125 742 192 q 546 22 639 59 q 344 -13 453 -14 q 173 24 249 -12 q 57 124 96 60 q 18 275 17 188 l 216 275 q 251 185 214 218 q 352 151 288 152 q 486 186 430 149 q 551 285 541 223 q 528 388 562 355 q 427 423 494 421 l 297 424 l 325 583 l 433 582 z "},"И":{"ha":950,"x_min":7,"x_max":960,"o":"m 753 987 l 960 987 l 788 0 l 589 0 l 701 643 l 213 0 l 7 0 l 179 987 l 378 987 l 266 344 l 753 987 z "},"Л":{"ha":958,"x_min":-45,"x_max":966,"o":"m 966 987 l 795 0 l 595 0 l 738 823 l 485 823 l 391 388 q 257 94 344 184 q 38 0 171 3 l -45 0 l -21 163 l 9 166 q 142 250 90 176 q 221 484 195 324 l 233 555 l 322 987 l 966 987 z "},"У":{"ha":857,"x_min":106,"x_max":939,"o":"m 460 522 l 715 987 l 939 987 l 476 193 q 346 32 415 81 q 183 -16 276 -16 l 106 -13 l 121 152 l 170 147 q 250 168 217 147 q 311 241 282 189 l 337 284 l 126 987 l 329 987 l 460 522 z "},"Ф":{"ha":1107,"x_min":54,"x_max":1084,"o":"m 731 897 l 738 898 q 923 846 843 898 q 1044 700 1003 795 q 1073 494 1084 604 q 999 283 1061 377 q 836 136 937 189 q 618 86 734 83 l 602 86 l 574 -41 l 382 -41 l 410 87 q 215 138 296 87 q 94 281 134 189 q 65 481 54 374 q 137 693 75 597 q 299 844 199 789 q 521 899 399 899 l 540 899 l 568 1028 l 753 1029 l 731 897 m 253 481 q 283 318 241 377 q 413 254 326 259 l 428 254 l 521 732 q 339 664 410 732 q 253 481 267 595 m 713 731 l 621 252 q 772 296 709 252 q 866 418 836 339 q 886 581 897 497 q 837 688 878 650 q 730 730 796 727 l 713 731 z "},"Ц":{"ha":1029,"x_min":6,"x_max":958,"o":"m 177 987 l 376 987 l 233 163 l 615 163 l 758 987 l 958 987 l 814 163 l 946 163 l 863 -238 l 677 -238 l 719 0 l 6 0 l 177 987 z "},"Ч":{"ha":943,"x_min":130,"x_max":960,"o":"m 960 987 l 788 0 l 589 0 l 661 376 q 475 356 577 355 q 219 446 308 357 q 148 683 130 534 l 199 987 l 397 987 l 347 682 q 369 561 336 600 q 484 520 401 522 q 677 537 555 518 l 760 987 l 960 987 z "},"Ш":{"ha":1298,"x_min":13,"x_max":1308,"o":"m 384 987 l 241 163 l 505 163 l 648 987 l 848 987 l 705 163 l 966 163 l 1109 987 l 1308 987 l 1137 0 l 13 0 l 184 987 l 384 987 z "},"Щ":{"ha":1382,"x_min":13,"x_max":1308,"o":"m 384 987 l 241 163 l 505 163 l 648 987 l 848 987 l 705 163 l 966 163 l 1109 987 l 1308 987 l 1164 157 l 1291 157 l 1209 -237 l 1031 -237 l 1072 0 l 13 0 l 184 987 l 384 987 z "},"Ъ":{"ha":1045,"x_min":89,"x_max":993,"o":"m 117 987 l 578 987 l 517 631 l 646 631 q 900 547 807 630 q 983 325 993 463 q 859 89 972 178 q 573 0 747 0 l 207 0 l 351 829 l 89 829 l 117 987 m 488 467 l 435 163 l 581 163 q 715 206 659 163 q 784 327 772 250 q 759 426 793 389 q 656 467 725 464 l 488 467 z "},"Ы":{"ha":1181,"x_min":16,"x_max":1188,"o":"m 326 631 l 456 631 q 710 547 618 630 q 792 325 802 463 q 669 89 781 178 q 382 0 556 0 l 16 0 l 188 987 l 388 987 l 326 631 m 298 467 l 245 163 l 390 163 q 525 207 469 163 q 593 327 582 252 q 568 426 602 389 q 466 467 534 464 l 298 467 m 1017 0 l 819 0 l 989 987 l 1188 987 l 1017 0 z "},"Ь":{"ha":850,"x_min":13,"x_max":799,"o":"m 323 631 l 452 631 q 707 547 614 630 q 789 325 799 463 q 665 89 778 178 q 378 0 553 0 l 13 0 l 184 987 l 385 987 l 323 631 m 294 467 l 241 163 l 387 163 q 522 207 465 163 q 590 327 578 252 q 565 426 599 389 q 463 467 531 464 l 294 467 z "},"Э":{"ha":883,"x_min":24,"x_max":851,"o":"m 221 329 q 260 195 222 238 q 377 149 298 151 q 578 273 507 144 q 631 412 607 324 l 321 411 l 351 576 l 648 576 l 652 635 q 616 783 654 731 q 505 837 578 834 q 361 793 417 841 q 287 652 304 745 l 89 651 q 162 836 104 755 q 313 960 221 917 q 513 1001 405 1003 q 685 955 612 999 q 799 828 758 911 q 847 640 841 745 q 827 422 851 547 q 664 99 786 215 q 369 -14 541 -17 q 121 81 212 -11 q 24 330 29 173 l 221 329 z "},"Ю":{"ha":1278,"x_min":22,"x_max":1240,"o":"m 747 -14 q 496 100 588 -10 q 404 393 404 211 l 289 393 l 221 0 l 22 0 l 193 987 l 392 987 l 316 551 l 419 551 q 587 881 459 757 q 893 1001 715 1004 q 1068 954 993 999 q 1185 824 1143 908 q 1234 633 1227 740 q 1208 387 1240 513 q 1107 169 1175 261 q 946 31 1038 77 q 747 -14 854 -16 m 1029 521 l 1034 585 q 1002 768 1041 706 q 884 833 963 831 q 687 724 760 838 q 604 405 614 610 q 636 220 597 285 q 756 153 675 155 q 932 236 863 148 q 1024 484 1002 323 l 1029 521 z "},"Я":{"ha":810,"x_min":-95,"x_max":828,"o":"m 457 0 l 519 356 l 366 356 l 130 0 l -95 0 l 191 425 q 86 677 75 514 q 204 905 97 822 q 481 988 311 988 l 828 987 l 656 0 l 457 0 m 282 663 q 398 511 262 516 l 545 510 l 600 823 l 475 824 q 345 783 397 823 q 282 663 293 742 z "},"б":{"ha":774,"x_min":41,"x_max":764,"o":"m 461 692 q 608 648 547 691 q 700 526 670 604 q 721 351 729 448 q 600 82 705 181 q 342 -15 495 -18 q 175 37 245 -12 q 73 174 105 86 q 53 365 41 261 l 55 379 l 54 382 l 58 403 q 191 790 90 648 q 460 968 291 932 l 510 978 q 609 1057 597 997 l 764 1057 q 699 901 760 959 q 491 815 638 843 q 344 749 404 799 q 239 601 283 699 q 461 692 338 695 m 415 536 q 278 461 327 537 q 238 269 229 385 q 270 178 241 211 q 352 143 299 145 q 469 192 422 141 q 528 337 516 243 q 530 416 532 382 q 415 536 519 532 z "},"в":{"ha":769,"x_min":14,"x_max":709,"o":"m 14 0 l 142 734 l 429 733 q 602 699 534 730 q 705 534 709 650 q 551 372 701 429 q 650 314 614 355 q 684 215 686 273 q 599 55 681 110 q 371 0 517 0 l 14 0 m 259 304 l 233 157 l 374 156 q 499 233 484 159 q 423 304 513 300 l 259 304 m 281 436 l 388 435 q 509 507 496 439 q 498 556 516 538 q 425 576 479 574 l 306 576 l 281 436 z "},"г":{"ha":571,"x_min":2,"x_max":616,"o":"m 588 575 l 293 575 l 193 0 l 2 0 l 130 734 l 616 734 l 588 575 z "},"д":{"ha":857,"x_min":-87,"x_max":785,"o":"m 32 157 q 147 300 104 220 q 210 486 189 379 l 257 734 l 783 734 l 683 158 l 785 158 l 720 -220 l 528 -220 l 566 0 l 146 0 l 108 -220 l -87 -220 l -22 157 l 32 157 m 261 155 l 492 158 l 564 572 l 417 572 l 394 444 q 261 155 355 258 z "},"ж":{"ha":1158,"x_min":-52,"x_max":1191,"o":"m 740 272 l 649 272 l 602 0 l 410 0 l 458 272 l 380 272 l 191 0 l -52 0 l 248 395 l 88 733 l 315 734 l 416 460 l 490 460 l 538 734 l 729 734 l 682 460 l 745 460 l 941 734 l 1191 734 l 902 378 l 1060 0 l 834 0 l 740 272 z "},"з":{"ha":699,"x_min":9,"x_max":663,"o":"m 346 438 q 464 523 449 441 q 451 577 470 555 q 391 600 433 599 q 317 583 349 602 q 274 523 284 564 l 81 522 q 172 687 87 625 q 386 747 258 749 q 588 690 513 745 q 659 538 663 634 q 625 449 656 488 q 522 373 594 409 q 594 308 571 351 q 615 213 617 266 q 573 95 613 146 q 454 14 532 43 q 284 -14 376 -16 q 88 50 165 -12 q 9 218 11 111 l 198 218 q 225 156 198 178 q 300 134 252 134 q 385 159 349 134 q 429 227 421 184 q 347 311 443 307 l 231 311 l 253 439 l 346 438 z "},"и":{"ha":771,"x_min":2,"x_max":749,"o":"m 552 734 l 749 734 l 623 0 l 431 0 l 507 439 l 200 0 l 2 0 l 130 734 l 321 734 l 245 295 l 552 734 z "},"к":{"ha":766,"x_min":14,"x_max":803,"o":"m 334 271 l 253 271 l 206 0 l 14 0 l 142 734 l 334 734 l 285 458 l 345 458 l 549 734 l 803 733 l 500 374 l 687 0 l 442 0 l 334 271 z "},"л":{"ha":772,"x_min":-54,"x_max":749,"o":"m 749 734 l 623 0 l 431 0 l 531 575 l 365 575 l 304 294 q 198 70 267 139 q 26 0 130 1 l -54 0 l -33 159 l 1 161 q 137 368 102 178 l 146 421 l 212 734 l 749 734 z "},"м":{"ha":1029,"x_min":14,"x_max":989,"o":"m 472 233 l 745 734 l 989 734 l 861 0 l 669 0 l 745 435 l 505 0 l 376 0 l 285 451 l 206 0 l 14 0 l 142 734 l 375 734 l 472 233 z "},"н":{"ha":771,"x_min":2,"x_max":748,"o":"m 621 0 l 428 0 l 477 282 l 243 282 l 193 0 l 2 0 l 130 734 l 321 734 l 269 439 l 505 439 l 555 734 l 748 734 l 621 0 z "},"п":{"ha":771,"x_min":2,"x_max":749,"o":"m 623 0 l 430 0 l 530 575 l 293 575 l 193 0 l 2 0 l 130 734 l 749 734 l 623 0 z "},"т":{"ha":693,"x_min":49,"x_max":722,"o":"m 694 576 l 466 576 l 366 0 l 174 0 l 274 576 l 49 576 l 77 734 l 722 734 l 694 576 z "},"ф":{"ha":991,"x_min":31,"x_max":937,"o":"m 353 748 q 444 726 397 747 l 505 1042 l 696 1042 l 635 726 q 722 746 678 746 q 880 666 824 746 q 937 444 935 585 q 932 363 937 401 l 926 321 q 817 70 899 158 q 618 -15 735 -18 q 524 7 573 -14 l 467 -282 l 275 -282 l 332 6 q 248 -12 292 -12 q 100 52 155 -12 q 34 235 44 116 l 33 264 q 35 343 31 305 l 41 381 q 150 655 68 559 q 353 748 231 751 m 740 366 q 746 452 746 414 q 665 588 746 584 q 622 585 654 589 l 538 146 l 576 142 q 734 323 698 140 l 739 351 l 740 366 m 222 262 q 324 145 222 138 l 345 147 l 429 586 q 394 591 409 591 q 229 357 261 593 q 222 262 221 280 z "},"ц":{"ha":828,"x_min":2,"x_max":757,"o":"m 130 734 l 321 734 l 221 158 l 458 158 l 557 734 l 749 734 l 650 157 l 757 157 l 678 -218 l 500 -218 l 538 0 l 2 0 l 130 734 z "},"ч":{"ha":753,"x_min":69,"x_max":736,"o":"m 609 0 l 418 0 l 465 232 q 370 222 414 222 q 148 297 226 222 q 83 502 69 372 l 120 734 l 312 734 l 273 501 q 290 410 265 437 q 378 380 314 382 q 481 389 418 378 l 545 734 l 736 734 l 609 0 z "},"ш":{"ha":1121,"x_min":2,"x_max":1093,"o":"m 321 734 l 221 158 l 415 158 l 515 734 l 707 734 l 607 158 l 801 158 l 901 734 l 1093 734 l 965 0 l 2 0 l 130 734 l 321 734 z "},"щ":{"ha":1219,"x_min":0,"x_max":1133,"o":"m 319 734 l 219 158 l 413 158 l 513 734 l 705 734 l 605 158 l 798 158 l 899 734 l 1090 734 l 990 157 l 1133 157 l 1054 -218 l 875 -218 l 913 0 l 0 0 l 127 734 l 319 734 z "},"ъ":{"ha":890,"x_min":50,"x_max":838,"o":"m 78 734 l 473 734 l 435 519 l 543 518 q 761 448 683 517 q 832 263 838 379 q 731 72 825 143 q 490 0 637 0 l 154 0 l 254 575 l 50 575 l 78 734 m 408 361 l 372 157 l 495 156 q 593 185 554 157 q 641 262 632 214 q 624 334 649 310 q 554 361 600 358 l 408 361 z "},"ы":{"ha":1122,"x_min":14,"x_max":1078,"o":"m 296 519 l 405 518 q 621 448 541 517 q 693 263 701 379 q 592 72 686 143 q 351 0 498 0 l 14 0 l 142 734 l 334 734 l 296 519 m 269 361 l 234 157 l 357 156 q 454 185 415 157 q 502 262 493 213 q 485 334 510 310 q 415 361 460 358 l 269 361 m 951 0 l 760 0 l 887 734 l 1078 734 l 951 0 z "},"ь":{"ha":759,"x_min":14,"x_max":701,"o":"m 296 519 l 405 518 q 621 448 541 517 q 693 263 701 379 q 592 72 686 143 q 351 0 498 0 l 14 0 l 142 734 l 334 734 l 296 519 m 269 361 l 234 157 l 357 156 q 454 185 415 157 q 502 262 493 213 q 485 334 510 310 q 415 361 460 358 l 269 361 z "},"э":{"ha":707,"x_min":14,"x_max":667,"o":"m 369 589 q 283 560 317 591 q 241 480 250 530 l 60 479 q 107 618 64 555 q 223 715 150 680 q 377 748 296 750 q 539 697 473 745 q 637 565 606 650 q 658 378 667 481 q 534 89 639 195 q 278 -14 429 -18 q 84 66 155 -11 q 16 273 14 144 l 195 273 q 216 180 192 216 q 288 143 240 144 q 387 181 345 141 q 459 310 429 220 l 261 309 l 283 429 l 469 429 q 449 546 474 505 q 369 589 423 587 z "},"ю":{"ha":1100,"x_min":17,"x_max":1055,"o":"m 288 452 l 381 452 q 532 676 435 601 q 756 747 629 751 q 921 698 852 746 q 1023 564 990 650 q 1044 375 1055 478 l 1043 361 q 966 148 1028 240 q 804 13 903 55 q 656 -14 736 -16 q 442 76 524 -11 q 367 294 360 163 l 260 294 l 209 0 l 17 0 l 144 734 l 336 734 l 288 452 m 557 286 q 584 183 557 221 q 666 143 612 145 q 789 200 739 141 q 851 361 838 258 l 856 420 q 745 589 861 584 q 623 532 671 591 q 561 369 574 472 q 557 286 556 319 z "},"я":{"ha":760,"x_min":-50,"x_max":724,"o":"m 724 734 l 597 0 l 406 0 l 450 254 l 337 254 l 156 0 l -50 0 l 163 290 q 86 372 113 322 q 64 482 60 422 q 112 616 68 559 q 231 704 156 673 q 397 734 307 734 l 724 734 m 253 477 q 269 417 245 441 q 335 391 293 393 l 473 391 l 506 576 l 395 577 q 299 546 337 574 q 253 477 261 519 z "},"ђ":{"ha":761,"x_min":-3,"x_max":704,"o":"m 496 806 l 329 806 l 294 652 q 492 747 381 749 q 652 670 600 745 q 691 463 704 594 l 613 -23 q 521 -227 595 -155 q 326 -298 447 -300 q 224 -286 279 -297 l 249 -130 q 313 -140 285 -140 q 420 -23 398 -140 l 500 465 q 502 513 503 490 q 416 588 495 586 q 281 522 339 591 l 189 0 l -3 0 l 137 806 l 35 806 l 56 930 l 159 930 l 178 1042 l 370 1042 l 350 930 l 517 930 l 496 806 z "},"є":{"ha":707,"x_min":26,"x_max":690,"o":"m 327 144 q 415 172 378 142 q 464 253 452 201 l 645 254 q 595 115 639 176 q 478 18 551 53 q 323 -14 406 -16 q 102 92 178 -11 q 43 355 26 195 q 166 646 62 540 q 422 747 270 751 q 617 667 545 745 q 688 460 690 589 l 509 460 q 485 553 511 519 q 409 589 458 587 q 308 551 350 591 q 238 418 266 511 l 446 418 l 425 298 l 231 298 q 231 243 228 271 q 327 144 238 146 z "},"љ":{"ha":1163,"x_min":-56,"x_max":1107,"o":"m 703 502 l 810 501 q 1027 434 947 500 q 1101 257 1107 368 q 1003 71 1095 141 q 760 0 911 0 l 424 0 l 524 575 l 364 575 l 318 361 q 207 80 281 163 q 15 0 133 -3 l -56 0 l -34 159 l -5 161 q 132 349 97 174 l 146 420 l 211 734 l 743 734 l 703 502 m 675 345 l 643 157 l 766 156 q 865 185 827 158 q 910 258 902 212 q 821 344 924 337 l 675 345 z "},"њ":{"ha":1167,"x_min":2,"x_max":1112,"o":"m 271 450 l 506 450 l 555 734 l 748 734 l 707 502 l 814 501 q 1033 434 954 500 q 1105 257 1112 368 q 1008 71 1099 141 q 764 0 916 0 l 428 0 l 479 293 l 244 293 l 193 0 l 2 0 l 130 734 l 321 734 l 271 450 m 680 345 l 648 157 l 770 156 q 870 185 832 158 q 916 258 907 212 q 826 344 930 337 l 680 345 z "},"ћ":{"ha":767,"x_min":-3,"x_max":704,"o":"m 506 814 l 325 814 l 294 652 q 492 747 380 749 q 653 669 602 745 q 691 463 704 593 l 614 0 l 422 0 l 500 465 q 502 513 504 491 q 416 589 495 587 q 281 522 339 591 l 189 0 l -3 0 l 138 814 l 45 814 l 67 939 l 159 939 l 178 1042 l 370 1042 l 349 939 l 528 939 l 506 814 z "},"џ":{"ha":771,"x_min":2,"x_max":749,"o":"m 321 734 l 221 158 l 458 158 l 557 734 l 749 734 l 623 0 l 408 0 l 366 -243 l 174 -243 l 216 0 l 2 0 l 130 734 l 321 734 z "},"Ѡ":{"ha":1282,"x_min":57,"x_max":1301,"o":"m 1301 987 l 1186 316 q 1065 73 1165 163 q 814 -15 965 -18 q 685 15 741 -14 q 600 95 630 43 q 354 -15 498 -18 q 135 80 214 -12 q 72 315 57 172 l 186 987 l 385 987 l 271 315 q 269 257 268 286 q 296 179 271 208 q 366 149 321 151 q 472 188 430 146 q 529 315 515 230 l 643 987 l 843 987 l 729 315 q 728 257 726 286 q 755 179 730 208 q 826 149 781 151 q 987 319 958 144 l 1101 987 l 1301 987 z "},"ѡ":{"ha":1112,"x_min":43,"x_max":1113,"o":"m 1113 734 l 1040 303 q 930 68 1019 153 q 708 -14 842 -18 q 519 83 573 -11 q 298 -14 425 -17 q 157 28 216 -13 q 71 141 98 69 q 53 302 43 214 l 125 734 l 317 734 l 245 302 l 241 254 l 241 232 q 311 142 246 146 q 405 181 368 139 q 453 302 442 224 l 526 734 l 718 734 l 646 302 l 642 251 q 661 173 641 201 q 720 142 681 144 q 845 281 817 138 l 921 734 l 1113 734 z "},"ѣ":{"ha":758,"x_min":14,"x_max":701,"o":"m 502 734 l 334 734 l 299 536 l 408 535 q 624 463 547 534 q 694 275 701 391 q 591 73 686 149 q 353 0 495 -3 l 14 0 l 142 734 l 38 734 l 60 858 l 163 858 l 198 1059 l 391 1059 l 355 858 l 524 858 l 502 734 m 273 378 l 234 157 l 357 156 q 454 186 413 157 q 504 273 494 216 q 488 348 511 321 q 418 378 465 375 l 273 378 z "},"Ѥ":{"ha":1209,"x_min":11,"x_max":1222,"o":"m 311 583 l 418 583 q 596 898 477 789 q 880 1002 714 1006 q 1125 904 1037 998 q 1222 652 1214 810 l 1024 652 q 987 789 1024 746 q 871 836 949 833 q 722 781 784 839 q 618 583 661 723 l 908 583 l 880 425 l 602 425 l 597 364 q 627 210 590 264 q 740 153 663 155 q 885 196 830 149 q 957 329 939 242 l 1156 330 q 1085 149 1143 227 q 933 28 1027 71 q 730 -13 840 -15 q 537 47 617 -10 q 421 206 456 105 q 403 425 386 307 l 283 425 l 210 0 l 11 0 l 182 987 l 381 987 l 311 583 z "},"ѥ":{"ha":1023,"x_min":6,"x_max":992,"o":"m 273 430 l 353 429 q 496 670 401 589 q 725 747 592 751 q 920 667 847 745 q 991 460 992 589 l 812 460 q 712 589 812 585 q 614 553 656 591 q 544 429 573 515 l 765 430 l 743 306 l 534 306 q 532 249 530 277 q 560 172 535 199 q 629 144 585 144 q 719 172 683 142 q 767 253 755 202 l 947 254 q 898 115 942 178 q 781 18 854 53 q 626 -14 709 -16 q 471 29 538 -12 q 370 144 404 71 q 345 307 337 218 l 251 306 l 198 0 l 6 0 l 133 734 l 326 734 l 273 430 z "},"Ѧ":{"ha":897,"x_min":-65,"x_max":815,"o":"m 576 284 l 506 284 l 458 0 l 292 0 l 342 284 l 291 284 l 151 0 l -65 0 l 444 987 l 650 987 l 815 0 l 618 0 l 576 284 m 359 425 l 553 425 l 509 728 l 359 425 z "},"ѧ":{"ha":760,"x_min":-71,"x_max":664,"o":"m 450 182 l 392 182 l 361 0 l 234 0 l 271 184 l 229 184 l 133 0 l -71 0 l 326 734 l 522 734 l 664 0 l 481 0 l 450 182 m 289 311 l 426 309 l 399 463 l 397 536 l 358 441 l 289 311 z "},"Ѩ":{"ha":1267,"x_min":26,"x_max":1173,"o":"m 298 425 l 511 425 l 802 987 l 1008 987 l 1173 0 l 972 0 l 932 284 l 866 284 l 817 0 l 650 0 l 701 284 l 650 284 l 509 0 l 293 0 l 439 284 l 274 284 l 224 0 l 26 0 l 197 987 l 395 987 l 298 425 m 719 425 l 911 425 l 867 726 l 719 425 z "},"ѩ":{"ha":1082,"x_min":12,"x_max":986,"o":"m 258 309 l 418 309 l 648 734 l 843 734 l 986 0 l 799 0 l 768 182 l 715 182 l 683 0 l 555 0 l 593 184 l 549 184 l 454 0 l 249 0 l 351 181 l 235 182 l 204 0 l 12 0 l 139 734 l 332 734 l 258 309 m 610 311 l 747 309 l 721 463 l 718 536 l 680 441 l 610 311 z "},"Ѫ":{"ha":1181,"x_min":1,"x_max":1131,"o":"m 798 538 q 1012 452 939 536 q 1069 228 1086 368 l 1032 0 l 833 0 l 871 229 q 854 337 880 302 q 753 376 827 372 l 690 376 l 625 0 l 426 0 l 492 376 l 433 378 q 299 342 346 378 q 238 232 252 307 l 199 0 l 1 0 l 37 228 q 156 462 57 382 q 441 543 256 541 l 277 987 l 1131 987 l 798 538 m 622 575 l 791 819 l 542 821 l 622 575 z "},"ѫ":{"ha":995,"x_min":2,"x_max":911,"o":"m 667 409 q 825 319 773 395 q 864 123 876 243 l 846 0 l 654 0 l 675 141 l 676 180 q 651 242 674 222 q 574 267 628 263 l 522 0 l 331 0 l 381 268 l 351 267 q 215 135 239 258 l 193 0 l 2 0 l 21 123 q 115 331 39 260 q 328 414 192 401 l 209 733 l 911 734 l 667 409 m 496 429 l 614 603 l 446 604 l 496 429 z "},"Ѭ":{"ha":1573,"x_min":27,"x_max":1523,"o":"m 393 0 l 432 234 q 492 388 448 322 l 292 385 l 226 0 l 27 0 l 198 987 l 397 987 l 320 545 l 840 545 l 670 987 l 1523 987 l 1190 539 q 1404 452 1331 536 q 1462 228 1478 367 l 1425 0 l 1226 0 l 1263 229 q 1246 337 1273 301 q 1146 376 1220 372 l 1083 376 l 1018 0 l 819 0 l 884 376 l 825 378 q 691 341 738 378 q 631 232 644 305 l 592 0 l 393 0 m 1015 575 l 1184 819 l 935 821 l 1015 575 z "},"ѭ":{"ha":1362,"x_min":17,"x_max":1279,"o":"m 368 0 l 390 126 q 446 274 406 211 l 256 271 l 208 0 l 17 0 l 144 734 l 336 734 l 281 416 l 702 416 l 576 733 l 1279 734 l 1034 409 q 1191 320 1139 395 q 1231 123 1243 244 l 1213 0 l 1020 0 l 1040 123 q 1043 180 1044 154 q 960 265 1041 257 l 941 267 l 889 0 l 698 0 l 749 268 q 632 235 670 268 q 581 135 594 202 l 559 0 l 368 0 m 863 429 l 980 603 l 812 604 l 863 429 z "},"Ѯ":{"ha":699,"x_min":-78,"x_max":739,"o":"m 277 586 q 399 621 351 586 q 456 716 447 655 q 433 794 465 767 q 338 823 402 822 l 153 824 l 182 987 l 328 987 q 573 921 488 986 q 651 736 658 855 q 463 501 642 575 q 568 415 532 471 q 600 282 605 358 q 490 65 593 146 q 232 -15 387 -16 l 193 -14 q 128 -34 153 -16 q 96 -84 102 -52 q 149 -173 85 -137 l 172 -185 l 109 -302 q -28 -213 21 -278 q -74 -56 -78 -147 q -1 95 -69 41 q 183 150 67 150 l 227 149 q 350 185 298 149 q 410 280 401 220 q 382 385 421 348 q 261 422 344 422 l 161 423 l 189 587 l 277 586 m 456 1211 l 569 1307 l 738 1311 l 739 1297 l 516 1109 l 395 1109 l 219 1299 l 218 1312 l 377 1308 l 456 1211 z "},"ѯ":{"ha":685,"x_min":-64,"x_max":679,"o":"m 260 425 q 360 451 323 427 q 404 518 397 475 q 296 591 416 586 l 112 591 l 137 734 l 298 733 q 524 680 447 730 q 597 537 601 631 q 454 361 593 424 q 542 300 511 339 q 571 212 572 260 q 478 46 569 106 q 229 -14 387 -14 l 208 -14 q 100 -83 111 -18 q 166 -184 88 -146 l 106 -292 q -19 -196 26 -260 q -61 -56 -64 -132 q 5 80 -58 31 q 178 129 68 129 l 196 129 q 382 218 365 129 q 256 303 398 298 l 139 303 l 161 425 l 260 425 m 396 949 l 510 1044 l 679 1048 l 679 1034 l 457 847 l 336 847 l 159 1036 l 159 1049 l 317 1045 l 396 949 z "},"Ѳ":{"ha":934,"x_min":64,"x_max":907,"o":"m 414 -14 q 239 33 315 -12 q 121 162 164 78 q 71 353 78 245 q 95 591 64 465 q 195 812 126 717 q 358 956 264 908 q 559 1001 451 1003 q 732 955 658 999 q 850 826 806 910 q 900 633 894 741 q 874 387 907 513 q 773 169 842 261 q 613 31 705 77 q 414 -14 521 -16 m 422 153 q 581 217 514 149 q 688 435 647 284 l 274 435 l 269 374 q 307 213 267 271 q 422 153 347 155 m 551 833 q 284 557 361 840 l 699 557 l 703 618 q 666 773 705 715 q 551 833 627 831 z "},"ѳ":{"ha":767,"x_min":26,"x_max":730,"o":"m 39 369 q 104 566 51 478 q 240 702 157 654 q 426 747 324 750 q 650 640 571 744 q 713 376 730 536 l 712 361 q 661 190 701 269 q 555 61 621 112 q 326 -14 455 -18 q 159 36 229 -12 q 58 168 90 84 q 37 355 26 252 l 39 369 m 416 589 q 313 553 357 591 q 236 426 269 514 l 524 427 q 501 544 529 501 q 416 589 473 587 m 335 144 q 513 303 452 140 l 227 302 q 250 187 221 229 q 335 144 279 145 z "},"Ѵ":{"ha":873,"x_min":111,"x_max":945,"o":"m 390 268 l 391 210 l 417 273 l 633 762 q 754 945 686 889 q 913 1001 822 1001 l 945 1000 l 926 829 l 909 829 q 811 748 848 827 l 465 0 l 260 0 l 111 987 l 309 989 l 390 268 z "},"ѵ":{"ha":694,"x_min":71,"x_max":751,"o":"m 294 270 l 294 212 l 322 290 l 418 522 q 675 749 507 749 q 751 735 715 749 l 719 581 l 687 585 q 595 507 631 585 l 355 0 l 173 0 l 71 734 l 264 734 l 294 270 z "},"Ѻ":{"ha":934,"x_min":65,"x_max":897,"o":"m 461 -9 l 443 -92 l 313 -92 l 332 -6 q 190 61 250 11 q 99 193 130 112 q 65 369 68 274 l 66 433 q 197 823 82 674 q 494 995 313 971 l 511 1069 l 640 1068 l 623 995 q 821 873 749 972 q 897 619 892 773 l 895 553 q 763 162 880 312 q 461 -9 646 12 m 699 633 q 604 825 699 784 l 588 754 l 458 755 l 475 824 q 278 524 315 760 q 262 359 262 418 q 351 164 262 206 l 366 229 l 496 228 l 480 160 q 683 466 646 220 q 699 633 699 574 z "},"ѻ":{"ha":767,"x_min":30,"x_max":734,"o":"m 45 369 q 155 626 64 526 q 388 743 245 726 l 405 817 l 516 816 l 498 741 q 675 618 615 718 q 720 376 734 519 l 719 361 q 608 105 700 203 q 375 -9 515 7 l 357 -84 l 247 -83 l 264 -7 q 89 115 148 16 q 44 355 30 214 l 45 369 m 392 151 q 530 385 508 203 l 535 429 q 480 578 543 539 l 466 510 l 354 511 l 370 581 q 234 352 256 528 l 229 304 q 238 214 224 253 q 283 155 252 174 l 300 231 l 410 230 l 392 151 z "},"Ѽ":{"ha":1282,"x_min":58,"x_max":1240,"o":"m 951 989 q 1111 940 1044 983 q 1209 821 1178 897 q 1229 652 1240 745 l 1177 320 q 1054 73 1156 164 q 804 -14 951 -18 q 680 14 734 -13 q 594 87 625 40 q 354 -15 490 -18 q 136 81 214 -12 q 73 320 58 174 l 126 652 q 249 897 148 808 q 508 989 350 986 l 491 823 q 382 779 425 823 q 326 652 340 735 l 273 319 q 271 261 269 291 q 297 180 272 210 q 367 149 321 151 q 473 189 430 145 q 530 319 516 232 l 568 553 l 758 553 l 719 315 q 717 256 715 286 q 744 178 719 207 q 816 148 770 150 q 979 332 949 143 l 1031 652 q 1034 712 1035 683 q 939 821 1032 814 l 951 989 m 1061 1160 l 1057 1067 l 1046 1067 q 967 1082 1006 1069 q 889 1112 928 1096 q 812 1139 850 1127 q 737 1152 774 1152 q 682 1133 703 1152 q 654 1080 660 1114 l 652 1067 l 564 1068 l 565 1095 q 612 1205 570 1167 q 727 1242 654 1244 q 807 1229 768 1242 q 884 1201 846 1216 q 961 1173 922 1185 q 1043 1160 1000 1160 l 1061 1160 m 641 909 q 701 1009 691 965 l 713 1073 l 826 1072 l 818 1008 q 701 866 808 927 l 641 909 z "},"ѽ":{"ha":1095,"x_min":48,"x_max":1034,"o":"m 765 747 q 963 653 893 739 q 1019 431 1034 568 l 1002 304 q 885 59 981 145 q 677 -14 800 -18 q 572 13 618 -13 q 502 85 526 39 q 299 -15 412 -18 q 159 27 218 -14 q 74 141 100 69 q 58 300 48 213 l 76 436 q 190 663 96 582 q 429 747 283 744 l 413 588 q 267 417 290 585 l 250 298 l 247 253 l 247 231 q 313 142 252 146 q 440 311 414 136 l 455 411 l 638 411 l 622 302 l 618 254 q 690 142 616 146 q 810 304 787 138 l 830 443 l 832 486 q 811 556 832 530 q 751 586 791 583 l 765 747 m 936 931 l 932 838 q 863 846 887 840 q 758 884 838 852 q 638 921 677 916 l 612 922 q 526 851 541 922 l 525 838 l 436 839 l 437 865 q 485 976 442 938 q 601 1013 528 1015 q 681 1000 642 1013 q 759 971 720 987 q 837 943 798 956 q 917 930 876 931 l 936 931 m 520 684 q 581 784 570 740 l 593 848 l 705 847 l 697 783 q 580 641 687 702 l 520 684 z "},"Ѿ":{"ha":1282,"x_min":56,"x_max":1301,"o":"m 1301 987 l 1187 316 q 1065 72 1166 163 q 816 -16 965 -19 q 687 14 743 -15 q 601 95 631 42 q 355 -16 496 -20 q 135 81 214 -12 q 73 315 56 173 l 186 987 l 386 987 l 272 315 q 270 257 269 286 q 297 179 272 208 q 367 149 322 151 q 473 188 431 146 q 530 315 515 230 l 644 987 l 844 987 l 730 315 q 728 257 726 286 q 756 179 730 208 q 827 149 781 151 q 989 322 958 144 l 1101 987 l 1301 987 m 480 1144 l 496 1234 l 1079 1234 l 1065 1144 l 827 1144 l 812 1058 l 691 1058 l 707 1144 l 480 1144 z "},"ѿ":{"ha":1112,"x_min":43,"x_max":1113,"o":"m 1113 734 l 1040 303 q 931 68 1019 154 q 708 -15 842 -18 q 594 12 644 -14 q 519 83 545 37 q 298 -15 426 -18 q 156 28 216 -14 q 70 142 97 69 q 53 302 43 214 l 125 734 l 317 734 l 245 302 l 241 254 l 241 236 q 311 143 245 146 q 406 182 369 140 q 453 302 442 224 l 526 734 l 718 734 l 646 302 l 642 251 q 661 173 641 201 q 720 143 681 144 q 845 281 817 139 l 921 734 l 1113 734 m 376 897 l 393 988 l 935 988 l 923 897 l 703 897 l 687 811 l 568 811 l 583 897 l 376 897 z "},"Ҁ":{"ha":844,"x_min":50,"x_max":844,"o":"m 448 -245 l 250 -245 l 296 -7 q 155 68 213 11 q 74 210 98 125 q 62 392 50 294 l 92 590 q 239 893 122 782 q 521 1002 356 1005 q 761 910 677 1000 q 838 657 844 821 l 640 658 q 613 795 645 754 q 511 838 581 836 q 369 775 427 840 q 292 591 311 709 l 258 382 l 256 341 q 282 204 252 254 q 376 151 313 153 l 517 149 l 448 -245 z "},"ҁ":{"ha":727,"x_min":43,"x_max":700,"o":"m 404 -248 l 212 -248 l 259 -6 q 96 117 150 20 q 56 355 43 214 q 180 645 75 538 q 436 747 285 751 q 629 666 559 745 q 697 460 700 587 l 517 460 q 495 554 519 522 q 426 589 471 587 q 312 538 359 593 q 250 383 266 484 l 246 355 q 242 267 240 299 q 336 145 245 150 l 471 143 l 404 -248 z "},"҂":{"ha":846,"x_min":35,"x_max":821,"o":"m 378 297 l 549 180 l 493 103 l 321 218 l 164 0 l 35 0 l 236 277 l 66 393 l 121 471 l 294 355 l 475 608 l 304 724 l 361 803 l 533 688 l 694 909 l 821 910 l 617 628 l 790 512 l 732 435 l 562 550 l 378 297 z "},"҃":{"ha":0,"x_min":-530,"x_max":-12,"o":"m -397 890 l -412 804 l -530 805 l -500 966 l -142 966 l -130 1040 l -12 1039 l -38 890 l -397 890 z "},"҄":{"ha":0,"x_min":-507,"x_max":-6,"o":"m -154 1055 q -46 1017 -85 1053 q -8 910 -6 980 l -9 883 l -98 884 l -96 898 q -149 964 -92 961 q -239 951 -192 966 l -404 896 q -507 883 -446 883 l -502 975 q -420 983 -454 975 q -318 1016 -387 991 q -219 1048 -250 1041 q -154 1055 -187 1055 z "},"҅":{"ha":0,"x_min":-300,"x_max":-155,"o":"m -300 1027 l -284 1114 l -159 1114 l -180 994 l -155 923 l -207 885 l -300 1027 z "},"҆":{"ha":0,"x_min":-305,"x_max":-109,"o":"m -250 886 l -305 941 l -252 1016 l -235 1114 l -109 1114 l -127 1008 l -250 886 z "},"҈":{"ha":0,"x_min":-989,"x_max":290,"o":"m -406 859 q -365 954 -401 919 q -267 987 -328 988 q -171 953 -209 987 q -130 857 -133 918 l -202 859 q -252 928 -199 928 q -330 859 -310 928 l -406 859 m -50 671 q -9 765 -46 730 q 89 800 28 800 q 186 765 147 800 q 226 669 224 730 l 153 671 q 104 740 157 740 q 27 671 47 741 l -50 671 m 15 330 q 55 424 19 389 q 153 458 92 458 q 250 422 214 458 q 290 328 287 387 l 217 330 q 168 399 220 399 q 90 330 110 400 l 15 330 m -175 -22 q -135 72 -171 37 q -37 106 -98 106 q 59 71 22 106 q 99 -24 96 37 l 26 -22 q -23 47 30 47 q -100 -22 -80 48 l -175 -22 m -589 -214 q -548 -120 -585 -155 q -449 -86 -511 -85 q -353 -121 -391 -86 q -313 -216 -315 -155 l -385 -215 q -435 -146 -382 -146 q -512 -214 -492 -144 l -589 -214 m -816 671 q -774 766 -811 732 q -675 800 -737 800 q -580 765 -618 800 q -539 669 -542 730 l -611 671 q -661 740 -608 740 q -739 671 -719 740 l -816 671 m -989 330 q -948 424 -985 389 q -850 458 -912 458 q -753 422 -790 458 q -715 328 -716 387 l -787 330 q -836 399 -783 399 q -913 330 -894 400 l -989 330 m -941 -22 q -900 72 -937 37 q -802 106 -864 106 q -705 71 -743 106 q -666 -24 -667 36 l -739 -22 q -788 47 -735 47 q -865 -22 -846 48 l -941 -22 z "},"҉":{"ha":0,"x_min":-943,"x_max":275,"o":"m -345 -39 l -334 -53 l -448 -280 l -519 -280 l -435 -41 l -345 -39 m -321 762 l -332 774 l -218 1002 l -147 1002 l -232 764 l -321 762 m 55 429 l 60 435 l 275 348 l 264 288 l 47 334 l 55 429 m -724 292 l -729 286 l -943 374 l -932 433 l -717 388 l -724 292 m -56 680 l -54 692 l 169 795 l 213 740 l 9 612 l -56 680 m -618 14 l -619 1 l -842 -102 l -886 -46 l -682 81 l -618 14 m -604 583 l -616 584 l -682 816 l -639 854 l -536 647 l -604 583 m -71 109 l -58 109 l 7 -123 l -37 -162 l -138 45 l -71 109 z "},"Ҋ":{"ha":1054,"x_min":7,"x_max":960,"o":"m 753 987 l 960 987 l 788 0 l 589 0 l 701 643 l 213 0 l 7 0 l 179 987 l 378 987 l 266 344 l 753 987 m 827 1249 q 756 1099 823 1154 q 589 1046 689 1043 q 436 1101 495 1047 q 375 1249 376 1155 l 509 1247 q 587 1158 507 1159 q 658 1181 631 1156 q 692 1247 684 1206 l 827 1249 m 768 -277 l 667 -222 l 716 -143 q 772 -7 760 -71 l 797 137 l 958 137 l 939 12 q 768 -277 911 -163 z "},"ҋ":{"ha":886,"x_min":2,"x_max":793,"o":"m 552 734 l 749 734 l 623 0 l 431 0 l 507 439 l 200 0 l 2 0 l 130 734 l 321 734 l 245 295 l 552 734 m 706 1033 q 635 883 702 939 q 467 830 568 827 q 314 885 374 831 q 254 1033 255 939 l 388 1031 q 466 942 385 943 q 536 965 510 941 q 570 1031 563 990 l 706 1033 m 603 -277 l 502 -222 l 551 -143 q 607 -7 595 -71 l 632 137 l 793 137 l 774 12 q 603 -277 746 -163 z "},"ҍ":{"ha":758,"x_min":14,"x_max":701,"o":"m 524 863 l 356 863 l 299 536 l 408 535 q 624 463 547 534 q 694 275 701 391 q 591 73 686 149 q 353 0 495 -3 l 14 0 l 164 863 l 60 863 l 83 987 l 185 987 l 205 1095 l 397 1095 l 378 987 l 547 987 l 524 863 m 273 378 l 234 157 l 357 156 q 454 186 413 157 q 504 273 494 216 q 488 348 511 321 q 418 378 465 375 l 273 378 z "},"Ҏ":{"ha":854,"x_min":14,"x_max":875,"o":"m 274 348 l 213 0 l 14 0 l 186 987 l 531 987 q 784 897 694 987 q 863 665 875 808 q 733 433 850 523 l 795 338 l 726 285 l 659 385 q 463 348 574 349 l 274 348 m 624 582 q 661 726 672 656 q 622 794 653 769 q 543 822 591 819 l 356 823 l 302 513 l 467 513 q 553 525 509 514 l 490 627 l 558 680 l 624 582 z "},"ҏ":{"ha":766,"x_min":-47,"x_max":713,"o":"m 707 364 q 578 81 685 184 l 631 -7 l 561 -59 l 513 20 q 378 -13 444 -14 q 212 65 273 -12 l 144 -282 l -47 -282 l 129 734 l 305 734 l 292 661 q 479 747 372 750 q 648 668 588 745 q 712 463 709 591 q 707 364 713 421 m 520 444 q 496 549 522 511 q 422 589 471 587 q 284 518 338 591 l 229 216 q 334 146 253 149 q 412 165 366 145 l 355 264 l 425 315 l 471 241 q 520 444 516 323 z "},"Ґ":{"ha":755,"x_min":12,"x_max":859,"o":"m 799 829 l 791 829 l 791 823 l 355 823 l 212 0 l 12 0 l 184 987 l 629 987 l 673 1240 l 859 1241 l 799 829 z "},"ґ":{"ha":629,"x_min":0,"x_max":677,"o":"m 612 575 l 292 575 l 191 0 l 0 0 l 127 734 l 448 734 l 486 947 l 677 947 l 612 575 z "},"Ҕ":{"ha":846,"x_min":16,"x_max":815,"o":"m 787 823 l 357 823 l 313 566 l 404 566 q 603 518 519 566 q 725 381 687 470 q 752 174 764 292 q 620 -118 732 -9 q 330 -232 507 -228 l 345 -81 q 466 -36 415 -79 q 542 89 517 7 q 562 252 567 171 q 516 365 555 326 q 408 406 477 404 l 285 406 l 214 0 l 16 0 l 187 987 l 815 987 l 787 823 z "},"ҕ":{"ha":720,"x_min":0,"x_max":630,"o":"m 586 575 l 292 575 l 264 450 l 282 450 q 539 360 449 450 q 618 126 630 271 q 532 -67 610 19 q 331 -197 453 -153 l 260 -61 q 425 127 406 4 q 400 244 436 201 q 288 291 363 286 l 248 292 l 191 0 l 0 0 l 127 734 l 614 734 l 586 575 z "},"Җ":{"ha":1447,"x_min":-66,"x_max":1436,"o":"m 898 402 l 780 402 l 710 0 l 511 0 l 581 402 l 471 402 l 193 0 l -66 0 l 333 541 l 130 987 l 367 987 l 511 589 l 613 589 l 682 987 l 881 987 l 812 589 l 901 589 l 1178 987 l 1436 987 l 1069 519 l 1270 0 l 1031 0 l 898 402 m 1318 -242 l 1126 -242 l 1192 139 l 1384 139 l 1318 -242 z "},"җ":{"ha":1231,"x_min":-52,"x_max":1191,"o":"m 740 272 l 649 272 l 602 0 l 410 0 l 458 272 l 380 272 l 191 0 l -52 0 l 248 395 l 88 733 l 315 734 l 416 460 l 490 460 l 538 734 l 729 734 l 682 460 l 745 460 l 941 734 l 1191 734 l 902 378 l 1060 0 l 834 0 l 740 272 m 1097 -242 l 906 -242 l 972 139 l 1164 139 l 1097 -242 z "},"Қ":{"ha":1008,"x_min":16,"x_max":958,"o":"m 404 404 l 285 404 l 214 0 l 16 0 l 187 987 l 386 987 l 317 592 l 399 592 l 703 987 l 958 987 l 572 510 l 807 0 l 580 0 l 404 404 m 847 -242 l 656 -242 l 722 139 l 913 139 l 847 -242 z "},"қ":{"ha":882,"x_min":14,"x_max":803,"o":"m 334 271 l 253 271 l 206 0 l 14 0 l 142 734 l 334 734 l 285 458 l 345 458 l 549 734 l 803 733 l 500 374 l 687 0 l 442 0 l 334 271 m 725 -242 l 534 -242 l 600 139 l 791 139 l 725 -242 z "},"Ҝ":{"ha":898,"x_min":13,"x_max":991,"o":"m 991 987 l 654 525 l 837 0 l 591 0 l 487 401 l 450 402 l 418 246 l 307 246 l 335 401 l 283 401 l 213 0 l 13 0 l 184 987 l 385 987 l 315 588 l 367 588 l 397 763 l 509 763 l 473 586 l 496 586 l 733 987 l 991 987 z "},"ҝ":{"ha":818,"x_min":14,"x_max":863,"o":"m 863 734 l 602 374 l 738 0 l 501 0 l 441 271 l 409 272 l 385 155 l 283 155 l 304 271 l 254 271 l 206 0 l 14 0 l 142 734 l 334 734 l 285 458 l 336 458 l 359 587 l 460 587 l 432 456 l 460 456 l 612 734 l 863 734 z "},"Ҡ":{"ha":1119,"x_min":97,"x_max":1207,"o":"m 653 404 l 534 404 l 465 0 l 265 0 l 409 829 l 97 829 l 125 987 l 635 987 l 567 592 l 649 592 l 952 987 l 1207 987 l 822 510 l 1057 0 l 829 0 l 653 404 z "},"ҡ":{"ha":970,"x_min":66,"x_max":1017,"o":"m 547 271 l 466 271 l 419 0 l 227 0 l 328 574 l 66 574 l 94 734 l 547 734 l 498 458 l 558 458 l 762 734 l 1017 734 l 714 374 l 899 0 l 655 0 l 547 271 z "},"Ң":{"ha":1059,"x_min":14,"x_max":966,"o":"m 795 0 l 597 0 l 670 423 l 287 423 l 213 0 l 14 0 l 186 987 l 385 987 l 315 587 l 699 587 l 768 987 l 966 987 l 795 0 m 897 -242 l 706 -242 l 772 139 l 964 139 l 897 -242 z "},"ң":{"ha":881,"x_min":2,"x_max":790,"o":"m 621 0 l 428 0 l 477 282 l 243 282 l 193 0 l 2 0 l 130 734 l 321 734 l 269 439 l 505 439 l 555 734 l 748 734 l 621 0 m 724 -242 l 532 -242 l 598 139 l 790 139 l 724 -242 z "},"Ҥ":{"ha":1333,"x_min":14,"x_max":1377,"o":"m 315 587 l 699 587 l 768 987 l 1377 987 l 1349 829 l 939 829 l 795 0 l 597 0 l 670 423 l 287 423 l 213 0 l 14 0 l 186 987 l 385 987 l 315 587 z "},"ҥ":{"ha":958,"x_min":0,"x_max":969,"o":"m 268 439 l 503 439 l 553 734 l 969 734 l 941 575 l 718 575 l 618 0 l 426 0 l 475 282 l 241 282 l 191 0 l 0 0 l 127 734 l 319 734 l 268 439 z "},"Ҧ":{"ha":1415,"x_min":16,"x_max":1331,"o":"m 894 565 l 971 565 q 1170 517 1086 565 q 1292 379 1254 469 q 1319 172 1331 290 q 1187 -120 1299 -10 q 897 -233 1074 -229 l 911 -83 q 1033 -38 982 -81 q 1109 87 1084 5 q 1128 251 1134 170 q 1083 363 1122 324 q 975 405 1044 402 l 866 405 l 796 0 l 597 0 l 739 823 l 357 823 l 214 0 l 16 0 l 187 987 l 967 987 l 894 565 z "},"ҧ":{"ha":1173,"x_min":0,"x_max":1098,"o":"m 694 455 l 736 455 q 1003 367 909 455 q 1086 131 1098 279 q 999 -62 1078 24 q 797 -191 920 -149 l 728 -56 q 894 132 875 9 q 866 249 905 205 q 743 296 826 293 l 672 296 l 621 0 l 428 0 l 528 575 l 292 575 l 191 0 l 0 0 l 127 734 l 742 734 l 694 455 z "},"Ҩ":{"ha":1089,"x_min":58,"x_max":1056,"o":"m 963 -11 q 707 37 813 -3 q 469 -14 585 -16 q 262 40 353 -12 q 121 185 171 93 q 76 447 58 302 l 97 587 q 236 888 125 776 q 509 1003 347 1000 l 490 831 q 377 771 425 830 q 310 596 330 711 l 286 446 q 285 343 279 394 q 345 208 295 257 q 476 157 395 159 l 525 159 q 450 497 427 328 l 468 621 q 584 902 494 798 q 802 1002 674 1005 q 971 926 905 999 q 1051 725 1036 854 l 1055 685 q 1050 590 1056 633 l 1034 481 q 866 155 1004 288 q 976 149 922 149 l 963 -11 m 637 495 q 711 239 616 338 q 833 481 808 330 l 859 661 l 861 701 q 845 799 863 768 q 788 831 826 829 q 662 666 690 837 l 637 495 z "},"ҩ":{"ha":876,"x_min":41,"x_max":828,"o":"m 773 -20 q 552 18 643 -15 q 373 -13 458 -16 q 196 37 273 -12 q 79 171 118 85 q 52 359 41 257 l 58 415 q 166 655 77 566 q 394 749 256 745 l 376 585 q 263 430 287 568 q 251 284 245 330 q 380 151 262 164 q 355 254 361 201 q 356 360 349 304 l 368 454 q 456 670 386 591 q 629 747 526 749 q 730 715 686 745 q 799 627 774 685 q 827 504 823 570 q 825 434 828 468 l 812 334 q 680 100 794 201 q 778 95 737 95 l 773 -20 m 496 350 q 532 190 486 262 q 622 345 608 250 l 635 447 l 637 496 q 595 585 637 583 q 509 444 528 589 l 496 350 z "},"Ҳ":{"ha":905,"x_min":-55,"x_max":932,"o":"m 460 648 l 693 987 l 932 987 l 569 488 l 774 0 l 554 0 l 425 345 l 186 0 l -55 0 l 316 507 l 117 987 l 334 987 l 460 648 m 776 -242 l 585 -242 l 650 139 l 842 139 l 776 -242 z "},"ҳ":{"ha":738,"x_min":-56,"x_max":724,"o":"m 355 516 l 509 734 l 724 734 l 458 365 l 607 0 l 413 0 l 323 229 l 161 0 l -56 0 l 221 384 l 79 734 l 273 734 l 355 516 m 604 -242 l 413 -242 l 479 139 l 671 139 l 604 -242 z "},"Ҵ":{"ha":1213,"x_min":95,"x_max":1122,"o":"m 313 829 l 95 829 l 123 987 l 756 987 l 728 829 l 513 829 l 397 163 l 779 163 l 922 987 l 1122 987 l 979 163 l 1110 163 l 1027 -238 l 842 -238 l 883 0 l 170 0 l 313 829 z "},"ҵ":{"ha":932,"x_min":58,"x_max":858,"o":"m 203 575 l 58 575 l 86 734 l 553 734 l 525 575 l 395 575 l 322 158 l 559 158 l 659 734 l 851 734 l 751 157 l 858 157 l 780 -218 l 601 -218 l 639 0 l 103 0 l 203 575 z "},"Ҷ":{"ha":1041,"x_min":130,"x_max":960,"o":"m 960 987 l 788 0 l 589 0 l 661 376 q 475 356 577 355 q 219 446 308 357 q 148 683 130 534 l 199 987 l 397 987 l 347 682 q 369 561 336 600 q 484 520 401 522 q 677 537 555 518 l 760 987 l 960 987 m 880 -242 l 688 -242 l 754 139 l 946 139 l 880 -242 z "},"ҷ":{"ha":864,"x_min":69,"x_max":773,"o":"m 609 0 l 418 0 l 465 232 q 370 222 414 222 q 148 297 226 222 q 83 502 69 372 l 120 734 l 312 734 l 273 501 q 290 410 265 437 q 378 380 314 382 q 481 389 418 378 l 545 734 l 736 734 l 609 0 m 707 -242 l 515 -242 l 581 139 l 773 139 l 707 -242 z "},"Ҹ":{"ha":923,"x_min":115,"x_max":941,"o":"m 378 987 l 328 681 q 326 622 324 648 q 422 520 330 538 l 463 718 l 572 718 l 535 520 l 659 537 l 742 987 l 941 987 l 769 0 l 570 0 l 642 376 q 515 359 591 363 l 483 200 l 372 200 l 406 358 q 190 455 264 369 q 130 683 115 541 l 180 987 l 378 987 z "},"ҹ":{"ha":762,"x_min":81,"x_max":748,"o":"m 621 0 l 428 0 l 473 232 l 412 223 l 391 121 l 280 121 l 303 227 q 137 316 193 243 q 94 502 81 389 l 131 734 l 322 734 l 281 492 l 279 465 q 321 386 275 409 l 356 562 l 467 562 l 432 378 l 492 388 l 556 734 l 748 734 l 621 0 z "},"Һ":{"ha":948,"x_min":17,"x_max":845,"o":"m 17 0 l 189 987 l 388 987 l 316 611 q 501 631 404 632 q 757 541 669 628 q 829 304 845 454 l 779 0 l 579 0 l 629 304 q 608 426 640 387 q 494 467 576 465 q 299 449 416 469 l 216 0 l 17 0 z "},"Ҽ":{"ha":1027,"x_min":33,"x_max":990,"o":"m 574 -15 q 357 42 451 -14 q 222 195 262 98 q 201 412 181 292 l 208 444 q 78 539 122 465 q 39 734 33 614 l 170 734 l 168 692 q 221 590 168 618 q 313 808 249 713 q 472 952 378 902 q 677 1000 566 1003 q 842 956 772 998 q 949 832 911 913 q 989 647 986 751 q 983 534 990 591 l 966 426 l 403 427 l 399 410 q 395 313 388 357 q 454 204 404 243 q 583 163 503 165 q 831 205 703 161 l 849 35 q 630 -14 777 -11 l 574 -15 m 666 822 q 516 765 580 825 q 420 589 452 705 l 789 589 q 800 688 802 649 q 760 785 795 750 q 666 822 725 820 z "},"ҽ":{"ha":812,"x_min":-19,"x_max":802,"o":"m 444 -14 q 277 32 351 -12 q 167 152 203 76 q 140 317 130 228 q 21 408 62 339 q -14 585 -19 477 l 105 585 l 103 545 q 153 447 103 475 q 302 674 205 597 q 524 747 399 751 q 681 700 616 746 q 773 570 745 653 q 789 387 802 487 l 777 303 l 328 303 q 359 190 323 233 q 460 145 395 146 q 644 226 564 141 l 730 117 q 611 20 689 54 q 444 -14 532 -15 m 513 590 q 415 553 456 591 q 342 436 373 515 l 606 436 l 610 454 q 612 506 614 481 q 513 590 601 586 z "},"Ӄ":{"ha":882,"x_min":13,"x_max":937,"o":"m 566 555 q 760 429 693 534 q 810 170 826 323 q 675 -124 791 -14 q 382 -238 560 -234 l 397 -81 q 594 91 544 -75 q 612 245 617 168 q 570 357 608 317 q 465 399 532 397 l 283 400 l 213 0 l 13 0 l 184 987 l 385 987 l 315 591 l 372 591 l 677 987 l 937 987 l 566 555 z "},"ӄ":{"ha":776,"x_min":14,"x_max":804,"o":"m 512 404 q 645 292 600 369 q 682 111 690 215 q 599 -76 674 9 q 395 -208 524 -161 l 324 -72 q 489 113 470 -10 q 462 224 500 182 q 337 270 424 267 l 253 271 l 206 0 l 14 0 l 142 734 l 334 734 l 285 458 l 334 458 l 549 734 l 804 734 l 512 404 z "},"Ӆ":{"ha":1059,"x_min":-45,"x_max":966,"o":"m 966 987 l 795 0 l 595 0 l 738 823 l 485 823 l 391 388 q 257 94 344 184 q 38 0 171 3 l -45 0 l -21 163 l 9 166 q 142 250 90 176 q 221 484 195 324 l 233 555 l 322 987 l 966 987 m 773 -277 l 672 -222 l 722 -143 q 777 -7 765 -71 l 802 137 l 964 137 l 944 12 q 773 -277 916 -163 z "},"ӆ":{"ha":886,"x_min":-54,"x_max":794,"o":"m 749 734 l 623 0 l 431 0 l 531 575 l 365 575 l 304 294 q 198 70 267 139 q 26 0 130 1 l -54 0 l -33 159 l 1 161 q 137 368 102 178 l 146 421 l 212 734 l 749 734 m 604 -277 l 503 -222 l 552 -143 q 608 -7 595 -71 l 633 137 l 794 137 l 774 12 q 604 -277 747 -163 z "},"Ӈ":{"ha":960,"x_min":16,"x_max":967,"o":"m 386 987 l 313 568 l 695 568 l 768 987 l 967 987 l 796 -18 q 700 -227 779 -153 q 502 -298 622 -300 q 398 -286 454 -297 l 424 -123 q 490 -134 461 -135 q 596 -11 575 -134 l 667 404 l 285 404 l 214 0 l 16 0 l 187 987 l 386 987 z "},"ӈ":{"ha":767,"x_min":0,"x_max":746,"o":"m 319 734 l 268 439 l 503 439 l 553 734 l 746 734 l 617 -23 q 526 -226 601 -153 q 332 -299 451 -299 q 231 -287 281 -298 l 253 -130 q 318 -140 288 -140 q 425 -15 404 -140 l 475 282 l 241 282 l 191 0 l 0 0 l 127 734 l 319 734 z "},"Ӊ":{"ha":1062,"x_min":14,"x_max":966,"o":"m 795 0 l 597 0 l 670 423 l 287 423 l 213 0 l 14 0 l 186 987 l 385 987 l 315 587 l 699 587 l 768 987 l 966 987 l 795 0 m 776 -277 l 675 -222 l 724 -143 q 780 -7 768 -71 l 805 137 l 966 137 l 947 12 q 776 -277 919 -163 z "},"ӊ":{"ha":884,"x_min":2,"x_max":792,"o":"m 621 0 l 428 0 l 477 282 l 243 282 l 193 0 l 2 0 l 130 734 l 321 734 l 269 439 l 505 439 l 555 734 l 748 734 l 621 0 m 602 -277 l 500 -222 l 550 -143 q 606 -7 593 -71 l 631 137 l 792 137 l 772 12 q 602 -277 745 -163 z "},"Ӎ":{"ha":1287,"x_min":14,"x_max":1195,"o":"m 441 987 l 562 273 l 930 987 l 1195 987 l 1023 0 l 824 0 l 873 281 l 969 721 l 591 0 l 454 0 l 322 746 l 258 260 l 213 0 l 14 0 l 186 987 l 441 987 m 1000 -277 l 899 -222 l 949 -143 q 1004 -7 992 -71 l 1029 137 l 1191 137 l 1171 12 q 1000 -277 1143 -163 z "},"ӎ":{"ha":1124,"x_min":14,"x_max":1033,"o":"m 472 233 l 745 734 l 989 734 l 861 0 l 669 0 l 745 435 l 505 0 l 376 0 l 285 451 l 206 0 l 14 0 l 142 734 l 375 734 l 472 233 m 842 -277 l 741 -222 l 791 -143 q 846 -7 834 -71 l 871 137 l 1033 137 l 1013 12 q 842 -277 985 -163 z "},"Ә":{"ha":943,"x_min":45,"x_max":918,"o":"m 504 1000 q 733 941 637 998 q 874 779 830 883 q 901 542 918 674 l 887 446 q 804 214 869 321 q 639 48 739 107 q 426 -14 539 -12 l 408 -14 q 201 47 285 -11 q 81 211 117 106 q 63 450 45 316 l 81 560 l 701 559 q 703 664 711 616 q 635 779 689 738 q 496 821 582 819 q 231 779 374 824 l 214 949 q 450 1000 290 996 l 504 1000 m 419 163 q 682 396 595 158 l 256 395 q 250 288 242 328 q 304 197 260 229 q 419 163 348 165 z "},"Ӡ":{"ha":785,"x_min":25,"x_max":824,"o":"m 564 821 l 167 823 l 196 987 l 824 987 l 800 843 l 518 585 q 675 481 621 563 q 720 281 729 399 q 661 123 714 192 q 520 19 608 55 q 330 -15 433 -17 q 109 66 193 -12 q 28 275 25 145 l 224 275 q 253 186 223 220 q 340 150 283 152 q 462 186 410 149 q 524 285 513 223 q 501 413 536 366 q 384 462 467 459 l 283 463 l 307 599 l 564 821 z "},"ӡ":{"ha":787,"x_min":-18,"x_max":774,"o":"m 520 574 l 120 575 l 148 734 l 774 734 l 751 595 l 468 330 q 627 227 572 309 q 672 28 681 144 q 613 -131 665 -63 q 474 -234 561 -198 q 286 -268 387 -270 q 65 -186 147 -265 q -15 20 -18 -107 l 175 20 q 205 -72 174 -37 q 295 -109 236 -106 q 419 -73 365 -111 q 483 30 473 -35 q 460 159 495 113 q 340 209 425 206 l 238 210 l 262 343 l 520 574 z "},"Ӻ":{"ha":816,"x_min":31,"x_max":873,"o":"m 844 823 l 415 823 l 272 0 l 73 0 l 245 987 l 873 987 l 844 823 m 492 452 l 31 452 l 54 576 l 515 576 l 492 452 m 477 175 l 446 -22 q 353 -227 428 -154 q 159 -298 277 -299 q 58 -286 114 -298 l 82 -128 q 146 -139 118 -139 q 252 -23 231 -139 l 285 175 l 477 175 z "},"ӻ":{"ha":625,"x_min":1,"x_max":669,"o":"m 642 575 l 347 575 l 247 0 l 56 0 l 183 734 l 669 734 l 642 575 m 462 332 l 1 332 l 23 456 l 484 456 l 462 332 m 431 171 l 399 -26 q 307 -231 382 -158 q 113 -302 231 -303 q 12 -290 68 -302 l 36 -132 q 100 -143 72 -143 q 206 -27 184 -143 l 239 171 l 431 171 z "},"Ӽ":{"ha":950,"x_min":-55,"x_max":932,"o":"m 460 648 l 693 987 l 932 987 l 569 488 l 774 0 l 554 0 l 425 345 l 186 0 l -55 0 l 316 507 l 117 987 l 334 987 l 460 648 m 893 175 l 862 -22 q 769 -227 844 -154 q 575 -298 694 -299 q 474 -286 530 -298 l 498 -128 q 563 -139 534 -139 q 669 -23 647 -139 l 701 175 l 893 175 z "},"ӽ":{"ha":783,"x_min":-56,"x_max":724,"o":"m 355 516 l 509 734 l 724 734 l 458 365 l 607 0 l 413 0 l 323 229 l 161 0 l -56 0 l 221 384 l 79 734 l 273 734 l 355 516 m 722 175 l 690 -22 q 597 -227 673 -154 q 404 -298 522 -299 q 302 -286 359 -298 l 327 -128 q 391 -139 363 -139 q 497 -23 475 -139 l 530 175 l 722 175 z "},"Ԁ":{"ha":850,"x_min":28,"x_max":871,"o":"m 612 651 l 671 987 l 871 987 l 699 0 l 355 1 q 178 45 255 3 q 65 158 102 86 q 36 321 28 229 q 98 494 43 419 q 244 610 153 569 q 444 652 336 652 l 612 651 m 528 163 l 585 486 l 438 488 q 303 441 358 486 q 236 322 248 396 q 260 210 226 253 q 359 164 294 167 l 528 163 z "},"Ԃ":{"ha":1229,"x_min":56,"x_max":1168,"o":"m 382 1 q 208 44 283 3 q 94 157 132 85 q 64 321 56 229 q 127 495 72 419 q 272 611 182 570 q 470 652 363 652 l 640 651 l 699 987 l 898 987 l 751 162 l 790 162 q 921 245 871 165 q 975 486 970 326 q 960 624 976 564 l 1147 623 q 1163 486 1162 556 q 1063 126 1168 253 q 783 0 959 -1 l 382 1 m 556 163 l 612 486 l 465 488 q 329 440 384 486 q 263 322 273 394 q 286 211 252 256 q 387 164 320 167 l 556 163 z "},"ԃ":{"ha":1157,"x_min":46,"x_max":1104,"o":"m 52 357 q 113 570 66 477 q 228 706 159 662 q 381 747 296 749 q 536 667 479 745 l 611 1058 l 802 1058 l 665 254 l 665 218 q 681 166 666 186 q 723 145 696 147 q 858 232 806 140 q 914 498 911 325 q 902 634 916 566 l 1084 633 q 1097 498 1095 565 q 996 125 1104 267 q 710 -15 888 -16 q 565 19 621 -13 q 491 109 510 50 q 280 -16 399 -18 q 114 60 175 -14 q 48 260 53 134 q 52 357 46 299 m 521 533 q 420 589 488 587 q 303 531 351 591 q 242 359 256 471 l 237 304 l 237 283 q 334 144 237 147 q 466 204 407 142 l 470 246 l 521 533 z "},"Ԅ":{"ha":1068,"x_min":114,"x_max":1004,"o":"m 399 263 q 304 401 409 394 l 132 403 l 161 570 l 272 569 q 478 711 456 569 q 374 819 492 806 l 352 820 l 114 821 l 143 987 l 342 987 q 598 914 511 986 q 678 711 686 842 q 618 572 673 629 q 451 475 563 514 q 566 398 528 453 q 596 262 604 342 l 591 216 q 630 151 588 156 q 757 239 708 143 q 809 498 806 335 q 796 634 810 566 l 985 633 q 998 498 996 565 q 957 228 1004 345 q 816 47 909 112 q 606 -15 724 -17 q 445 47 501 -14 q 394 216 389 109 l 399 263 z "},"ԅ":{"ha":873,"x_min":62,"x_max":841,"o":"m 481 173 l 481 151 q 515 110 481 117 q 638 249 607 117 q 652 396 655 322 q 635 503 650 450 l 816 501 q 834 395 827 448 q 834 288 841 342 q 781 127 824 199 q 670 18 738 56 q 517 -19 602 -20 q 343 23 402 -19 q 288 146 284 66 l 294 197 q 242 263 300 258 l 62 264 l 87 414 l 196 413 q 323 494 308 416 q 310 552 331 531 q 247 574 290 573 l 62 575 l 86 734 l 237 733 q 450 676 375 732 q 519 520 525 620 q 486 429 516 468 q 384 355 456 389 q 484 206 491 321 l 481 173 z "},"Ԇ":{"ha":795,"x_min":82,"x_max":712,"o":"m 82 391 l 109 549 l 256 549 q 391 585 339 549 q 452 690 443 622 q 429 790 462 755 q 332 828 396 825 l 119 829 l 143 987 l 320 987 q 567 909 479 986 q 645 700 654 832 q 593 567 639 623 q 452 469 547 511 q 549 380 520 441 q 570 239 578 319 l 560 170 l 712 170 l 692 44 q 522 -243 663 -131 l 421 -190 l 465 -118 q 524 0 507 -48 l 393 -1 q 364 127 357 42 l 367 159 l 378 239 q 379 297 382 269 q 269 390 366 386 l 82 391 z "},"ԇ":{"ha":760,"x_min":82,"x_max":687,"o":"m 82 260 l 105 397 l 260 397 q 357 422 320 399 q 402 487 393 446 q 386 549 409 525 q 315 576 363 572 l 106 576 l 128 734 l 317 733 q 525 668 448 730 q 596 503 602 607 q 561 406 593 448 q 463 329 529 363 q 530 258 513 303 q 540 160 547 214 l 687 161 l 667 35 q 496 -253 638 -140 l 395 -197 l 451 -108 q 502 0 483 -56 l 357 -1 q 345 52 346 20 q 349 106 345 66 l 355 157 q 264 259 366 255 l 82 260 z "},"Ԉ":{"ha":1307,"x_min":-29,"x_max":1271,"o":"m 734 821 l 500 821 l 428 489 l 407 390 q 271 94 360 185 q 45 0 182 2 l -29 0 l -5 163 l 18 165 q 156 247 102 172 q 237 484 209 322 l 249 555 l 338 987 l 962 987 l 838 256 l 837 222 q 893 151 840 155 q 1017 225 968 146 q 1074 456 1065 303 l 1076 498 q 1063 634 1077 566 l 1253 633 q 1266 498 1263 565 q 1223 226 1271 343 q 1085 45 1176 109 q 879 -16 994 -18 q 692 59 756 -13 q 640 257 627 131 l 734 821 z "},"ԉ":{"ha":1148,"x_min":-28,"x_max":1084,"o":"m 534 573 l 392 573 l 345 361 q 234 79 308 161 q 43 0 160 -3 l -28 0 l -7 159 l 23 161 q 160 349 125 174 l 174 420 l 239 734 l 753 734 l 672 254 q 672 216 670 235 q 741 144 680 146 q 846 215 806 142 q 892 428 886 289 l 894 463 q 880 591 894 528 l 1061 590 q 1076 463 1072 526 q 1041 214 1084 324 q 916 43 998 103 q 728 -15 833 -17 q 536 58 603 -14 q 481 254 469 129 l 534 573 z "},"Ԋ":{"ha":1346,"x_min":14,"x_max":1272,"o":"m 963 987 l 840 256 l 838 222 q 893 152 841 155 q 1019 229 970 146 q 1076 470 1069 311 l 1078 498 q 1065 634 1078 566 l 1254 633 q 1267 498 1265 565 q 1225 226 1272 342 q 1087 46 1177 110 q 879 -16 996 -18 q 695 59 760 -14 q 640 257 631 132 l 663 404 l 283 404 l 213 0 l 14 0 l 185 987 l 385 987 l 311 568 l 691 568 l 764 987 l 963 987 z "},"ԋ":{"ha":1118,"x_min":-10,"x_max":1074,"o":"m 481 290 l 233 289 l 182 0 l -10 0 l 117 734 l 310 734 l 260 448 l 502 448 l 551 734 l 743 734 l 662 254 q 662 216 660 235 q 730 144 669 146 q 822 193 785 142 q 873 334 860 243 q 884 463 884 399 q 871 591 884 528 l 1052 590 q 1066 463 1063 526 q 1031 216 1074 328 q 907 44 989 104 q 718 -16 825 -16 q 527 59 595 -14 q 474 254 460 132 l 481 290 z "},"Ԍ":{"ha":860,"x_min":36,"x_max":814,"o":"m 406 -14 q 206 43 292 -12 q 78 195 119 98 q 50 405 36 292 l 79 587 q 165 804 98 707 q 333 951 232 900 q 553 1002 434 1003 q 791 940 690 1000 l 734 789 q 547 837 653 836 q 370 766 445 838 q 277 575 296 693 l 250 404 q 250 315 243 359 q 302 197 258 241 q 416 151 347 153 q 541 192 488 149 q 606 307 593 235 q 614 419 616 363 q 603 535 612 477 l 793 534 l 804 419 q 766 186 814 283 q 622 36 718 89 q 406 -14 526 -16 z "},"ԍ":{"ha":720,"x_min":32,"x_max":664,"o":"m 365 145 q 448 178 420 144 q 474 296 475 212 l 469 366 l 651 365 l 658 296 q 625 123 664 192 q 515 19 587 54 q 352 -15 444 -17 q 117 92 202 -11 q 46 351 32 195 l 49 380 q 115 570 61 485 q 254 702 169 655 q 441 749 340 749 q 626 705 551 747 l 585 547 q 434 590 522 589 q 306 531 359 590 q 239 371 253 471 l 236 351 q 236 281 232 317 q 277 182 243 218 q 365 145 311 145 z "},"Ԏ":{"ha":957,"x_min":92,"x_max":911,"o":"m 374 821 l 92 821 l 121 987 l 880 987 l 850 821 l 573 821 l 478 256 l 477 222 q 533 152 480 155 q 664 238 614 146 q 716 498 713 330 q 705 634 718 566 l 892 633 q 906 498 903 565 q 864 229 911 347 q 726 46 817 111 q 519 -16 635 -18 q 334 59 398 -14 q 280 257 271 132 l 374 821 z "},"ԏ":{"ha":865,"x_min":72,"x_max":806,"o":"m 267 575 l 72 575 l 100 734 l 698 734 l 670 575 l 458 575 l 405 254 q 405 216 403 235 q 425 165 407 185 q 472 145 443 146 q 583 213 542 142 q 615 391 624 283 q 596 486 611 439 l 776 485 q 798 293 806 368 q 689 69 783 155 q 460 -15 595 -16 q 272 57 339 -15 q 214 254 205 129 l 267 575 z "},"Ԑ":{"ha":890,"x_min":43,"x_max":885,"o":"m 471 425 q 315 386 372 425 q 249 274 259 347 q 288 183 241 217 q 415 148 334 150 q 547 181 492 146 q 613 274 602 215 l 812 275 q 756 123 807 189 q 611 21 705 57 q 408 -14 518 -16 q 210 26 296 -12 q 84 127 124 64 q 49 271 43 190 q 264 511 58 441 q 172 599 204 547 q 142 713 139 652 q 249 917 148 841 q 515 1001 349 993 l 555 1002 q 726 964 649 1000 q 844 865 802 928 q 885 720 885 802 l 688 720 q 652 803 689 771 q 548 836 614 835 q 406 804 464 838 q 338 711 348 770 q 362 620 328 652 q 471 584 397 587 l 618 583 l 591 424 l 471 425 z "},"Ԓ":{"ha":1102,"x_min":-45,"x_max":1013,"o":"m 966 987 l 795 0 l 595 0 l 738 823 l 485 823 l 391 388 q 257 94 344 184 q 38 0 171 3 l -45 0 l -21 163 l 9 166 q 142 250 90 176 q 221 484 195 324 l 233 555 l 322 987 l 966 987 m 1013 175 l 981 -22 q 888 -227 964 -154 q 694 -298 813 -299 q 593 -286 650 -298 l 618 -128 q 682 -139 654 -139 q 788 -23 766 -139 l 821 175 l 1013 175 z "},"ԓ":{"ha":928,"x_min":-54,"x_max":843,"o":"m 749 734 l 623 0 l 431 0 l 531 575 l 365 575 l 304 294 q 198 70 267 139 q 26 0 130 1 l -54 0 l -33 159 l 1 161 q 137 368 102 178 l 146 421 l 212 734 l 749 734 m 843 175 l 812 -22 q 719 -227 794 -154 q 525 -298 644 -299 q 424 -286 480 -298 l 448 -128 q 513 -139 484 -139 q 618 -23 597 -139 l 651 175 l 843 175 z "}," ":{"ha":694,"x_min":0,"x_max":0,"o":""}," ":{"ha":1381,"x_min":0,"x_max":0,"o":""}," ":{"ha":694,"x_min":0,"x_max":0,"o":""}," ":{"ha":1381,"x_min":0,"x_max":0,"o":""}," ":{"ha":465,"x_min":0,"x_max":0,"o":""}," ":{"ha":350,"x_min":0,"x_max":0,"o":""}," ":{"ha":236,"x_min":0,"x_max":0,"o":""}," ":{"ha":764,"x_min":0,"x_max":0,"o":""}," ":{"ha":375,"x_min":0,"x_max":0,"o":""}," ":{"ha":281,"x_min":0,"x_max":0,"o":""}," ":{"ha":144,"x_min":0,"x_max":0,"o":""},"​":{"ha":0,"x_min":0,"x_max":0,"o":""},"‐":{"ha":530,"x_min":61,"x_max":460,"o":"m 433 344 l 61 344 l 88 502 l 460 502 l 433 344 z "},"‑":{"ha":530,"x_min":61,"x_max":460,"o":"m 433 344 l 61 344 l 88 502 l 460 502 l 433 344 z "},"–":{"ha":858,"x_min":99,"x_max":816,"o":"m 782 404 l 99 404 l 133 564 l 816 564 l 782 404 z "},"—":{"ha":1035,"x_min":71,"x_max":1026,"o":"m 981 404 l 70 404 l 115 564 l 1026 564 l 981 404 z "},"‗":{"ha":608,"x_min":-119,"x_max":530,"o":"m 481 -282 l -119 -282 l -101 -178 l 500 -178 l 481 -282 m 512 -104 l -89 -104 l -70 0 l 530 0 l 512 -104 z "},"‘":{"ha":322,"x_min":121,"x_max":381,"o":"m 290 1065 l 381 1009 q 326 916 350 963 q 290 813 301 869 l 273 711 l 121 711 l 134 800 q 290 1065 159 958 z "},"’":{"ha":316,"x_min":96,"x_max":359,"o":"m 193 683 l 96 740 q 184 916 166 840 l 206 1042 l 359 1042 l 343 941 q 193 683 320 791 z "},"‚":{"ha":341,"x_min":-52,"x_max":210,"o":"m 39 -207 l -52 -151 q 30 26 13 -54 l 53 155 l 210 155 l 195 58 q 39 -207 171 -99 z "},"‛":{"ha":288,"x_min":136,"x_max":321,"o":"m 313 1042 l 295 935 q 292 833 287 883 q 321 735 298 784 l 233 684 q 160 804 184 736 q 144 937 136 871 l 160 1042 l 313 1042 z "},"“":{"ha":553,"x_min":126,"x_max":612,"o":"m 296 1065 l 387 1009 q 331 916 355 963 q 296 813 307 869 l 278 711 l 126 711 l 140 800 q 296 1065 164 958 m 521 1065 l 612 1009 q 556 916 581 963 q 521 813 532 869 l 503 711 l 351 711 l 365 800 q 521 1065 389 958 z "},"”":{"ha":557,"x_min":106,"x_max":596,"o":"m 203 683 l 106 740 q 193 916 176 840 l 216 1042 l 368 1042 l 353 941 q 203 683 330 791 m 431 683 l 334 740 q 421 916 404 840 l 444 1042 l 596 1042 l 581 941 q 431 683 557 791 z "},"„":{"ha":549,"x_min":-54,"x_max":440,"o":"m 41 -220 l -54 -165 q 30 26 11 -65 l 57 178 l 214 178 l 193 49 q 41 -220 167 -113 m 262 -220 l 166 -165 q 256 24 237 -56 l 283 178 l 440 178 l 422 58 q 262 -220 396 -107 z "},"†":{"ha":732,"x_min":62,"x_max":741,"o":"m 715 570 l 483 570 l 394 0 l 202 0 l 292 570 l 62 570 l 88 734 l 317 734 l 357 987 l 548 987 l 508 734 l 741 734 l 715 570 z "},"‡":{"ha":786,"x_min":0,"x_max":767,"o":"m 652 0 l 420 0 l 376 -282 l 184 -282 l 228 0 l 0 0 l 25 158 l 252 158 l 318 575 l 90 575 l 115 734 l 342 734 l 382 987 l 574 987 l 534 734 l 767 734 l 742 575 l 510 575 l 445 158 l 677 158 l 652 0 z "},"•":{"ha":491,"x_min":106,"x_max":418,"o":"m 271 676 q 378 633 338 675 q 418 522 418 591 l 418 494 q 368 380 414 423 q 254 338 322 336 q 146 382 186 339 q 106 488 106 425 l 106 511 q 153 630 109 585 q 271 676 198 676 z "},"‥":{"ha":709,"x_min":33,"x_max":563,"o":"m 140 202 q 218 174 186 203 q 250 100 250 144 q 220 23 252 55 q 144 -8 189 -8 q 67 19 98 -9 q 35 93 36 47 q 64 170 33 138 q 140 202 94 201 m 452 202 q 529 174 497 203 q 562 100 562 144 q 532 23 563 55 q 455 -8 500 -8 q 378 19 410 -9 q 346 93 347 47 q 375 170 345 138 q 452 202 406 201 z "},"…":{"ha":1004,"x_min":33,"x_max":868,"o":"m 140 202 q 218 174 186 203 q 250 100 250 144 q 220 23 252 55 q 144 -8 189 -8 q 67 19 98 -9 q 35 93 36 47 q 64 170 33 138 q 140 202 94 201 m 452 202 q 529 174 497 203 q 562 100 562 144 q 532 23 563 55 q 455 -8 500 -8 q 378 19 410 -9 q 346 93 347 47 q 375 170 345 138 q 452 202 406 201 m 757 202 q 834 174 802 203 q 867 100 867 144 q 837 23 868 55 q 760 -8 806 -8 q 684 19 715 -9 q 651 93 652 47 q 680 170 650 138 q 757 202 711 201 z "},"‧":{"ha":353,"x_min":68,"x_max":283,"o":"m 69 420 q 76 463 68 444 q 98 496 84 482 q 132 518 113 510 q 174 526 152 526 q 216 519 197 526 q 250 500 235 513 q 274 468 265 487 q 283 427 282 450 q 276 385 283 404 q 254 352 268 366 q 220 330 239 338 q 178 322 200 322 q 136 328 156 321 q 102 348 117 335 q 79 379 87 361 q 69 420 70 398 z "},"‰":{"ha":1299,"x_min":116,"x_max":1226,"o":"m 504 241 q 576 390 512 331 q 734 447 641 448 q 877 375 833 444 q 1034 446 946 447 q 1173 388 1120 444 q 1222 242 1226 331 l 1218 189 q 1144 40 1208 97 q 988 -15 1080 -16 q 846 57 888 -12 q 690 -14 775 -15 q 550 45 603 -12 q 500 189 496 102 l 504 241 m 123 797 q 193 944 132 886 q 341 1002 254 1003 q 482 942 429 999 q 532 797 536 886 l 527 739 q 453 595 517 651 q 300 542 389 539 q 167 601 218 543 q 120 745 116 659 l 123 797 m 262 75 l 168 133 l 764 895 l 857 839 l 262 75 m 628 188 q 642 124 625 149 q 691 98 659 100 q 755 121 730 97 q 788 189 781 146 l 795 243 q 782 309 799 286 q 732 333 765 332 q 670 309 697 334 q 635 242 642 283 l 628 188 m 927 188 q 941 124 924 149 q 990 98 958 100 q 1055 121 1029 97 q 1088 189 1080 145 l 1095 243 q 1082 308 1099 283 q 1032 333 1065 332 q 968 308 996 334 q 934 238 940 281 l 927 188 m 237 744 q 251 679 234 703 q 301 654 267 655 q 362 677 336 652 q 397 745 389 702 l 405 798 q 392 863 408 839 q 342 888 375 887 q 278 864 304 890 q 244 797 252 838 l 237 744 z "},"‹":{"ha":427,"x_min":61,"x_max":423,"o":"m 209 345 l 319 85 l 205 85 l 61 348 l 62 362 l 286 627 l 423 627 l 209 345 z "},"›":{"ha":413,"x_min":-10,"x_max":352,"o":"m 208 626 l 352 363 l 351 349 l 127 84 l -10 84 l 203 366 l 94 625 l 208 626 z "},"⁄":{"ha":608,"x_min":-31,"x_max":658,"o":"m 64 75 l -31 133 l 565 895 l 658 839 l 64 75 z "},"⁴":{"ha":509,"x_min":69,"x_max":511,"o":"m 446 672 l 511 673 l 490 560 l 433 560 l 413 452 l 277 452 l 296 560 l 69 560 l 79 662 l 363 987 l 500 988 l 446 672 m 214 675 l 317 673 l 347 819 l 335 802 l 214 675 z "},"ⁿ":{"ha":570,"x_min":63,"x_max":579,"o":"m 265 987 l 266 902 q 419 994 330 994 q 539 939 498 994 q 571 786 579 883 l 515 443 l 375 443 l 424 743 l 427 783 l 427 800 q 369 870 424 869 q 271 817 313 872 l 204 443 l 63 443 l 157 986 l 265 987 z "},"₤":{"ha":807,"x_min":-4,"x_max":820,"o":"m 538 317 l 366 318 l 362 296 q 289 161 345 216 l 723 163 l 694 0 l -4 0 l 25 163 l 77 161 q 128 201 108 173 q 159 285 149 230 l 165 318 l 51 317 l 70 425 l 174 425 l 184 500 l 83 500 l 102 608 l 199 608 l 210 699 q 318 921 225 838 q 547 1001 410 1004 q 748 922 675 998 q 817 717 820 846 l 627 718 q 535 838 631 835 q 453 803 487 839 q 409 705 419 767 l 397 608 l 589 608 l 570 500 l 384 500 l 373 425 l 557 425 l 538 317 z "},"₦":{"ha":1103,"x_min":12,"x_max":1118,"o":"m 983 669 l 1118 669 l 1099 561 l 964 561 l 945 451 l 1080 451 l 1061 342 l 926 342 l 867 0 l 674 0 l 531 342 l 345 342 l 286 0 l 86 0 l 146 342 l 12 342 l 32 451 l 164 451 l 184 561 l 50 561 l 69 669 l 202 669 l 258 987 l 450 987 l 583 669 l 784 669 l 840 987 l 1038 987 l 983 669 m 673 451 l 746 451 l 766 561 l 628 561 l 673 451 m 363 451 l 486 451 l 440 561 l 383 561 l 363 451 m 728 328 l 730 348 l 725 345 l 728 328 z "},"₧":{"ha":1165,"x_min":22,"x_max":1135,"o":"m 1110 590 l 989 590 l 926 222 l 925 192 q 978 150 927 152 q 1036 153 993 149 l 1022 3 q 913 -12 971 -14 q 773 46 821 -11 q 734 203 726 104 l 798 590 l 741 590 q 364 349 640 351 l 284 350 l 223 0 l 22 0 l 193 987 l 450 987 q 670 914 587 983 q 753 733 754 845 l 823 734 l 854 914 l 1046 914 l 1014 734 l 1135 734 l 1110 590 m 313 520 l 370 519 q 493 562 444 520 q 553 677 541 603 q 535 775 562 739 q 444 816 508 812 l 365 817 l 313 520 z "},"₨":{"ha":1468,"x_min":14,"x_max":1430,"o":"m 437 361 l 276 361 l 213 0 l 14 0 l 186 987 l 513 987 q 765 909 677 987 q 844 694 854 832 q 627 412 829 491 l 766 11 l 766 0 l 554 0 l 437 361 m 304 526 l 452 525 q 582 567 531 526 q 644 679 633 608 q 623 782 653 745 q 526 822 592 819 l 356 823 l 304 526 m 1196 207 q 1120 286 1206 261 l 1059 301 q 846 514 840 361 q 938 683 849 618 q 1151 747 1026 749 q 1352 682 1275 746 q 1430 510 1428 617 l 1240 511 q 1146 606 1241 605 q 1068 584 1101 606 q 1028 524 1036 562 q 1110 447 1018 469 l 1137 441 q 1280 390 1231 418 q 1357 318 1330 361 q 1381 216 1383 275 q 1336 94 1379 146 q 1218 13 1293 41 q 1061 -14 1143 -16 q 857 57 939 -12 q 774 235 776 125 l 955 233 q 1067 127 958 128 q 1155 149 1120 127 q 1196 207 1189 170 z "},"₩":{"ha":1094,"x_min":36,"x_max":1130,"o":"m 720 785 l 847 785 l 909 987 l 1112 987 l 1038 785 l 1130 785 l 1111 677 l 999 677 l 966 587 l 1095 587 l 1076 479 l 928 479 l 754 0 l 553 0 l 566 480 l 549 480 l 393 0 l 193 0 l 184 479 l 36 479 l 55 587 l 182 587 l 182 677 l 71 677 l 90 785 l 180 785 l 177 987 l 371 987 l 363 785 l 492 785 l 555 987 l 727 987 l 720 785 m 355 587 l 429 587 l 458 677 l 359 677 l 355 587 m 713 587 l 786 587 l 814 677 l 718 677 l 713 587 m 346 321 l 400 481 l 357 481 l 346 321 m 705 326 l 758 481 l 715 481 l 705 326 z "},"₪":{"ha":1177,"x_min":2,"x_max":1154,"o":"m 608 733 q 821 455 850 726 l 787 247 l 595 247 l 629 456 q 631 507 633 485 q 544 574 625 570 l 293 575 l 193 0 l 2 0 l 130 734 l 608 733 m 284 0 l 369 488 l 560 488 l 503 158 l 730 157 q 834 183 796 156 q 884 277 873 210 l 962 734 l 1154 734 l 1078 278 q 949 75 1061 149 q 665 0 838 0 l 284 0 z "},"€":{"ha":780,"x_min":47,"x_max":814,"o":"m 579 350 l 363 350 q 362 269 357 305 q 410 182 370 213 q 516 151 450 152 q 647 172 573 150 l 655 5 q 490 -12 566 -14 q 305 37 385 -11 q 188 166 224 84 q 166 351 151 249 l 47 350 l 66 453 l 177 453 l 192 537 l 81 537 l 99 640 l 203 640 q 369 910 253 818 q 652 1001 484 1002 q 814 979 720 1000 l 774 814 q 656 838 715 837 q 404 640 469 841 l 629 640 l 611 537 l 391 537 l 376 453 l 597 453 l 579 350 z "},"₱":{"ha":1015,"x_min":45,"x_max":1053,"o":"m 324 348 l 264 0 l 64 0 l 157 532 l 45 532 l 66 641 l 172 639 l 186 685 l 71 683 l 91 791 l 201 791 l 236 987 l 585 987 q 796 935 712 987 q 903 791 880 883 l 1053 791 l 1031 683 l 922 686 l 915 661 l 905 638 l 1027 641 l 1006 532 l 878 532 q 512 347 763 347 l 324 348 m 714 660 l 722 685 l 385 685 l 372 639 l 705 638 l 714 660 m 399 789 l 679 793 q 593 823 654 819 l 408 825 l 399 789 m 626 534 l 358 536 l 350 509 l 515 512 q 626 534 571 513 z "},"₹":{"ha":718,"x_min":40,"x_max":789,"o":"m 730 852 l 592 853 q 603 739 608 792 l 746 739 l 687 606 l 595 605 q 483 440 557 498 q 284 359 409 382 l 512 12 l 513 0 l 298 0 l 40 394 l 58 504 l 206 503 q 389 607 323 504 l 57 605 l 115 739 l 401 739 q 285 822 390 819 l 95 823 l 162 987 l 789 987 l 730 852 z "},"₺":{"ha":807,"x_min":18,"x_max":764,"o":"m 764 517 l 762 493 q 609 126 743 268 q 281 -16 475 -16 q 82 0 186 -16 l 149 419 l 18 378 l 45 531 l 176 572 l 189 645 l 58 604 l 85 757 l 214 798 l 248 987 l 446 987 l 424 865 l 561 909 l 534 756 l 398 713 l 385 640 l 522 683 l 495 531 l 358 487 l 298 151 q 477 243 408 156 q 562 490 546 331 l 565 517 l 764 517 z "},"₼":{"ha":926,"x_min":-26,"x_max":829,"o":"m 581 585 q 759 454 694 552 q 828 212 825 355 q 823 113 829 162 l 805 0 l 613 0 l 634 129 l 640 195 q 625 327 645 268 q 562 415 606 385 l 485 0 l 293 0 l 372 418 q 185 119 221 336 l 165 0 l -26 0 l -1 148 q 137 443 35 328 q 390 587 239 558 l 421 734 l 612 734 l 581 585 z "},"₽":{"ha":957,"x_min":-15,"x_max":956,"o":"m 527 132 l 318 132 l 294 0 l 96 0 l 119 132 l -15 132 l 14 296 l 147 296 l 157 348 l 22 348 l 52 513 l 185 513 l 267 987 l 612 987 q 864 899 772 987 q 945 669 956 812 q 824 435 935 523 q 542 347 713 347 l 355 348 l 346 296 l 555 296 l 527 132 m 384 513 l 543 511 q 680 552 626 511 q 745 668 733 593 q 722 777 754 734 q 624 821 690 819 l 437 822 l 384 513 z "},"℅":{"ha":996,"x_min":124,"x_max":914,"o":"m 508 723 q 449 591 504 642 q 307 542 395 541 q 174 600 224 543 q 128 745 124 656 l 132 789 q 199 946 139 888 q 347 1003 259 1004 q 480 951 429 1002 q 532 819 530 901 l 406 819 q 349 890 406 888 q 293 865 316 891 q 262 798 269 838 l 255 744 l 254 715 q 303 655 257 655 q 353 674 333 655 q 380 722 372 692 l 508 723 m 718 445 q 861 387 807 444 q 909 242 914 330 l 905 197 q 834 41 898 98 q 677 -14 770 -17 q 536 44 591 -13 q 487 189 481 100 l 490 235 q 561 389 498 331 q 718 445 623 446 m 613 188 q 627 125 610 151 q 677 98 645 100 q 741 119 715 96 q 774 189 766 143 l 781 243 q 769 307 786 282 q 719 333 753 332 q 655 310 682 334 q 621 242 629 285 l 613 188 m 252 75 l 158 133 l 753 895 l 846 839 l 252 75 z "},"ℓ":{"ha":672,"x_min":13,"x_max":687,"o":"m 426 -16 q 255 29 328 -11 q 151 136 182 68 q 135 290 119 203 l 138 305 q 13 292 95 296 l 24 420 q 149 431 87 420 l 199 707 q 295 938 220 856 q 484 1016 370 1019 q 632 949 578 1013 q 681 783 687 884 l 677 745 q 578 538 665 638 q 348 369 491 438 q 336 268 334 299 q 444 172 340 177 l 426 -16 m 366 529 q 505 753 485 634 l 509 783 l 510 804 q 476 853 510 850 q 405 739 422 857 l 366 529 z "},"№":{"ha":1373,"x_min":13,"x_max":1365,"o":"m 1244 283 l 850 283 l 868 382 l 1262 382 l 1244 283 m 900 749 q 979 929 909 859 q 1155 999 1050 1000 q 1310 927 1255 996 q 1358 754 1365 857 l 1354 708 q 1272 530 1343 598 q 1100 464 1200 461 q 948 533 1004 465 q 897 703 891 600 l 900 749 m 1013 707 q 1030 603 1008 640 q 1100 564 1053 565 q 1193 604 1154 562 q 1238 710 1231 646 l 1242 755 q 1225 858 1248 820 q 1154 899 1202 897 q 1063 859 1101 900 q 1018 749 1026 818 l 1013 707 m 692 0 l 487 0 l 319 650 l 206 0 l 13 0 l 184 987 l 390 987 l 558 336 l 672 987 l 864 987 l 692 0 z "},"™":{"ha":857,"x_min":163,"x_max":854,"o":"m 744 842 l 639 621 l 591 619 l 556 867 l 513 620 l 427 620 l 491 987 l 593 987 l 625 741 l 751 987 l 854 987 l 790 620 l 705 620 l 744 842 m 433 914 l 348 914 l 297 622 l 202 622 l 253 914 l 163 914 l 176 987 l 446 987 l 433 914 z "},"℮":{"ha":859,"x_min":84,"x_max":774,"o":"m 637 62 q 387 -13 519 -16 q 226 40 296 -12 q 120 179 155 92 q 93 361 84 266 q 162 554 101 460 q 309 699 222 648 q 489 747 396 750 q 643 696 578 745 q 741 564 708 648 q 768 382 774 479 l 765 349 l 256 349 l 214 125 q 372 52 275 55 q 635 134 486 48 l 637 62 m 503 684 q 302 602 410 686 l 267 413 l 621 413 l 657 608 q 588 663 629 644 q 503 684 548 682 z "},"⅛":{"ha":1062,"x_min":127,"x_max":975,"o":"m 328 438 l 192 438 l 256 806 l 127 779 l 147 893 l 397 971 l 414 972 l 328 438 m 244 75 l 150 133 l 745 895 l 838 839 l 244 75 m 973 396 q 882 271 971 321 q 946 153 949 229 q 885 34 945 77 q 733 -8 826 -9 q 590 35 642 -6 q 540 142 538 75 q 646 279 542 227 q 590 386 589 319 q 647 500 591 458 q 791 543 702 543 q 924 502 874 542 q 973 396 975 463 m 813 165 q 801 203 817 190 q 758 216 785 216 q 706 202 730 216 q 676 157 682 187 q 687 118 671 133 q 730 104 703 104 q 783 120 758 104 q 813 165 808 136 m 839 385 q 795 431 846 431 q 750 417 770 431 q 726 377 730 403 q 734 342 722 355 q 769 329 747 329 q 814 344 795 329 q 839 385 834 359 z "},"⅜":{"ha":1167,"x_min":80,"x_max":1077,"o":"m 252 766 l 307 766 q 369 784 344 768 q 399 831 393 801 q 387 866 403 854 q 347 879 372 879 q 274 838 293 879 l 133 838 q 194 951 138 909 q 338 991 250 992 q 483 949 430 989 q 534 842 536 909 q 427 718 532 762 q 486 674 467 705 q 505 602 506 643 q 439 483 504 527 q 277 440 374 438 q 135 487 189 441 q 80 609 81 532 l 212 608 q 281 553 217 553 q 342 570 317 553 q 373 616 367 587 q 309 673 384 670 l 245 673 l 252 766 m 345 75 l 250 133 l 846 895 l 939 839 l 345 75 m 1076 396 q 984 271 1074 321 q 1048 153 1051 229 q 988 34 1047 77 q 836 -8 928 -9 q 692 35 744 -6 q 642 142 640 75 q 749 279 644 227 q 692 386 691 319 q 749 500 694 458 q 894 543 804 543 q 1027 502 977 542 q 1076 396 1077 463 m 916 165 q 903 203 919 190 q 861 216 888 216 q 808 202 832 216 q 779 157 784 187 q 789 118 774 133 q 832 104 805 104 q 885 120 861 104 q 916 165 910 136 m 941 385 q 897 431 948 431 q 852 417 872 431 q 828 377 833 403 q 837 342 824 355 q 871 329 850 329 q 917 344 897 329 q 941 385 937 359 z "},"⅝":{"ha":1155,"x_min":89,"x_max":1065,"o":"m 119 711 l 203 985 l 536 985 l 517 875 l 298 876 l 260 781 q 342 800 295 799 q 461 758 417 802 q 504 634 505 713 q 438 494 501 548 q 286 441 376 440 q 148 488 203 443 q 89 603 92 534 l 221 602 q 238 563 223 573 q 282 553 254 553 q 341 577 319 555 q 370 635 364 599 q 359 686 374 667 q 311 705 345 705 q 235 682 273 707 l 119 711 m 332 75 l 237 133 l 833 895 l 926 839 l 332 75 m 1063 396 q 972 271 1061 321 q 1036 153 1039 229 q 976 34 1035 77 q 823 -8 916 -9 q 680 35 732 -6 q 630 142 628 75 q 736 279 632 227 q 680 386 679 319 q 737 500 682 458 q 882 543 792 543 q 1015 502 964 542 q 1063 396 1065 463 m 903 165 q 891 203 907 190 q 848 216 876 216 q 796 202 820 216 q 766 157 772 187 q 777 118 762 133 q 820 104 793 104 q 873 120 848 104 q 903 165 898 136 m 929 385 q 885 431 936 431 q 840 417 860 431 q 816 377 821 403 q 825 342 812 355 q 859 329 838 329 q 905 344 885 329 q 929 385 924 359 z "},"⅞":{"ha":1164,"x_min":120,"x_max":1029,"o":"m 565 890 l 275 444 l 120 444 l 415 865 l 138 866 l 159 979 l 580 979 l 565 890 m 279 75 l 185 133 l 781 895 l 873 839 l 279 75 m 1027 396 q 936 271 1025 321 q 1000 153 1003 229 q 940 34 999 77 q 787 -8 880 -9 q 644 35 696 -6 q 594 142 592 75 q 701 279 596 227 q 644 386 643 319 q 701 500 646 458 q 846 543 756 543 q 979 502 928 542 q 1027 396 1029 463 m 867 165 q 855 203 871 190 q 812 216 840 216 q 760 202 784 216 q 730 157 736 187 q 741 118 726 133 q 784 104 757 104 q 837 120 812 104 q 867 165 862 136 m 893 385 q 849 431 900 431 q 804 417 824 431 q 780 377 785 403 q 789 342 776 355 q 823 329 802 329 q 869 344 849 329 q 893 385 888 359 z "},"∂":{"ha":778,"x_min":41,"x_max":758,"o":"m 411 703 q 589 624 517 701 q 554 807 596 734 q 431 883 511 880 q 264 850 361 885 l 245 992 q 452 1042 347 1044 q 623 987 552 1041 q 725 833 693 934 q 755 603 758 732 q 696 272 751 413 q 550 57 642 132 q 338 -15 458 -18 q 174 34 242 -12 q 73 161 105 79 q 51 344 41 242 l 52 359 q 113 540 64 460 q 239 663 161 620 q 411 703 317 706 m 426 545 q 303 494 353 547 q 243 348 254 440 q 239 269 238 301 q 269 178 241 211 q 349 143 297 145 q 469 199 420 140 q 538 376 519 258 l 551 455 q 504 521 537 498 q 426 545 471 544 z "},"∏":{"ha":940,"x_min":17,"x_max":922,"o":"m 741 -172 l 549 -172 l 706 833 l 366 833 l 209 -172 l 17 -172 l 198 987 l 922 987 l 741 -172 z "},"∑":{"ha":851,"x_min":-65,"x_max":892,"o":"m 612 394 l 228 -23 l 739 -24 l 711 -182 l -65 -182 l -45 -71 l 414 416 l 121 895 l 138 987 l 892 987 l 864 829 l 367 829 l 614 418 l 612 394 z "},"−":{"ha":755,"x_min":96,"x_max":693,"o":"m 665 404 l 96 404 l 123 564 l 693 564 l 665 404 z "},"√":{"ha":768,"x_min":26,"x_max":852,"o":"m 344 201 l 692 987 l 852 987 l 403 0 l 240 0 l 180 355 l 26 355 l 54 515 l 307 515 l 344 201 z "},"∞":{"ha":1417,"x_min":47,"x_max":1352,"o":"m 1341 364 q 1273 168 1327 256 q 1135 32 1219 79 q 951 -14 1050 -16 q 784 47 857 -11 q 680 199 710 105 q 516 34 597 83 q 345 -14 435 -16 q 182 37 252 -12 q 80 171 113 86 q 56 357 47 256 l 58 372 q 124 566 71 478 q 262 702 178 653 q 446 747 347 750 q 613 690 540 745 q 720 541 687 635 q 880 700 798 650 q 1055 747 962 749 q 1217 697 1147 746 q 1319 563 1286 648 q 1342 378 1352 477 l 1341 364 m 1156 448 q 1120 547 1151 511 q 1035 585 1088 583 q 895 524 964 587 q 798 379 826 461 l 793 359 q 809 266 788 315 q 870 183 831 216 q 951 149 909 151 q 1085 208 1030 146 q 1154 365 1141 269 q 1156 448 1158 412 m 243 354 q 242 284 239 320 q 279 185 247 222 q 365 148 311 149 q 505 212 436 146 q 602 363 574 277 l 606 383 q 589 473 610 427 q 528 551 568 520 q 446 584 488 583 q 315 528 370 587 q 243 354 260 468 z "},"∫":{"ha":395,"x_min":-161,"x_max":557,"o":"m 220 -32 q 132 -229 205 -159 q -60 -298 58 -300 q -161 -286 -105 -298 l -140 -130 q -84 -140 -106 -140 q 26 -32 7 -142 l 152 798 q 244 990 167 921 q 446 1057 321 1059 q 557 1042 481 1057 l 528 892 q 465 900 490 900 q 385 873 416 900 q 346 798 355 846 l 220 -32 z "},"≈":{"ha":784,"x_min":32,"x_max":737,"o":"m 96 621 q 263 692 167 692 q 349 677 309 693 q 424 641 389 661 q 492 608 458 622 q 568 595 527 595 q 646 613 606 595 q 737 680 685 632 l 721 519 q 571 447 652 447 q 493 461 529 447 q 420 496 458 475 q 347 531 382 517 q 267 545 311 545 q 81 460 174 544 l 96 621 m 47 336 q 209 408 117 408 q 290 394 253 408 q 366 358 328 380 q 438 323 404 337 q 513 310 473 310 q 688 395 595 310 l 672 234 q 517 163 601 161 q 439 177 475 163 q 367 211 404 191 q 293 246 329 232 q 214 260 257 260 q 32 175 127 260 l 47 336 z "},"≠":{"ha":778,"x_min":54,"x_max":725,"o":"m 644 212 l 286 212 l 185 67 l 104 117 l 176 211 l 54 212 l 83 372 l 283 374 l 380 505 l 106 506 l 134 666 l 488 666 l 589 809 l 669 759 l 600 667 l 725 666 l 695 506 l 492 505 l 393 374 l 673 372 l 644 212 z "},"≤":{"ha":693,"x_min":-26,"x_max":685,"o":"m 250 498 l 602 375 l 571 212 l 46 435 l 74 579 l 685 802 l 650 623 l 250 498 m 543 27 l -26 27 l 1 187 l 571 187 l 543 27 z "},"≥":{"ha":703,"x_min":14,"x_max":690,"o":"m 487 511 l 127 635 l 159 797 l 690 574 l 663 430 l 45 207 l 80 385 l 487 511 m 583 27 l 14 27 l 41 187 l 611 187 l 583 27 z "},"◊":{"ha":692,"x_min":37,"x_max":682,"o":"m 357 987 l 521 987 l 682 481 l 361 0 l 198 0 l 37 505 l 357 987 m 414 780 l 222 481 l 304 207 l 495 505 l 414 780 z "},"":{"ha":403,"x_min":58,"x_max":372,"o":"m 165 328 q 243 300 211 330 q 275 226 275 271 q 245 150 277 181 q 169 118 214 118 q 92 145 123 117 q 60 219 61 174 q 89 296 58 264 q 165 328 119 327 m 261 884 q 339 856 307 885 q 371 781 371 826 q 341 705 372 736 q 264 673 310 673 q 188 701 219 672 q 155 774 157 729 q 184 851 154 820 q 261 884 215 882 z "},"":{"ha":439,"x_min":64,"x_max":431,"o":"m 174 443 l 64 443 l 115 733 l 224 733 l 174 443 m 380 443 l 271 443 l 322 733 l 431 733 l 380 443 z "},"":{"ha":316,"x_min":-43,"x_max":181,"o":"m 52 -101 l -43 -45 q 35 124 18 39 l 46 186 l 181 186 l 178 146 q 52 -101 166 7 z "},"ﬁ":{"ha":827,"x_min":44,"x_max":793,"o":"m 48 0 l 151 590 l 44 590 l 70 734 l 169 734 l 175 769 q 292 983 200 907 q 529 1057 385 1059 q 639 1044 585 1056 q 747 1017 693 1032 l 705 854 q 532 888 612 886 q 422 856 465 888 q 366 765 378 823 l 359 734 l 508 734 l 482 590 l 342 590 l 240 0 l 48 0 m 666 0 l 473 0 l 601 734 l 793 734 l 666 0 z "},"ﬂ":{"ha":832,"x_min":50,"x_max":845,"o":"m 635 891 q 536 899 577 899 q 432 870 473 899 q 382 787 392 841 l 373 734 l 515 734 l 490 590 l 349 590 l 246 0 l 54 0 l 156 590 l 50 590 l 75 734 l 181 734 l 189 798 q 290 986 207 917 q 505 1058 372 1056 l 517 1058 l 634 1053 l 845 1035 l 671 0 l 479 0 l 635 891 z "},"ﬃ":{"ha":1257,"x_min":50,"x_max":1224,"o":"m 54 0 l 156 590 l 50 590 l 75 734 l 181 734 l 189 792 q 284 990 205 920 q 485 1058 363 1059 q 589 1043 522 1057 l 572 890 q 515 899 539 899 q 430 873 465 899 q 384 798 394 848 l 373 734 l 600 734 l 604 758 q 718 979 628 901 q 954 1057 808 1056 l 960 1057 q 1072 1043 1017 1056 q 1181 1015 1126 1031 l 1137 854 q 963 887 1040 886 q 856 857 901 887 q 797 764 811 827 l 791 733 l 939 734 l 913 590 l 773 590 l 671 0 l 479 0 l 581 590 l 349 590 l 246 0 l 54 0 m 1097 0 l 905 0 l 1031 734 l 1224 734 l 1097 0 z "},"ﬄ":{"ha":1257,"x_min":50,"x_max":1270,"o":"m 54 0 l 156 590 l 50 590 l 75 734 l 181 734 l 191 807 q 287 991 208 924 q 486 1057 365 1059 q 589 1043 526 1056 l 572 890 q 515 899 539 899 q 428 871 463 899 q 383 794 392 844 l 373 734 l 606 734 l 612 787 q 734 1001 631 931 q 942 1057 819 1059 l 1046 1054 l 1270 1035 l 1097 0 l 905 0 l 1063 891 q 961 899 1006 899 q 857 869 897 899 q 806 787 816 840 l 798 734 l 940 734 l 915 590 l 773 590 l 671 0 l 479 0 l 581 590 l 349 590 l 246 0 l 54 0 z "},"﻿":{"ha":0,"x_min":0,"x_max":0,"o":""},"￼":{"ha":1383,"x_min":-61,"x_max":1434,"o":"m 530 317 q 479 208 525 250 q 368 168 433 166 q 262 211 302 169 q 224 317 222 254 l 229 393 q 280 502 235 460 q 391 543 325 544 q 496 499 456 541 q 534 393 536 456 l 530 317 m 543 171 l 608 543 l 719 543 q 816 516 782 541 q 850 446 850 491 q 836 399 850 420 q 784 359 821 379 q 823 328 809 350 q 838 280 837 307 q 802 202 839 231 q 701 170 766 172 l 543 171 m 475 395 q 462 466 479 438 q 405 494 444 493 q 331 466 361 496 q 294 389 301 437 l 284 317 q 298 245 279 271 q 355 217 317 218 q 426 242 397 216 q 465 317 455 269 l 475 395 m 1125 545 l 1194 545 l 1154 288 q 1114 204 1149 235 q 1025 172 1080 172 q 930 203 964 172 q 895 286 897 233 l 954 284 q 1009 221 951 221 q 1060 240 1040 221 q 1086 288 1080 260 l 1125 545 m -61 -270 l -23 -56 l 53 -56 l 28 -193 l 157 -193 l 144 -270 l -61 -270 m 1011 -270 l 1025 -193 l 1155 -193 l 1179 -56 l 1254 -56 l 1216 -270 l 1011 -270 m 123 793 l 157 986 l 362 986 l 348 907 l 220 907 l 199 793 l 123 793 m 1215 907 l 1229 986 l 1434 986 l 1400 793 l 1326 793 l 1346 907 l 1215 907 m 635 336 l 615 222 l 687 222 q 776 283 763 225 q 732 336 786 331 l 635 336 m 952 907 l 966 986 l 1151 986 l 1137 907 l 952 907 m 690 907 l 704 986 l 888 986 l 873 907 l 690 907 m 427 907 l 441 986 l 625 986 l 610 907 l 427 907 m 748 -270 l 762 -193 l 947 -193 l 932 -270 l 748 -270 m 486 -270 l 500 -193 l 684 -193 l 669 -270 l 486 -270 m 223 -270 l 237 -193 l 420 -193 l 406 -270 l 223 -270 m 638 382 l 695 382 q 791 442 780 387 q 755 484 798 479 l 732 486 l 666 488 l 638 382 m 111 282 l 35 282 l 65 453 l 141 453 l 111 282 m 155 538 l 79 538 l 109 708 l 185 708 l 155 538 m 66 28 l -9 28 l 21 197 l 96 197 l 66 28 m 1312 282 l 1237 282 l 1267 453 l 1342 453 l 1312 282 m 1356 538 l 1282 538 l 1312 708 l 1386 708 l 1356 538 m 1267 28 l 1193 28 l 1223 197 l 1297 197 l 1267 28 z "},"�":{"ha":1425,"x_min":62,"x_max":1361,"o":"m 711 1097 l 1361 436 l 711 -225 l 62 436 l 711 1097 m 767 273 q 777 332 767 312 q 812 368 787 351 q 893 440 862 394 q 924 536 924 486 q 868 674 924 623 q 710 725 811 725 q 558 678 612 725 q 503 545 504 631 l 640 545 q 661 597 642 579 q 710 614 681 614 q 768 593 749 614 q 787 536 787 571 q 724 431 787 471 q 646 355 662 387 q 630 273 630 324 l 767 273 m 767 211 l 630 211 l 630 96 l 767 96 l 767 211 m 716 -374 l 719 -374 l 719 -376 l 716 -376 l 716 -374 m 715 1467 l 718 1467 l 718 1464 l 715 1464 l 715 1467 z "}," ":{"ha":342,"x_min":0,"x_max":0,"o":""},"­":{"ha":529,"x_min":61,"x_max":460,"o":"m 433 344 l 61 344 l 88 502 l 460 502 l 433 344 z "},"Đ":{"ha":903,"x_min":-9,"x_max":863,"o":"m 35 0 l 110 435 l -9 435 l 14 559 l 132 559 l 206 987 l 488 987 q 668 942 588 985 q 798 818 749 899 q 858 636 848 737 q 857 515 863 577 l 852 479 q 681 131 822 262 q 340 0 541 0 l 35 0 m 452 435 l 309 435 l 262 163 l 345 163 q 565 263 481 163 q 660 566 648 363 l 661 588 q 618 760 663 700 q 485 822 574 819 l 376 823 l 330 559 l 475 559 l 452 435 z "},"Ð":{"ha":903,"x_min":-9,"x_max":863,"o":"m 35 0 l 110 435 l -9 435 l 14 559 l 132 559 l 206 987 l 488 987 q 668 942 588 985 q 798 818 749 899 q 858 636 848 737 q 857 515 863 577 l 852 479 q 681 131 822 262 q 340 0 541 0 l 35 0 m 452 435 l 309 435 l 262 163 l 345 163 q 565 263 481 163 q 660 566 648 363 l 661 588 q 618 760 663 700 q 485 822 574 819 l 376 823 l 330 559 l 475 559 l 452 435 z "},"ħ":{"ha":781,"x_min":18,"x_max":724,"o":"m 498 825 l 347 825 l 314 652 q 513 747 400 749 q 673 669 622 745 q 711 463 724 593 l 634 0 l 443 0 l 521 465 q 522 513 524 491 q 437 589 515 587 q 301 522 359 591 l 209 0 l 18 0 l 160 825 l 37 825 l 59 949 l 182 949 l 198 1042 l 390 1042 l 372 949 l 520 949 l 498 825 z "},"Ŧ":{"ha":840,"x_min":98,"x_max":908,"o":"m 652 508 l 531 508 l 444 0 l 245 0 l 332 508 l 191 508 l 214 632 l 354 632 l 387 823 l 98 823 l 127 987 l 908 987 l 879 823 l 586 823 l 553 632 l 675 632 l 652 508 z "},"ŧ":{"ha":462,"x_min":-28,"x_max":480,"o":"m 433 361 l 294 361 l 271 222 q 276 170 267 188 q 322 150 286 151 q 380 153 333 149 l 367 3 q 257 -12 316 -14 q 117 47 163 -11 q 79 203 71 104 l 104 361 l -28 361 l -6 485 l 125 485 l 142 590 l 38 590 l 63 734 l 167 734 l 198 914 l 390 914 l 358 734 l 480 734 l 455 590 l 333 590 l 315 485 l 455 485 l 433 361 z "},"À":{"ha":913,"x_min":-71,"x_max":829,"o":"m 595 203 l 250 203 l 149 0 l -71 0 l 457 987 l 641 987 l 829 0 l 626 0 l 595 203 m 332 368 l 570 368 l 514 736 l 332 368 m 655 1042 l 512 1042 l 361 1251 l 558 1252 l 655 1042 z "},"Á":{"ha":913,"x_min":-71,"x_max":852,"o":"m 595 203 l 250 203 l 149 0 l -71 0 l 457 987 l 641 987 l 829 0 l 626 0 l 595 203 m 332 368 l 570 368 l 514 736 l 332 368 m 631 1252 l 852 1252 l 637 1042 l 468 1042 l 631 1252 z "},"Â":{"ha":913,"x_min":-71,"x_max":829,"o":"m 595 203 l 250 203 l 149 0 l -71 0 l 457 987 l 641 987 l 829 0 l 626 0 l 595 203 m 332 368 l 570 368 l 514 736 l 332 368 m 823 1065 l 823 1050 l 677 1054 l 593 1152 l 475 1055 l 319 1052 l 319 1067 l 537 1252 l 646 1253 l 823 1065 z "},"Ã":{"ha":913,"x_min":-71,"x_max":838,"o":"m 595 203 l 250 203 l 149 0 l -71 0 l 457 987 l 641 987 l 829 0 l 626 0 l 595 203 m 332 368 l 570 368 l 514 736 l 332 368 m 838 1244 q 790 1112 833 1164 q 682 1060 747 1060 q 645 1066 663 1060 q 593 1091 628 1072 q 542 1116 559 1110 q 505 1122 524 1122 q 436 1055 453 1120 l 323 1062 q 373 1194 328 1141 q 484 1245 418 1246 q 517 1240 501 1245 q 571 1215 533 1235 q 625 1189 608 1194 q 661 1184 642 1183 q 729 1251 713 1186 l 838 1244 z "},"Ä":{"ha":913,"x_min":-71,"x_max":833,"o":"m 595 203 l 250 203 l 149 0 l -71 0 l 457 987 l 641 987 l 829 0 l 626 0 l 595 203 m 332 368 l 570 368 l 514 736 l 332 368 m 330 1134 q 354 1195 328 1169 q 418 1223 380 1221 q 485 1199 457 1224 q 513 1138 513 1173 q 488 1077 514 1102 q 423 1050 462 1051 q 359 1073 387 1048 q 330 1134 331 1097 m 650 1134 q 675 1195 649 1169 q 739 1223 701 1221 q 805 1199 777 1224 q 833 1138 832 1175 q 808 1076 833 1101 q 745 1049 783 1050 q 679 1072 707 1048 q 650 1134 650 1097 z "},"Å":{"ha":913,"x_min":-71,"x_max":829,"o":"m 595 203 l 250 203 l 149 0 l -71 0 l 457 987 l 641 987 l 829 0 l 626 0 l 595 203 m 332 368 l 570 368 l 514 736 l 332 368 m 441 1168 q 486 1271 441 1230 q 593 1313 531 1313 q 693 1273 652 1313 q 735 1178 735 1234 q 692 1078 736 1120 q 584 1036 648 1036 q 484 1074 526 1036 q 441 1168 443 1112 m 518 1168 q 528 1121 513 1141 q 572 1101 543 1101 q 629 1123 604 1101 q 659 1178 653 1145 q 648 1227 663 1207 q 605 1247 632 1247 q 548 1224 573 1247 q 518 1168 522 1201 z "},"Ǻ":{"ha":913,"x_min":-71,"x_max":878,"o":"m 595 203 l 250 203 l 149 0 l -71 0 l 457 987 l 641 987 l 829 0 l 626 0 l 595 203 m 332 368 l 570 368 l 514 736 l 332 368 m 687 1355 l 878 1354 l 677 1215 l 540 1215 l 687 1355 m 437 1056 q 475 1149 435 1111 q 572 1188 515 1188 q 663 1152 626 1188 q 701 1065 699 1116 q 662 973 701 1010 q 568 936 623 936 q 475 971 511 936 q 437 1056 438 1006 m 511 1057 q 519 1018 507 1035 q 555 1001 531 1000 q 609 1029 587 1002 q 627 1086 631 1056 q 585 1122 619 1122 q 536 1102 557 1122 q 511 1057 515 1082 z "},"Ç":{"ha":888,"x_min":59,"x_max":887,"o":"m 819 330 q 749 148 808 227 q 597 27 691 69 q 395 -14 504 -16 q 225 32 298 -12 q 111 156 153 75 q 64 345 69 238 q 81 552 59 428 q 160 772 103 676 q 294 925 216 869 q 545 1001 404 1004 q 788 906 699 998 q 887 651 878 814 l 689 652 q 652 789 689 745 q 536 835 614 832 q 369 762 434 838 q 281 541 303 686 q 262 328 259 399 q 302 196 265 239 q 404 152 338 154 q 550 195 495 149 q 622 328 604 241 l 819 330 m 448 5 l 434 -38 q 497 -76 476 -47 q 519 -148 519 -106 q 454 -269 519 -226 q 267 -316 389 -313 l 272 -201 q 359 -141 347 -197 q 300 -95 367 -100 l 277 -93 l 306 3 l 448 5 z "},"È":{"ha":764,"x_min":14,"x_max":828,"o":"m 666 428 l 288 428 l 241 163 l 686 163 l 658 0 l 14 0 l 186 987 l 828 987 l 799 823 l 356 823 l 315 587 l 694 587 l 666 428 m 618 1044 l 475 1044 l 323 1253 l 521 1254 l 618 1044 z "},"É":{"ha":764,"x_min":14,"x_max":828,"o":"m 666 428 l 288 428 l 241 163 l 686 163 l 658 0 l 14 0 l 186 987 l 828 987 l 799 823 l 356 823 l 315 587 l 694 587 l 666 428 m 593 1254 l 815 1254 l 600 1044 l 431 1044 l 593 1254 z "},"Ê":{"ha":764,"x_min":14,"x_max":828,"o":"m 666 428 l 288 428 l 241 163 l 686 163 l 658 0 l 14 0 l 186 987 l 828 987 l 799 823 l 356 823 l 315 587 l 694 587 l 666 428 m 786 1067 l 786 1053 l 640 1056 l 556 1154 l 437 1057 l 282 1054 l 282 1069 l 500 1254 l 609 1255 l 786 1067 z "},"Ë":{"ha":764,"x_min":14,"x_max":828,"o":"m 666 428 l 288 428 l 241 163 l 686 163 l 658 0 l 14 0 l 186 987 l 828 987 l 799 823 l 356 823 l 315 587 l 694 587 l 666 428 m 292 1136 q 317 1197 291 1171 q 381 1225 342 1223 q 448 1201 420 1226 q 475 1140 475 1175 q 451 1079 477 1104 q 386 1052 425 1053 q 322 1075 350 1050 q 292 1136 294 1099 m 613 1136 q 637 1197 612 1171 q 702 1225 663 1223 q 767 1201 740 1226 q 796 1140 795 1177 q 771 1078 796 1103 q 707 1051 745 1053 q 642 1074 670 1050 q 613 1136 613 1099 z "},"Ì":{"ha":399,"x_min":27,"x_max":397,"o":"m 226 0 l 27 0 l 198 987 l 397 987 l 226 0 m 397 1044 l 254 1044 l 102 1253 l 300 1254 l 397 1044 z "},"Í":{"ha":399,"x_min":27,"x_max":593,"o":"m 226 0 l 27 0 l 198 987 l 397 987 l 226 0 m 372 1254 l 593 1254 l 378 1044 l 209 1044 l 372 1254 z "},"Î":{"ha":399,"x_min":27,"x_max":565,"o":"m 226 0 l 27 0 l 198 987 l 397 987 l 226 0 m 565 1067 l 565 1053 l 418 1056 l 335 1154 l 216 1057 l 61 1054 l 61 1069 l 279 1254 l 388 1255 l 565 1067 z "},"Ï":{"ha":399,"x_min":27,"x_max":575,"o":"m 226 0 l 27 0 l 198 987 l 397 987 l 226 0 m 71 1136 q 96 1197 70 1171 q 160 1225 121 1223 q 227 1201 199 1226 q 254 1140 254 1175 q 230 1079 256 1104 q 165 1052 203 1053 q 101 1075 129 1050 q 71 1136 73 1099 m 392 1136 q 416 1197 391 1171 q 481 1225 442 1223 q 546 1201 519 1226 q 575 1140 574 1177 q 550 1078 575 1103 q 486 1051 524 1053 q 420 1074 449 1050 q 392 1136 392 1099 z "},"Ñ":{"ha":958,"x_min":14,"x_max":966,"o":"m 795 0 l 602 0 l 328 659 l 213 0 l 14 0 l 186 987 l 378 987 l 653 328 l 768 987 l 966 987 l 795 0 m 861 1244 q 813 1112 856 1164 q 704 1060 770 1060 q 668 1066 685 1060 q 616 1091 650 1072 q 564 1116 581 1110 q 527 1122 547 1122 q 458 1055 475 1120 l 346 1062 q 396 1194 351 1141 q 506 1245 441 1246 q 539 1240 524 1245 q 593 1215 555 1235 q 647 1189 631 1194 q 683 1184 664 1183 q 751 1251 735 1186 l 861 1244 z "},"Ò":{"ha":937,"x_min":61,"x_max":904,"o":"m 411 -14 q 238 33 313 -12 q 119 161 163 77 q 68 353 75 245 q 92 591 61 465 q 193 812 123 717 q 355 956 262 908 q 557 1001 448 1003 q 731 954 656 999 q 848 824 806 909 q 897 633 891 740 q 871 387 904 513 q 770 169 839 261 q 610 31 702 77 q 411 -14 518 -16 m 692 521 l 698 585 q 666 768 705 706 q 547 833 627 831 q 350 724 423 838 q 268 405 277 610 q 300 220 261 285 q 420 153 338 155 q 596 236 526 148 q 688 484 666 323 l 692 521 m 665 1042 l 522 1042 l 370 1251 l 568 1252 l 665 1042 z "},"Ó":{"ha":937,"x_min":61,"x_max":904,"o":"m 411 -14 q 238 33 313 -12 q 119 161 163 77 q 68 353 75 245 q 92 591 61 465 q 193 812 123 717 q 355 956 262 908 q 557 1001 448 1003 q 731 954 656 999 q 848 824 806 909 q 897 633 891 740 q 871 387 904 513 q 770 169 839 261 q 610 31 702 77 q 411 -14 518 -16 m 692 521 l 698 585 q 666 768 705 706 q 547 833 627 831 q 350 724 423 838 q 268 405 277 610 q 300 220 261 285 q 420 153 338 155 q 596 236 526 148 q 688 484 666 323 l 692 521 m 640 1252 l 862 1252 l 646 1042 l 477 1042 l 640 1252 z "},"Ô":{"ha":937,"x_min":61,"x_max":904,"o":"m 411 -14 q 238 33 313 -12 q 119 161 163 77 q 68 353 75 245 q 92 591 61 465 q 193 812 123 717 q 355 956 262 908 q 557 1001 448 1003 q 731 954 656 999 q 848 824 806 909 q 897 633 891 740 q 871 387 904 513 q 770 169 839 261 q 610 31 702 77 q 411 -14 518 -16 m 692 521 l 698 585 q 666 768 705 706 q 547 833 627 831 q 350 724 423 838 q 268 405 277 610 q 300 220 261 285 q 420 153 338 155 q 596 236 526 148 q 688 484 666 323 l 692 521 m 833 1065 l 833 1050 l 686 1054 l 603 1152 l 484 1055 l 329 1052 l 329 1067 l 547 1252 l 656 1253 l 833 1065 z "},"Õ":{"ha":937,"x_min":61,"x_max":904,"o":"m 411 -14 q 238 33 313 -12 q 119 161 163 77 q 68 353 75 245 q 92 591 61 465 q 193 812 123 717 q 355 956 262 908 q 557 1001 448 1003 q 731 954 656 999 q 848 824 806 909 q 897 633 891 740 q 871 387 904 513 q 770 169 839 261 q 610 31 702 77 q 411 -14 518 -16 m 692 521 l 698 585 q 666 768 705 706 q 547 833 627 831 q 350 724 423 838 q 268 405 277 610 q 300 220 261 285 q 420 153 338 155 q 596 236 526 148 q 688 484 666 323 l 692 521 m 848 1244 q 800 1112 843 1164 q 691 1060 757 1060 q 655 1066 672 1060 q 603 1091 637 1072 q 551 1116 568 1110 q 514 1122 534 1122 q 446 1055 463 1120 l 333 1062 q 383 1194 338 1141 q 493 1245 428 1246 q 527 1240 511 1245 q 580 1215 543 1235 q 634 1189 618 1194 q 670 1184 651 1183 q 739 1251 722 1186 l 848 1244 z "},"Ö":{"ha":937,"x_min":61,"x_max":904,"o":"m 411 -14 q 238 33 313 -12 q 119 161 163 77 q 68 353 75 245 q 92 591 61 465 q 193 812 123 717 q 355 956 262 908 q 557 1001 448 1003 q 731 954 656 999 q 848 824 806 909 q 897 633 891 740 q 871 387 904 513 q 770 169 839 261 q 610 31 702 77 q 411 -14 518 -16 m 692 521 l 698 585 q 666 768 705 706 q 547 833 627 831 q 350 724 423 838 q 268 405 277 610 q 300 220 261 285 q 420 153 338 155 q 596 236 526 148 q 688 484 666 323 l 692 521 m 339 1134 q 363 1195 338 1169 q 428 1223 389 1221 q 494 1199 467 1224 q 522 1138 522 1173 q 497 1077 524 1102 q 433 1050 471 1051 q 369 1073 397 1048 q 339 1134 340 1097 m 660 1134 q 684 1195 659 1169 q 749 1223 710 1221 q 814 1199 787 1224 q 843 1138 842 1175 q 818 1076 843 1101 q 754 1049 792 1050 q 688 1072 717 1048 q 660 1134 660 1097 z "},"Ù":{"ha":894,"x_min":57,"x_max":915,"o":"m 915 987 l 804 336 q 668 78 781 173 q 389 -14 555 -17 q 207 32 284 -12 q 94 155 130 75 q 68 336 57 235 l 179 987 l 378 987 l 267 335 q 267 264 262 297 q 397 150 280 154 q 535 196 481 147 q 604 336 589 245 l 715 987 l 915 987 m 641 1042 l 498 1042 l 347 1251 l 544 1252 l 641 1042 z "},"Ú":{"ha":894,"x_min":57,"x_max":915,"o":"m 915 987 l 804 336 q 668 78 781 173 q 389 -14 555 -17 q 207 32 284 -12 q 94 155 130 75 q 68 336 57 235 l 179 987 l 378 987 l 267 335 q 267 264 262 297 q 397 150 280 154 q 535 196 481 147 q 604 336 589 245 l 715 987 l 915 987 m 616 1252 l 838 1252 l 623 1042 l 454 1042 l 616 1252 z "},"Û":{"ha":894,"x_min":57,"x_max":915,"o":"m 915 987 l 804 336 q 668 78 781 173 q 389 -14 555 -17 q 207 32 284 -12 q 94 155 130 75 q 68 336 57 235 l 179 987 l 378 987 l 267 335 q 267 264 262 297 q 397 150 280 154 q 535 196 481 147 q 604 336 589 245 l 715 987 l 915 987 m 809 1065 l 809 1050 l 663 1054 l 579 1152 l 460 1055 l 305 1052 l 305 1067 l 523 1252 l 632 1253 l 809 1065 z "},"Ü":{"ha":894,"x_min":57,"x_max":915,"o":"m 915 987 l 804 336 q 668 78 781 173 q 389 -14 555 -17 q 207 32 284 -12 q 94 155 130 75 q 68 336 57 235 l 179 987 l 378 987 l 267 335 q 267 264 262 297 q 397 150 280 154 q 535 196 481 147 q 604 336 589 245 l 715 987 l 915 987 m 315 1134 q 340 1195 314 1169 q 404 1223 366 1221 q 471 1199 443 1224 q 498 1138 498 1173 q 474 1077 500 1102 q 409 1050 448 1051 q 345 1073 373 1048 q 315 1134 317 1097 m 636 1134 q 661 1195 635 1169 q 725 1223 686 1221 q 790 1199 763 1224 q 819 1138 818 1175 q 794 1076 819 1101 q 730 1049 768 1050 q 665 1072 693 1048 q 636 1134 636 1097 z "},"Ý":{"ha":840,"x_min":104,"x_max":938,"o":"m 434 544 l 710 987 l 938 987 l 507 347 l 447 0 l 245 0 l 309 370 l 104 987 l 314 987 l 434 544 m 593 1252 l 815 1252 l 600 1042 l 431 1042 l 593 1252 z "},"à":{"ha":729,"x_min":9,"x_max":675,"o":"m 427 0 q 419 66 418 28 q 232 -14 336 -16 q 72 49 136 -12 q 13 201 9 111 q 114 385 18 321 q 371 449 210 449 l 460 448 l 470 492 q 472 534 474 514 q 448 584 469 566 q 393 603 427 602 q 317 581 349 604 q 277 513 286 557 l 85 513 q 182 683 90 618 q 409 747 274 749 q 604 673 534 745 q 663 489 675 602 l 607 138 l 604 94 q 615 13 602 46 l 614 0 l 427 0 m 279 135 q 424 207 362 132 l 448 334 l 381 334 q 229 270 275 332 q 208 215 212 248 q 223 157 202 178 q 279 135 243 136 m 526 831 l 383 832 l 232 1040 l 429 1042 l 526 831 z "},"á":{"ha":729,"x_min":9,"x_max":724,"o":"m 427 0 q 419 66 418 28 q 232 -14 336 -16 q 72 49 136 -12 q 13 201 9 111 q 114 385 18 321 q 371 449 210 449 l 460 448 l 470 492 q 472 534 474 514 q 448 584 469 566 q 393 603 427 602 q 317 581 349 604 q 277 513 286 557 l 85 513 q 182 683 90 618 q 409 747 274 749 q 604 673 534 745 q 663 489 675 602 l 607 138 l 604 94 q 615 13 602 46 l 614 0 l 427 0 m 279 135 q 424 207 362 132 l 448 334 l 381 334 q 229 270 275 332 q 208 215 212 248 q 223 157 202 178 q 279 135 243 136 m 502 1042 l 724 1042 l 508 831 l 339 831 l 502 1042 z "},"â":{"ha":729,"x_min":9,"x_max":694,"o":"m 427 0 q 419 66 418 28 q 232 -14 336 -16 q 72 49 136 -12 q 13 201 9 111 q 114 385 18 321 q 371 449 210 449 l 460 448 l 470 492 q 472 534 474 514 q 448 584 469 566 q 393 603 427 602 q 317 581 349 604 q 277 513 286 557 l 85 513 q 182 683 90 618 q 409 747 274 749 q 604 673 534 745 q 663 489 675 602 l 607 138 l 604 94 q 615 13 602 46 l 614 0 l 427 0 m 279 135 q 424 207 362 132 l 448 334 l 381 334 q 229 270 275 332 q 208 215 212 248 q 223 157 202 178 q 279 135 243 136 m 694 854 l 694 840 l 548 844 l 465 941 l 346 844 l 191 842 l 191 857 l 408 1042 l 517 1042 l 694 854 z "},"ã":{"ha":729,"x_min":9,"x_max":709,"o":"m 427 0 q 419 66 418 28 q 232 -14 336 -16 q 72 49 136 -12 q 13 201 9 111 q 114 385 18 321 q 371 449 210 449 l 460 448 l 470 492 q 472 534 474 514 q 448 584 469 566 q 393 603 427 602 q 317 581 349 604 q 277 513 286 557 l 85 513 q 182 683 90 618 q 409 747 274 749 q 604 673 534 745 q 663 489 675 602 l 607 138 l 604 94 q 615 13 602 46 l 614 0 l 427 0 m 279 135 q 424 207 362 132 l 448 334 l 381 334 q 229 270 275 332 q 208 215 212 248 q 223 157 202 178 q 279 135 243 136 m 709 1034 q 662 902 705 954 q 553 850 618 850 q 516 856 534 850 q 465 881 499 862 q 413 907 430 901 q 376 912 395 913 q 307 846 324 910 l 195 852 q 244 984 199 931 q 355 1036 290 1037 q 388 1030 372 1036 q 442 1005 404 1025 q 496 979 479 985 q 532 975 513 974 q 600 1041 584 977 l 709 1034 z "},"ä":{"ha":729,"x_min":9,"x_max":705,"o":"m 427 0 q 419 66 418 28 q 232 -14 336 -16 q 72 49 136 -12 q 13 201 9 111 q 114 385 18 321 q 371 449 210 449 l 460 448 l 470 492 q 472 534 474 514 q 448 584 469 566 q 393 603 427 602 q 317 581 349 604 q 277 513 286 557 l 85 513 q 182 683 90 618 q 409 747 274 749 q 604 673 534 745 q 663 489 675 602 l 607 138 l 604 94 q 615 13 602 46 l 614 0 l 427 0 m 279 135 q 424 207 362 132 l 448 334 l 381 334 q 229 270 275 332 q 208 215 212 248 q 223 157 202 178 q 279 135 243 136 m 201 924 q 225 985 199 959 q 290 1013 251 1011 q 356 988 328 1014 q 384 928 384 963 q 359 866 385 892 q 294 840 333 841 q 230 862 258 838 q 201 924 202 886 m 522 924 q 546 985 520 959 q 610 1013 572 1011 q 676 989 648 1014 q 705 928 703 964 q 679 865 705 890 q 616 839 654 840 q 550 862 578 838 q 522 924 522 886 z "},"å":{"ha":729,"x_min":9,"x_max":675,"o":"m 427 0 q 419 66 418 28 q 232 -14 336 -16 q 72 49 136 -12 q 13 201 9 111 q 114 385 18 321 q 371 449 210 449 l 460 448 l 470 492 q 472 534 474 514 q 448 584 469 566 q 393 603 427 602 q 317 581 349 604 q 277 513 286 557 l 85 513 q 182 683 90 618 q 409 747 274 749 q 604 673 534 745 q 663 489 675 602 l 607 138 l 604 94 q 615 13 602 46 l 614 0 l 427 0 m 279 135 q 424 207 362 132 l 448 334 l 381 334 q 229 270 275 332 q 208 215 212 248 q 223 157 202 178 q 279 135 243 136 m 313 958 q 357 1061 313 1019 q 464 1103 402 1103 q 565 1063 523 1103 q 606 968 606 1023 q 563 868 608 909 q 455 826 519 826 q 355 864 397 826 q 313 958 314 902 m 389 958 q 399 911 385 931 q 444 890 414 890 q 500 912 475 890 q 530 968 524 935 q 519 1017 534 997 q 476 1037 503 1037 q 419 1014 444 1037 q 389 958 393 991 z "},"ǻ":{"ha":729,"x_min":9,"x_max":749,"o":"m 427 0 q 419 66 418 28 q 232 -14 336 -16 q 72 49 136 -12 q 13 201 9 111 q 114 385 18 321 q 371 449 210 449 l 460 448 l 470 492 q 472 534 474 514 q 448 584 469 566 q 393 603 427 602 q 317 581 349 604 q 277 513 286 557 l 85 513 q 182 683 90 618 q 409 747 274 749 q 604 673 534 745 q 663 489 675 602 l 607 138 l 604 94 q 615 13 602 46 l 614 0 l 427 0 m 279 135 q 424 207 362 132 l 448 334 l 381 334 q 229 270 275 332 q 208 215 212 248 q 223 157 202 178 q 279 135 243 136 m 558 1145 l 749 1145 l 548 1005 l 411 1006 l 558 1145 m 308 846 q 347 940 307 901 q 443 979 387 979 q 534 943 497 979 q 572 856 570 907 q 533 764 572 801 q 439 726 494 726 q 346 761 382 726 q 308 846 309 796 m 382 847 q 390 808 378 825 q 426 791 402 791 q 480 819 458 792 q 498 877 503 846 q 456 913 490 913 q 407 893 429 913 q 382 847 386 873 z "},"ç":{"ha":709,"x_min":29,"x_max":678,"o":"m 323 144 q 412 173 376 142 q 458 253 447 203 l 637 254 q 589 115 633 176 q 472 18 545 53 q 319 -14 399 -16 q 107 78 185 -12 q 32 318 29 168 l 34 355 l 35 363 q 155 647 53 542 q 408 747 258 751 q 605 666 532 745 q 677 460 678 588 l 498 460 q 473 553 498 519 q 395 589 447 587 q 229 389 258 593 q 222 264 219 315 q 323 144 229 146 m 369 5 l 355 -38 q 419 -76 397 -47 q 440 -148 440 -106 q 375 -269 440 -226 q 188 -316 310 -313 l 193 -201 q 280 -141 269 -197 q 222 -95 288 -100 l 198 -93 l 227 3 l 369 5 z "},"è":{"ha":735,"x_min":33,"x_max":709,"o":"m 351 -14 q 180 34 254 -13 q 69 161 106 80 q 41 340 33 242 l 43 367 q 105 564 53 474 q 239 702 157 653 q 421 747 321 750 q 636 643 563 745 q 691 387 709 542 l 680 303 l 231 303 q 265 189 228 232 q 367 145 302 146 q 550 226 471 142 l 637 117 q 518 20 596 55 q 351 -14 440 -15 m 412 589 q 318 556 359 591 q 244 436 277 522 l 507 436 l 511 454 q 512 505 515 481 q 479 567 505 545 q 412 589 452 589 m 513 831 l 370 832 l 219 1040 l 416 1042 l 513 831 z "},"é":{"ha":735,"x_min":33,"x_max":711,"o":"m 351 -14 q 180 34 254 -13 q 69 161 106 80 q 41 340 33 242 l 43 367 q 105 564 53 474 q 239 702 157 653 q 421 747 321 750 q 636 643 563 745 q 691 387 709 542 l 680 303 l 231 303 q 265 189 228 232 q 367 145 302 146 q 550 226 471 142 l 637 117 q 518 20 596 55 q 351 -14 440 -15 m 412 589 q 318 556 359 591 q 244 436 277 522 l 507 436 l 511 454 q 512 505 515 481 q 479 567 505 545 q 412 589 452 589 m 489 1042 l 711 1042 l 495 831 l 326 831 l 489 1042 z "},"ê":{"ha":735,"x_min":33,"x_max":709,"o":"m 351 -14 q 180 34 254 -13 q 69 161 106 80 q 41 340 33 242 l 43 367 q 105 564 53 474 q 239 702 157 653 q 421 747 321 750 q 636 643 563 745 q 691 387 709 542 l 680 303 l 231 303 q 265 189 228 232 q 367 145 302 146 q 550 226 471 142 l 637 117 q 518 20 596 55 q 351 -14 440 -15 m 412 589 q 318 556 359 591 q 244 436 277 522 l 507 436 l 511 454 q 512 505 515 481 q 479 567 505 545 q 412 589 452 589 m 682 854 l 682 840 l 535 844 l 452 941 l 333 844 l 178 842 l 178 857 l 395 1042 l 505 1042 l 682 854 z "},"ë":{"ha":735,"x_min":33,"x_max":709,"o":"m 351 -14 q 180 34 254 -13 q 69 161 106 80 q 41 340 33 242 l 43 367 q 105 564 53 474 q 239 702 157 653 q 421 747 321 750 q 636 643 563 745 q 691 387 709 542 l 680 303 l 231 303 q 265 189 228 232 q 367 145 302 146 q 550 226 471 142 l 637 117 q 518 20 596 55 q 351 -14 440 -15 m 412 589 q 318 556 359 591 q 244 436 277 522 l 507 436 l 511 454 q 512 505 515 481 q 479 567 505 545 q 412 589 452 589 m 188 924 q 212 985 186 959 q 277 1013 238 1011 q 343 988 315 1014 q 371 928 371 963 q 346 866 372 892 q 281 840 320 841 q 217 862 245 838 q 188 924 189 886 m 509 924 q 533 985 507 959 q 597 1013 559 1011 q 663 989 635 1014 q 692 928 690 964 q 666 865 692 890 q 603 839 641 840 q 537 862 566 838 q 509 924 509 886 z "},"ì":{"ha":376,"x_min":17,"x_max":347,"o":"m 208 0 l 17 0 l 144 734 l 336 734 l 208 0 m 347 821 l 203 822 l 52 1030 l 250 1031 l 347 821 z "},"í":{"ha":376,"x_min":17,"x_max":543,"o":"m 208 0 l 17 0 l 144 734 l 336 734 l 208 0 m 321 1031 l 543 1031 l 328 821 l 159 821 l 321 1031 z "},"î":{"ha":376,"x_min":11,"x_max":515,"o":"m 208 0 l 17 0 l 144 734 l 336 734 l 208 0 m 515 844 l 515 830 l 368 833 l 285 931 l 166 834 l 11 831 l 11 847 l 229 1031 l 338 1032 l 515 844 z "},"ï":{"ha":376,"x_min":17,"x_max":525,"o":"m 208 0 l 17 0 l 144 734 l 336 734 l 208 0 m 21 913 q 45 975 20 949 q 110 1002 71 1001 q 176 978 149 1004 q 204 918 204 953 q 179 856 205 882 q 115 829 153 831 q 51 852 79 828 q 21 913 22 876 m 342 913 q 366 975 340 949 q 431 1002 392 1001 q 496 979 469 1004 q 525 918 524 954 q 499 855 525 880 q 436 829 474 830 q 370 852 399 827 q 342 913 342 876 z "},"ñ":{"ha":762,"x_min":-2,"x_max":725,"o":"m 304 734 l 288 648 q 502 747 376 750 q 655 671 606 745 q 691 467 705 597 l 614 0 l 422 0 l 501 469 q 503 517 505 495 q 416 588 494 586 q 281 518 340 591 l 189 0 l -2 0 l 125 734 l 304 734 m 725 1034 q 677 902 720 954 q 568 850 634 850 q 532 856 549 850 q 480 881 515 862 q 428 907 446 901 q 391 912 411 913 q 323 846 340 910 l 210 852 q 260 984 215 931 q 370 1036 305 1037 q 404 1030 388 1036 q 457 1005 420 1025 q 512 979 495 985 q 547 975 528 974 q 616 1041 600 977 l 725 1034 z "},"ò":{"ha":768,"x_min":30,"x_max":725,"o":"m 422 747 q 589 697 519 746 q 692 564 659 649 q 715 375 725 479 q 594 92 700 200 q 332 -14 488 -16 q 166 36 236 -12 q 63 168 96 83 q 39 355 30 253 q 163 644 57 537 q 422 747 269 751 m 229 286 q 259 183 230 220 q 341 144 288 145 q 479 225 429 141 q 526 445 530 309 q 495 549 524 510 q 412 589 466 588 q 276 509 327 592 q 229 286 224 426 m 534 831 l 391 832 l 240 1040 l 437 1042 l 534 831 z "},"ó":{"ha":768,"x_min":30,"x_max":732,"o":"m 422 747 q 589 697 519 746 q 692 564 659 649 q 715 375 725 479 q 594 92 700 200 q 332 -14 488 -16 q 166 36 236 -12 q 63 168 96 83 q 39 355 30 253 q 163 644 57 537 q 422 747 269 751 m 229 286 q 259 183 230 220 q 341 144 288 145 q 479 225 429 141 q 526 445 530 309 q 495 549 524 510 q 412 589 466 588 q 276 509 327 592 q 229 286 224 426 m 510 1042 l 732 1042 l 516 831 l 347 831 l 510 1042 z "},"ô":{"ha":768,"x_min":30,"x_max":725,"o":"m 422 747 q 589 697 519 746 q 692 564 659 649 q 715 375 725 479 q 594 92 700 200 q 332 -14 488 -16 q 166 36 236 -12 q 63 168 96 83 q 39 355 30 253 q 163 644 57 537 q 422 747 269 751 m 229 286 q 259 183 230 220 q 341 144 288 145 q 479 225 429 141 q 526 445 530 309 q 495 549 524 510 q 412 589 466 588 q 276 509 327 592 q 229 286 224 426 m 703 854 l 703 840 l 556 844 l 473 941 l 354 844 l 199 842 l 199 857 l 416 1042 l 526 1042 l 703 854 z "},"õ":{"ha":768,"x_min":30,"x_max":725,"o":"m 422 747 q 589 697 519 746 q 692 564 659 649 q 715 375 725 479 q 594 92 700 200 q 332 -14 488 -16 q 166 36 236 -12 q 63 168 96 83 q 39 355 30 253 q 163 644 57 537 q 422 747 269 751 m 229 286 q 259 183 230 220 q 341 144 288 145 q 479 225 429 141 q 526 445 530 309 q 495 549 524 510 q 412 589 466 588 q 276 509 327 592 q 229 286 224 426 m 718 1034 q 670 902 713 954 q 561 850 627 850 q 525 856 542 850 q 473 881 507 862 q 421 907 438 901 q 384 912 404 913 q 315 846 332 910 l 203 852 q 253 984 208 931 q 363 1036 298 1037 q 396 1030 380 1036 q 450 1005 412 1025 q 504 979 488 985 q 540 975 521 974 q 608 1041 592 977 l 718 1034 z "},"ö":{"ha":768,"x_min":30,"x_max":725,"o":"m 422 747 q 589 697 519 746 q 692 564 659 649 q 715 375 725 479 q 594 92 700 200 q 332 -14 488 -16 q 166 36 236 -12 q 63 168 96 83 q 39 355 30 253 q 163 644 57 537 q 422 747 269 751 m 229 286 q 259 183 230 220 q 341 144 288 145 q 479 225 429 141 q 526 445 530 309 q 495 549 524 510 q 412 589 466 588 q 276 509 327 592 q 229 286 224 426 m 209 924 q 233 985 208 959 q 298 1013 259 1011 q 364 988 336 1014 q 392 928 392 963 q 367 866 393 892 q 302 840 341 841 q 238 862 267 838 q 209 924 210 886 m 530 924 q 554 985 528 959 q 618 1013 580 1011 q 684 989 656 1014 q 713 928 711 964 q 687 865 713 890 q 624 839 662 840 q 558 862 587 838 q 530 924 530 886 z "},"ù":{"ha":761,"x_min":40,"x_max":748,"o":"m 456 76 q 254 -14 375 -16 q 94 62 149 -12 q 52 259 40 137 l 132 734 l 323 734 l 242 257 q 241 215 239 235 q 317 145 248 147 q 464 214 406 142 l 555 734 l 748 734 l 621 0 l 442 0 l 456 76 m 540 831 l 397 832 l 245 1040 l 443 1042 l 540 831 z "},"ú":{"ha":761,"x_min":40,"x_max":748,"o":"m 456 76 q 254 -14 375 -16 q 94 62 149 -12 q 52 259 40 137 l 132 734 l 323 734 l 242 257 q 241 215 239 235 q 317 145 248 147 q 464 214 406 142 l 555 734 l 748 734 l 621 0 l 442 0 l 456 76 m 515 1042 l 737 1042 l 522 831 l 353 831 l 515 1042 z "},"û":{"ha":761,"x_min":40,"x_max":748,"o":"m 456 76 q 254 -14 375 -16 q 94 62 149 -12 q 52 259 40 137 l 132 734 l 323 734 l 242 257 q 241 215 239 235 q 317 145 248 147 q 464 214 406 142 l 555 734 l 748 734 l 621 0 l 442 0 l 456 76 m 708 854 l 708 840 l 562 844 l 478 941 l 359 844 l 204 842 l 204 857 l 422 1042 l 531 1042 l 708 854 z "},"ü":{"ha":761,"x_min":40,"x_max":748,"o":"m 456 76 q 254 -14 375 -16 q 94 62 149 -12 q 52 259 40 137 l 132 734 l 323 734 l 242 257 q 241 215 239 235 q 317 145 248 147 q 464 214 406 142 l 555 734 l 748 734 l 621 0 l 442 0 l 456 76 m 214 924 q 239 985 213 959 q 303 1013 264 1011 q 370 988 342 1014 q 397 928 397 963 q 373 866 399 892 q 308 840 347 841 q 244 862 272 838 q 214 924 216 886 m 535 924 q 559 985 534 959 q 624 1013 585 1011 q 689 989 662 1014 q 718 928 717 964 q 693 865 718 890 q 629 839 667 840 q 564 862 592 838 q 535 924 535 886 z "},"ý":{"ha":683,"x_min":-37,"x_max":736,"o":"m 313 279 l 523 734 l 736 734 l 307 -111 q 198 -253 260 -208 q 55 -298 136 -298 q -37 -284 23 -298 l -23 -135 l 3 -136 q 140 -68 97 -139 l 182 10 l 62 734 l 260 734 l 313 279 m 481 1042 l 703 1042 l 488 831 l 319 831 l 481 1042 z "},"ÿ":{"ha":683,"x_min":-37,"x_max":736,"o":"m 313 279 l 523 734 l 736 734 l 307 -111 q 198 -253 260 -208 q 55 -298 136 -298 q -37 -284 23 -298 l -23 -135 l 3 -136 q 140 -68 97 -139 l 182 10 l 62 734 l 260 734 l 313 279 m 180 924 q 205 985 179 959 q 269 1013 231 1011 q 336 988 308 1014 q 363 928 363 963 q 339 866 365 892 q 274 840 313 841 q 210 862 238 838 q 180 924 182 886 m 501 924 q 526 985 500 959 q 590 1013 551 1011 q 655 989 628 1014 q 684 928 683 964 q 659 865 684 890 q 595 839 633 840 q 530 862 558 838 q 501 924 501 886 z "},"Ā":{"ha":913,"x_min":-71,"x_max":829,"o":"m 595 203 l 250 203 l 149 0 l -71 0 l 457 987 l 641 987 l 829 0 l 626 0 l 595 203 m 332 368 l 570 368 l 514 736 l 332 368 m 801 1082 l 346 1082 l 364 1195 l 819 1195 l 801 1082 z "},"ā":{"ha":729,"x_min":9,"x_max":690,"o":"m 427 0 q 419 66 418 28 q 232 -14 336 -16 q 72 49 136 -12 q 13 201 9 111 q 114 385 18 321 q 371 449 210 449 l 460 448 l 470 492 q 472 534 474 514 q 448 584 469 566 q 393 603 427 602 q 317 581 349 604 q 277 513 286 557 l 85 513 q 182 683 90 618 q 409 747 274 749 q 604 673 534 745 q 663 489 675 602 l 607 138 l 604 94 q 615 13 602 46 l 614 0 l 427 0 m 279 135 q 424 207 362 132 l 448 334 l 381 334 q 229 270 275 332 q 208 215 212 248 q 223 157 202 178 q 279 135 243 136 m 672 872 l 217 872 l 235 985 l 690 985 l 672 872 z "},"Ă":{"ha":913,"x_min":-71,"x_max":829,"o":"m 595 203 l 250 203 l 149 0 l -71 0 l 457 987 l 641 987 l 829 0 l 626 0 l 595 203 m 332 368 l 570 368 l 514 736 l 332 368 m 821 1246 q 749 1097 817 1152 q 582 1044 682 1041 q 429 1099 488 1045 q 368 1246 370 1153 l 503 1245 q 581 1156 500 1157 q 651 1179 625 1154 q 685 1245 677 1204 l 821 1246 z "},"ă":{"ha":729,"x_min":9,"x_max":692,"o":"m 427 0 q 419 66 418 28 q 232 -14 336 -16 q 72 49 136 -12 q 13 201 9 111 q 114 385 18 321 q 371 449 210 449 l 460 448 l 470 492 q 472 534 474 514 q 448 584 469 566 q 393 603 427 602 q 317 581 349 604 q 277 513 286 557 l 85 513 q 182 683 90 618 q 409 747 274 749 q 604 673 534 745 q 663 489 675 602 l 607 138 l 604 94 q 615 13 602 46 l 614 0 l 427 0 m 279 135 q 424 207 362 132 l 448 334 l 381 334 q 229 270 275 332 q 208 215 212 248 q 223 157 202 178 q 279 135 243 136 m 692 1036 q 621 886 688 942 q 453 833 553 831 q 300 889 359 835 q 239 1036 241 943 l 374 1035 q 452 945 371 947 q 522 969 496 944 q 556 1035 549 994 l 692 1036 z "},"Ą":{"ha":913,"x_min":-71,"x_max":829,"o":"m 771 0 l 778 -3 l 747 -21 q 659 -124 666 -70 q 689 -163 655 -160 q 743 -149 709 -163 l 757 -258 q 653 -286 713 -286 q 551 -248 589 -286 q 512 -149 512 -210 q 623 15 512 -52 l 595 203 l 250 203 l 149 0 l -71 0 l 457 987 l 641 987 l 829 0 l 771 0 m 332 368 l 570 368 l 514 736 l 332 368 z "},"ą":{"ha":729,"x_min":9,"x_max":675,"o":"m 572 0 l 578 -3 l 548 -21 q 460 -124 467 -70 q 490 -163 456 -160 q 544 -149 509 -163 l 557 -258 q 454 -286 513 -286 q 351 -248 390 -286 q 313 -149 313 -210 q 422 14 313 -52 l 419 40 l 419 66 q 232 -14 336 -16 q 72 49 136 -12 q 13 201 9 111 q 114 385 18 321 q 371 449 210 449 l 460 448 l 470 492 q 472 534 474 514 q 448 584 469 566 q 393 603 427 602 q 317 581 349 604 q 277 513 286 557 l 85 513 q 182 683 90 618 q 409 747 274 749 q 604 673 534 745 q 663 489 675 602 l 607 138 l 604 94 q 615 13 602 46 l 614 0 l 572 0 m 279 135 q 424 207 362 132 l 448 334 l 381 334 q 229 270 275 332 q 208 215 212 248 q 223 157 202 178 q 279 135 243 136 z "},"Ć":{"ha":888,"x_min":59,"x_max":887,"o":"m 819 330 q 749 148 808 227 q 597 27 691 69 q 395 -14 504 -16 q 225 32 298 -12 q 111 156 153 75 q 64 345 69 238 q 81 552 59 428 q 160 772 103 676 q 294 925 216 869 q 545 1001 404 1004 q 788 906 699 998 q 887 651 878 814 l 689 652 q 652 789 689 745 q 536 835 614 832 q 369 762 434 838 q 281 541 303 686 q 262 328 259 399 q 302 196 265 239 q 404 152 338 154 q 550 195 495 149 q 622 328 604 241 l 819 330 m 629 1257 l 851 1257 l 635 1047 l 467 1047 l 629 1257 z "},"ć":{"ha":709,"x_min":29,"x_max":704,"o":"m 323 144 q 412 173 376 142 q 458 253 447 203 l 637 254 q 589 115 633 176 q 472 18 545 53 q 319 -14 399 -16 q 107 78 185 -12 q 32 318 29 168 l 34 355 l 35 363 q 155 647 53 542 q 408 747 258 751 q 605 666 532 745 q 677 460 678 588 l 498 460 q 473 553 498 519 q 395 589 447 587 q 229 389 258 593 q 222 264 219 315 q 323 144 229 146 m 482 1042 l 704 1042 l 488 831 l 319 831 l 482 1042 z "},"Ĉ":{"ha":888,"x_min":59,"x_max":887,"o":"m 819 330 q 749 148 808 227 q 597 27 691 69 q 395 -14 504 -16 q 225 32 298 -12 q 111 156 153 75 q 64 345 69 238 q 81 552 59 428 q 160 772 103 676 q 294 925 216 869 q 545 1001 404 1004 q 788 906 699 998 q 887 651 878 814 l 689 652 q 652 789 689 745 q 536 835 614 832 q 369 762 434 838 q 281 541 303 686 q 262 328 259 399 q 302 196 265 239 q 404 152 338 154 q 550 195 495 149 q 622 328 604 241 l 819 330 m 822 1070 l 822 1056 l 675 1059 l 592 1157 l 473 1060 l 318 1057 l 318 1073 l 536 1257 l 645 1258 l 822 1070 z "},"ĉ":{"ha":709,"x_min":29,"x_max":678,"o":"m 323 144 q 412 173 376 142 q 458 253 447 203 l 637 254 q 589 115 633 176 q 472 18 545 53 q 319 -14 399 -16 q 107 78 185 -12 q 32 318 29 168 l 34 355 l 35 363 q 155 647 53 542 q 408 747 258 751 q 605 666 532 745 q 677 460 678 588 l 498 460 q 473 553 498 519 q 395 589 447 587 q 229 389 258 593 q 222 264 219 315 q 323 144 229 146 m 675 854 l 675 840 l 528 844 l 445 941 l 326 844 l 171 842 l 171 857 l 389 1042 l 498 1042 l 675 854 z "},"Ċ":{"ha":888,"x_min":59,"x_max":887,"o":"m 819 330 q 749 148 808 227 q 597 27 691 69 q 395 -14 504 -16 q 225 32 298 -12 q 111 156 153 75 q 64 345 69 238 q 81 552 59 428 q 160 772 103 676 q 294 925 216 869 q 545 1001 404 1004 q 788 906 699 998 q 887 651 878 814 l 689 652 q 652 789 689 745 q 536 835 614 832 q 369 762 434 838 q 281 541 303 686 q 262 328 259 399 q 302 196 265 239 q 404 152 338 154 q 550 195 495 149 q 622 328 604 241 l 819 330 m 581 1253 q 650 1230 621 1254 q 681 1162 680 1205 q 655 1094 682 1122 q 586 1066 629 1066 q 517 1089 547 1065 q 486 1156 487 1114 q 512 1225 484 1197 q 581 1253 540 1253 z "},"ċ":{"ha":709,"x_min":29,"x_max":678,"o":"m 323 144 q 412 173 376 142 q 458 253 447 203 l 637 254 q 589 115 633 176 q 472 18 545 53 q 319 -14 399 -16 q 107 78 185 -12 q 32 318 29 168 l 34 355 l 35 363 q 155 647 53 542 q 408 747 258 751 q 605 666 532 745 q 677 460 678 588 l 498 460 q 473 553 498 519 q 395 589 447 587 q 229 389 258 593 q 222 264 219 315 q 323 144 229 146 m 434 1037 q 503 1014 473 1038 q 534 947 532 989 q 508 879 535 907 q 439 850 481 850 q 370 874 400 849 q 338 940 340 899 q 365 1009 337 981 q 434 1037 393 1037 z "},"Č":{"ha":888,"x_min":59,"x_max":887,"o":"m 819 330 q 749 148 808 227 q 597 27 691 69 q 395 -14 504 -16 q 225 32 298 -12 q 111 156 153 75 q 64 345 69 238 q 81 552 59 428 q 160 772 103 676 q 294 925 216 869 q 545 1001 404 1004 q 788 906 699 998 q 887 651 878 814 l 689 652 q 652 789 689 745 q 536 835 614 832 q 369 762 434 838 q 281 541 303 686 q 262 328 259 399 q 302 196 265 239 q 404 152 338 154 q 550 195 495 149 q 622 328 604 241 l 819 330 m 574 1162 l 688 1257 l 857 1261 l 858 1247 l 635 1060 l 514 1060 l 338 1249 l 338 1262 l 496 1258 l 574 1162 z "},"č":{"ha":709,"x_min":29,"x_max":711,"o":"m 323 144 q 412 173 376 142 q 458 253 447 203 l 637 254 q 589 115 633 176 q 472 18 545 53 q 319 -14 399 -16 q 107 78 185 -12 q 32 318 29 168 l 34 355 l 35 363 q 155 647 53 542 q 408 747 258 751 q 605 666 532 745 q 677 460 678 588 l 498 460 q 473 553 498 519 q 395 589 447 587 q 229 389 258 593 q 222 264 219 315 q 323 144 229 146 m 427 946 l 541 1042 l 710 1046 l 711 1031 l 488 844 l 367 844 l 191 1034 l 191 1046 l 349 1042 l 427 946 z "},"Ď":{"ha":882,"x_min":14,"x_max":843,"o":"m 14 0 l 186 987 l 469 987 q 649 942 569 985 q 778 818 728 899 q 838 636 827 737 q 836 515 843 577 l 831 479 q 661 131 802 262 q 319 0 520 0 l 14 0 m 356 823 l 241 163 l 324 163 q 544 263 461 163 q 640 566 627 363 l 641 588 q 598 760 643 700 q 465 822 553 819 l 356 823 m 467 1158 l 581 1254 l 750 1258 l 751 1244 l 528 1057 l 407 1057 l 231 1246 l 231 1259 l 389 1255 l 467 1158 z "},"ď":{"ha":867,"x_min":31,"x_max":1031,"o":"m 366 748 q 532 666 469 745 l 604 1042 l 795 1042 l 615 0 l 444 0 l 455 79 q 264 -14 373 -17 q 144 22 195 -14 q 64 123 92 57 q 33 271 36 189 q 35 353 31 313 l 39 384 q 102 582 56 496 q 216 709 149 667 q 366 748 283 750 m 227 353 q 224 267 222 302 q 320 145 231 147 q 460 221 401 142 l 513 513 q 407 589 486 585 q 291 535 337 591 q 227 353 244 479 m 902 755 l 806 810 q 884 980 867 895 l 896 1042 l 1031 1042 l 1027 1002 q 902 755 1016 863 z "},"Ē":{"ha":764,"x_min":14,"x_max":828,"o":"m 666 428 l 288 428 l 241 163 l 686 163 l 658 0 l 14 0 l 186 987 l 828 987 l 799 823 l 356 823 l 315 587 l 694 587 l 666 428 m 764 1084 l 309 1084 l 327 1197 l 782 1197 l 764 1084 z "},"ē":{"ha":735,"x_min":33,"x_max":709,"o":"m 351 -14 q 180 34 254 -13 q 69 161 106 80 q 41 340 33 242 l 43 367 q 105 564 53 474 q 239 702 157 653 q 421 747 321 750 q 636 643 563 745 q 691 387 709 542 l 680 303 l 231 303 q 265 189 228 232 q 367 145 302 146 q 550 226 471 142 l 637 117 q 518 20 596 55 q 351 -14 440 -15 m 412 589 q 318 556 359 591 q 244 436 277 522 l 507 436 l 511 454 q 512 505 515 481 q 479 567 505 545 q 412 589 452 589 m 659 872 l 204 872 l 222 985 l 677 985 l 659 872 z "},"Ĕ":{"ha":764,"x_min":14,"x_max":828,"o":"m 666 428 l 288 428 l 241 163 l 686 163 l 658 0 l 14 0 l 186 987 l 828 987 l 799 823 l 356 823 l 315 587 l 694 587 l 666 428 m 783 1249 q 712 1099 779 1154 q 545 1046 645 1043 q 392 1101 451 1047 q 331 1249 332 1155 l 465 1247 q 543 1158 463 1159 q 614 1181 587 1156 q 648 1247 640 1206 l 783 1249 z "},"ĕ":{"ha":735,"x_min":33,"x_max":709,"o":"m 351 -14 q 180 34 254 -13 q 69 161 106 80 q 41 340 33 242 l 43 367 q 105 564 53 474 q 239 702 157 653 q 421 747 321 750 q 636 643 563 745 q 691 387 709 542 l 680 303 l 231 303 q 265 189 228 232 q 367 145 302 146 q 550 226 471 142 l 637 117 q 518 20 596 55 q 351 -14 440 -15 m 412 589 q 318 556 359 591 q 244 436 277 522 l 507 436 l 511 454 q 512 505 515 481 q 479 567 505 545 q 412 589 452 589 m 679 1036 q 608 886 675 942 q 440 833 541 831 q 287 889 347 835 q 227 1036 228 943 l 361 1035 q 439 945 358 947 q 509 969 483 944 q 543 1035 536 994 l 679 1036 z "},"Ė":{"ha":764,"x_min":14,"x_max":828,"o":"m 666 428 l 288 428 l 241 163 l 686 163 l 658 0 l 14 0 l 186 987 l 828 987 l 799 823 l 356 823 l 315 587 l 694 587 l 666 428 m 545 1249 q 614 1226 585 1251 q 645 1159 644 1202 q 620 1091 646 1119 q 550 1063 593 1063 q 481 1086 511 1061 q 450 1152 451 1111 q 476 1221 448 1194 q 545 1249 504 1249 z "},"ė":{"ha":735,"x_min":33,"x_max":709,"o":"m 351 -14 q 180 34 254 -13 q 69 161 106 80 q 41 340 33 242 l 43 367 q 105 564 53 474 q 239 702 157 653 q 421 747 321 750 q 636 643 563 745 q 691 387 709 542 l 680 303 l 231 303 q 265 189 228 232 q 367 145 302 146 q 550 226 471 142 l 637 117 q 518 20 596 55 q 351 -14 440 -15 m 412 589 q 318 556 359 591 q 244 436 277 522 l 507 436 l 511 454 q 512 505 515 481 q 479 567 505 545 q 412 589 452 589 m 441 1037 q 510 1014 480 1038 q 541 947 539 989 q 515 879 542 907 q 446 850 488 850 q 377 874 407 849 q 345 940 347 899 q 372 1009 344 981 q 441 1037 399 1037 z "},"Ę":{"ha":764,"x_min":14,"x_max":828,"o":"m 666 428 l 288 428 l 241 163 l 686 163 l 658 0 l 551 0 l 558 -3 l 528 -21 q 439 -124 446 -70 q 469 -163 435 -160 q 524 -149 489 -163 l 537 -258 q 433 -286 493 -286 q 331 -248 370 -286 q 292 -149 292 -210 q 380 0 292 -61 l 14 0 l 186 987 l 828 987 l 799 823 l 356 823 l 315 587 l 694 587 l 666 428 z "},"ę":{"ha":735,"x_min":33,"x_max":712,"o":"m 641 117 q 490 7 591 42 l 467 -6 q 390 -103 395 -52 q 420 -142 386 -139 q 474 -128 439 -142 l 488 -237 q 384 -264 444 -264 q 281 -227 320 -264 q 243 -128 243 -189 q 295 -8 243 -60 q 103 109 172 13 q 44 340 33 204 l 46 367 q 109 564 56 474 q 243 702 161 653 q 425 747 325 750 q 639 643 566 745 q 694 387 712 542 l 684 303 l 234 303 q 269 189 231 232 q 370 145 306 146 q 553 226 475 142 l 641 117 m 415 589 q 321 556 362 591 q 248 436 280 522 l 511 436 l 515 454 q 515 505 519 481 q 482 567 509 545 q 415 589 456 589 z "},"Ě":{"ha":764,"x_min":14,"x_max":828,"o":"m 666 428 l 288 428 l 241 163 l 686 163 l 658 0 l 14 0 l 186 987 l 828 987 l 799 823 l 356 823 l 315 587 l 694 587 l 666 428 m 538 1158 l 652 1254 l 821 1258 l 822 1244 l 600 1057 l 478 1057 l 302 1246 l 302 1259 l 460 1255 l 538 1158 z "},"ě":{"ha":735,"x_min":33,"x_max":718,"o":"m 351 -14 q 180 34 254 -13 q 69 161 106 80 q 41 340 33 242 l 43 367 q 105 564 53 474 q 239 702 157 653 q 421 747 321 750 q 636 643 563 745 q 691 387 709 542 l 680 303 l 231 303 q 265 189 228 232 q 367 145 302 146 q 550 226 471 142 l 637 117 q 518 20 596 55 q 351 -14 440 -15 m 412 589 q 318 556 359 591 q 244 436 277 522 l 507 436 l 511 454 q 512 505 515 481 q 479 567 505 545 q 412 589 452 589 m 434 946 l 547 1042 l 717 1046 l 718 1031 l 495 844 l 374 844 l 197 1034 l 197 1046 l 355 1042 l 434 946 z "},"Ĝ":{"ha":924,"x_min":65,"x_max":897,"o":"m 806 125 q 651 21 753 58 q 420 -13 549 -15 q 243 32 319 -12 q 122 157 166 75 q 72 345 78 239 q 93 574 65 442 q 187 805 120 706 q 347 954 254 905 q 555 1001 441 1003 q 797 914 709 998 q 897 672 884 829 l 705 673 q 661 795 698 755 q 552 837 625 834 q 354 727 427 841 q 272 395 282 612 q 308 216 265 279 q 437 151 350 152 q 609 199 538 148 l 642 369 l 462 369 l 488 519 l 865 519 l 806 125 m 826 1070 l 826 1056 l 680 1059 l 596 1157 l 477 1060 l 322 1057 l 322 1073 l 540 1257 l 649 1258 l 826 1070 z "},"ĝ":{"ha":776,"x_min":-11,"x_max":753,"o":"m 39 368 q 150 644 59 538 q 378 748 240 750 q 553 663 495 745 l 578 734 l 753 734 l 633 25 q 509 -207 614 -121 q 248 -290 404 -292 q 103 -257 172 -288 q -11 -170 34 -225 l 84 -54 q 244 -137 148 -134 q 372 -98 319 -140 q 444 20 425 -56 l 454 64 q 275 -14 374 -16 q 104 66 168 -12 q 35 270 41 144 q 39 368 33 311 m 227 288 q 253 185 227 224 q 331 145 280 147 q 469 212 409 142 l 526 522 q 418 589 497 586 q 294 530 345 591 q 231 368 243 469 q 227 288 226 318 m 696 854 l 696 840 l 550 844 l 467 941 l 348 844 l 193 842 l 193 857 l 410 1042 l 519 1042 l 696 854 z "},"Ğ":{"ha":924,"x_min":65,"x_max":897,"o":"m 806 125 q 651 21 753 58 q 420 -13 549 -15 q 243 32 319 -12 q 122 157 166 75 q 72 345 78 239 q 93 574 65 442 q 187 805 120 706 q 347 954 254 905 q 555 1001 441 1003 q 797 914 709 998 q 897 672 884 829 l 705 673 q 661 795 698 755 q 552 837 625 834 q 354 727 427 841 q 272 395 282 612 q 308 216 265 279 q 437 151 350 152 q 609 199 538 148 l 642 369 l 462 369 l 488 519 l 865 519 l 806 125 m 823 1252 q 752 1102 819 1158 q 585 1049 685 1046 q 432 1104 491 1050 q 371 1252 372 1158 l 505 1251 q 583 1161 503 1162 q 654 1184 627 1160 q 688 1251 680 1209 l 823 1252 z "},"ğ":{"ha":776,"x_min":-11,"x_max":753,"o":"m 39 368 q 150 644 59 538 q 378 748 240 750 q 553 663 495 745 l 578 734 l 753 734 l 633 25 q 509 -207 614 -121 q 248 -290 404 -292 q 103 -257 172 -288 q -11 -170 34 -225 l 84 -54 q 244 -137 148 -134 q 372 -98 319 -140 q 444 20 425 -56 l 454 64 q 275 -14 374 -16 q 104 66 168 -12 q 35 270 41 144 q 39 368 33 311 m 227 288 q 253 185 227 224 q 331 145 280 147 q 469 212 409 142 l 526 522 q 418 589 497 586 q 294 530 345 591 q 231 368 243 469 q 227 288 226 318 m 694 1036 q 623 886 690 942 q 455 833 555 831 q 302 889 361 835 q 241 1036 243 943 l 376 1035 q 454 945 373 947 q 524 969 498 944 q 558 1035 551 994 l 694 1036 z "},"Ġ":{"ha":924,"x_min":65,"x_max":897,"o":"m 806 125 q 651 21 753 58 q 420 -13 549 -15 q 243 32 319 -12 q 122 157 166 75 q 72 345 78 239 q 93 574 65 442 q 187 805 120 706 q 347 954 254 905 q 555 1001 441 1003 q 797 914 709 998 q 897 672 884 829 l 705 673 q 661 795 698 755 q 552 837 625 834 q 354 727 427 841 q 272 395 282 612 q 308 216 265 279 q 437 151 350 152 q 609 199 538 148 l 642 369 l 462 369 l 488 519 l 865 519 l 806 125 m 585 1253 q 654 1230 625 1254 q 685 1162 684 1205 q 660 1094 686 1122 q 590 1066 633 1066 q 521 1089 551 1065 q 490 1156 491 1114 q 516 1225 488 1197 q 585 1253 544 1253 z "},"ġ":{"ha":776,"x_min":-11,"x_max":753,"o":"m 39 368 q 150 644 59 538 q 378 748 240 750 q 553 663 495 745 l 578 734 l 753 734 l 633 25 q 509 -207 614 -121 q 248 -290 404 -292 q 103 -257 172 -288 q -11 -170 34 -225 l 84 -54 q 244 -137 148 -134 q 372 -98 319 -140 q 444 20 425 -56 l 454 64 q 275 -14 374 -16 q 104 66 168 -12 q 35 270 41 144 q 39 368 33 311 m 227 288 q 253 185 227 224 q 331 145 280 147 q 469 212 409 142 l 526 522 q 418 589 497 586 q 294 530 345 591 q 231 368 243 469 q 227 288 226 318 m 456 1037 q 525 1014 495 1038 q 555 947 554 989 q 530 879 557 907 q 460 850 503 850 q 392 874 422 849 q 360 940 361 899 q 387 1009 359 981 q 456 1037 414 1037 z "},"Ģ":{"ha":924,"x_min":65,"x_max":897,"o":"m 806 125 q 651 21 753 58 q 420 -13 549 -15 q 243 32 319 -12 q 122 157 166 75 q 72 345 78 239 q 93 574 65 442 q 187 805 120 706 q 347 954 254 905 q 555 1001 441 1003 q 797 914 709 998 q 897 672 884 829 l 705 673 q 661 795 698 755 q 552 837 625 834 q 354 727 427 841 q 272 395 282 612 q 308 216 265 279 q 437 151 350 152 q 609 199 538 148 l 642 369 l 462 369 l 488 519 l 865 519 l 806 125 m 334 -351 l 239 -296 q 317 -126 300 -211 l 328 -64 l 463 -64 l 460 -104 q 334 -351 448 -243 z "},"ģ":{"ha":776,"x_min":-11,"x_max":753,"o":"m 39 368 q 150 644 59 538 q 378 748 240 750 q 553 663 495 745 l 578 734 l 753 734 l 633 25 q 509 -207 614 -121 q 248 -290 404 -292 q 103 -257 172 -288 q -11 -170 34 -225 l 84 -54 q 244 -137 148 -134 q 372 -98 319 -140 q 444 20 425 -56 l 454 64 q 275 -14 374 -16 q 104 66 168 -12 q 35 270 41 144 q 39 368 33 311 m 227 288 q 253 185 227 224 q 331 145 280 147 q 469 212 409 142 l 526 522 q 418 589 497 586 q 294 530 345 591 q 231 368 243 469 q 227 288 226 318 m 502 1166 l 601 1112 q 532 949 547 1021 l 514 854 l 364 854 l 378 945 q 502 1166 401 1098 z "},"Ĥ":{"ha":959,"x_min":14,"x_max":966,"o":"m 795 0 l 597 0 l 670 423 l 287 423 l 213 0 l 14 0 l 186 987 l 385 987 l 315 587 l 699 587 l 768 987 l 966 987 l 795 0 m 844 1067 l 844 1053 l 697 1056 l 614 1154 l 495 1057 l 340 1054 l 340 1069 l 557 1254 l 667 1255 l 844 1067 z "},"ĥ":{"ha":761,"x_min":-3,"x_max":721,"o":"m 294 652 q 492 747 380 749 q 653 669 602 745 q 691 463 704 593 l 614 0 l 422 0 l 500 465 q 502 513 504 491 q 416 589 495 587 q 281 522 339 591 l 189 0 l -3 0 l 178 1042 l 370 1042 l 294 652 m 721 1112 l 721 1098 l 574 1101 l 491 1199 l 372 1102 l 217 1099 l 217 1115 l 435 1299 l 544 1300 l 721 1112 z "},"Ĩ":{"ha":399,"x_min":27,"x_max":580,"o":"m 226 0 l 27 0 l 198 987 l 397 987 l 226 0 m 580 1246 q 532 1114 575 1166 q 423 1062 489 1062 q 387 1068 404 1062 q 335 1093 370 1074 q 283 1118 300 1112 q 246 1124 266 1124 q 178 1057 195 1122 l 65 1064 q 115 1196 70 1143 q 225 1247 160 1249 q 259 1242 243 1247 q 312 1217 275 1237 q 367 1191 350 1196 q 402 1186 383 1185 q 471 1253 454 1188 l 580 1246 z "},"ĩ":{"ha":376,"x_min":15,"x_max":530,"o":"m 208 0 l 17 0 l 144 734 l 336 734 l 208 0 m 530 1023 q 482 891 525 943 q 373 840 439 840 q 337 845 354 840 q 285 870 319 851 q 233 896 250 890 q 196 901 216 902 q 127 835 144 899 l 15 842 q 65 973 20 920 q 175 1025 110 1026 q 209 1020 193 1025 q 262 994 224 1015 q 316 968 300 974 q 352 964 333 963 q 420 1030 404 966 l 530 1023 z "},"Ī":{"ha":399,"x_min":27,"x_max":561,"o":"m 226 0 l 27 0 l 198 987 l 397 987 l 226 0 m 543 1084 l 87 1084 l 106 1197 l 561 1197 l 543 1084 z "},"ī":{"ha":376,"x_min":17,"x_max":511,"o":"m 208 0 l 17 0 l 144 734 l 336 734 l 208 0 m 492 861 l 37 861 l 56 975 l 511 975 l 492 861 z "},"Ĭ":{"ha":399,"x_min":27,"x_max":562,"o":"m 226 0 l 27 0 l 198 987 l 397 987 l 226 0 m 562 1249 q 491 1099 558 1154 q 323 1046 424 1043 q 171 1101 230 1047 q 110 1249 111 1155 l 244 1247 q 322 1158 241 1159 q 393 1181 366 1156 q 427 1247 419 1206 l 562 1249 z "},"ĭ":{"ha":376,"x_min":17,"x_max":512,"o":"m 208 0 l 17 0 l 144 734 l 336 734 l 208 0 m 512 1026 q 441 876 508 932 q 273 823 374 821 q 120 879 180 825 q 60 1026 61 932 l 194 1025 q 272 935 191 937 q 342 959 316 934 q 376 1025 369 983 l 512 1026 z "},"Į":{"ha":399,"x_min":-76,"x_max":397,"o":"m 226 0 l 27 0 l 198 987 l 397 987 l 226 0 m 190 -1 l 159 -20 q 71 -123 78 -68 q 101 -161 67 -159 q 155 -148 121 -162 l 169 -256 q 65 -284 125 -284 q -37 -246 1 -284 q -76 -148 -76 -208 q 86 43 -76 -31 l 190 -1 z "},"į":{"ha":364,"x_min":-90,"x_max":376,"o":"m 204 0 l 12 0 l 139 734 l 332 734 l 204 0 m 161 920 q 191 996 160 966 q 267 1025 222 1025 q 342 999 310 1027 q 375 927 374 971 q 347 854 376 885 q 270 821 317 823 q 195 847 227 820 q 161 920 163 874 m 176 -3 l 146 -21 q 58 -124 64 -70 q 87 -163 54 -160 q 142 -149 107 -163 l 155 -258 q 52 -286 111 -286 q -51 -248 -12 -286 q -90 -149 -90 -210 q 73 41 -90 -33 l 176 -3 z "},"İ":{"ha":399,"x_min":27,"x_max":425,"o":"m 226 0 l 27 0 l 198 987 l 397 987 l 226 0 m 323 1249 q 392 1226 363 1251 q 423 1159 422 1202 q 398 1091 425 1119 q 328 1063 371 1063 q 259 1086 290 1061 q 228 1152 229 1111 q 254 1221 227 1194 q 323 1249 282 1249 z "},"Ĳ":{"ha":1159,"x_min":27,"x_max":1172,"o":"m 226 0 l 27 0 l 198 987 l 397 987 l 226 0 m 973 987 l 1172 987 l 1056 304 q 994 136 1044 210 q 865 23 943 62 q 692 -14 786 -16 q 476 68 552 -12 q 404 292 400 149 l 604 292 q 703 150 594 152 q 803 189 762 148 q 857 304 844 231 l 973 987 z "},"ĳ":{"ha":721,"x_min":12,"x_max":737,"o":"m 204 0 l 12 0 l 139 734 l 332 734 l 204 0 m 161 920 q 191 996 160 966 q 267 1025 222 1025 q 342 999 310 1027 q 375 927 374 971 q 347 854 376 885 q 270 821 317 823 q 195 847 227 820 q 161 920 163 874 m 696 734 l 565 -40 q 476 -231 549 -163 q 288 -298 404 -300 q 186 -286 242 -297 l 202 -130 q 261 -138 236 -137 q 371 -41 351 -140 l 504 734 l 696 734 m 522 920 q 551 995 521 965 q 627 1025 581 1024 q 704 998 674 1025 q 736 927 734 970 q 707 852 737 882 q 631 821 677 823 q 556 847 588 820 q 522 920 524 874 z "},"Ĵ":{"ha":760,"x_min":1,"x_max":930,"o":"m 574 987 l 772 987 l 656 304 q 594 136 644 210 q 465 23 544 62 q 292 -14 387 -16 q 77 68 153 -12 q 5 292 1 149 l 205 292 q 303 150 195 152 q 404 189 362 148 q 457 304 445 231 l 574 987 m 930 1065 l 930 1050 l 783 1054 l 700 1152 l 581 1055 l 426 1052 l 426 1067 l 644 1252 l 753 1253 l 930 1065 z "},"ĵ":{"ha":387,"x_min":-170,"x_max":509,"o":"m 347 734 l 218 -22 q 124 -227 200 -155 q -68 -298 48 -300 q -170 -286 -115 -297 l -145 -130 q -81 -140 -114 -139 q 26 -15 5 -140 l 155 734 l 347 734 m 509 837 l 509 823 l 363 826 l 279 924 l 161 827 l 5 824 l 5 840 l 223 1024 l 332 1025 l 509 837 z "},"Ķ":{"ha":862,"x_min":14,"x_max":966,"o":"m 391 394 l 260 273 l 213 0 l 14 0 l 186 987 l 385 987 l 309 552 l 410 666 l 707 987 l 966 987 l 539 538 l 793 0 l 567 0 l 391 394 m 292 -308 l 197 -252 q 275 -83 258 -168 l 286 -20 l 421 -20 l 418 -60 q 292 -308 406 -200 z "},"ķ":{"ha":726,"x_min":2,"x_max":776,"o":"m 319 292 l 231 215 l 193 0 l 2 0 l 182 1042 l 374 1042 l 275 476 l 313 516 l 530 734 l 776 734 l 455 418 l 659 0 l 450 0 l 319 292 m 231 -323 l 136 -267 q 214 -98 197 -182 l 225 -35 l 360 -35 l 357 -75 q 231 -323 345 -215 z "},"Ĺ":{"ha":736,"x_min":14,"x_max":661,"o":"m 241 163 l 661 163 l 632 0 l 14 0 l 186 987 l 385 987 l 241 163 m 363 1252 l 585 1252 l 370 1042 l 201 1042 l 363 1252 z "},"ĺ":{"ha":364,"x_min":12,"x_max":585,"o":"m 204 0 l 12 0 l 193 1042 l 385 1042 l 204 0 m 363 1308 l 585 1308 l 370 1097 l 201 1097 l 363 1308 z "},"Ļ":{"ha":736,"x_min":14,"x_max":661,"o":"m 241 163 l 661 163 l 632 0 l 14 0 l 186 987 l 385 987 l 241 163 m 253 -343 l 157 -288 q 235 -118 218 -203 l 247 -56 l 382 -56 l 378 -96 q 253 -343 367 -235 z "},"ļ":{"ha":364,"x_min":-59,"x_max":385,"o":"m 204 0 l 12 0 l 193 1042 l 385 1042 l 204 0 m 37 -343 l -59 -288 q 19 -118 2 -203 l 31 -56 l 165 -56 l 162 -96 q 37 -343 151 -235 z "},"Ľ":{"ha":736,"x_min":14,"x_max":693,"o":"m 241 163 l 661 163 l 632 0 l 14 0 l 186 987 l 385 987 l 241 163 m 564 700 l 469 755 q 547 925 530 840 l 558 987 l 693 987 l 690 947 q 564 700 678 808 z "},"ľ":{"ha":466,"x_min":12,"x_max":621,"o":"m 204 0 l 12 0 l 193 1042 l 385 1042 l 204 0 m 492 755 l 396 810 q 474 980 457 895 l 486 1042 l 621 1042 l 617 1002 q 492 755 606 863 z "},"Ŀ":{"ha":736,"x_min":14,"x_max":661,"o":"m 241 163 l 661 163 l 632 0 l 14 0 l 186 987 l 385 987 l 241 163 m 512 656 q 581 633 551 657 q 612 566 610 608 q 586 497 613 526 q 517 469 559 469 q 448 493 478 468 q 416 559 418 517 q 443 628 415 600 q 512 656 471 656 z "},"ŀ":{"ha":513,"x_min":12,"x_max":555,"o":"m 204 0 l 12 0 l 193 1042 l 385 1042 l 204 0 m 454 618 q 523 595 493 619 q 553 528 552 570 q 528 459 555 488 q 458 431 501 431 q 390 455 420 430 q 358 521 359 479 q 385 590 357 562 q 454 618 412 618 z "},"Ń":{"ha":958,"x_min":14,"x_max":966,"o":"m 795 0 l 602 0 l 328 659 l 213 0 l 14 0 l 186 987 l 378 987 l 653 328 l 768 987 l 966 987 l 795 0 m 653 1252 l 875 1252 l 659 1042 l 490 1042 l 653 1252 z "},"ń":{"ha":762,"x_min":-2,"x_max":739,"o":"m 304 734 l 288 648 q 502 747 376 750 q 655 671 606 745 q 691 467 705 597 l 614 0 l 422 0 l 501 469 q 503 517 505 495 q 416 588 494 586 q 281 518 340 591 l 189 0 l -2 0 l 125 734 l 304 734 m 517 1042 l 739 1042 l 524 831 l 355 831 l 517 1042 z "},"Ņ":{"ha":958,"x_min":14,"x_max":966,"o":"m 795 0 l 602 0 l 328 659 l 213 0 l 14 0 l 186 987 l 378 987 l 653 328 l 768 987 l 966 987 l 795 0 m 333 -349 l 237 -293 q 315 -123 298 -208 l 327 -61 l 462 -61 l 458 -101 q 333 -349 447 -241 z "},"ņ":{"ha":762,"x_min":-2,"x_max":705,"o":"m 304 734 l 288 648 q 502 747 376 750 q 655 671 606 745 q 691 467 705 597 l 614 0 l 422 0 l 501 469 q 503 517 505 495 q 416 588 494 586 q 281 518 340 591 l 189 0 l -2 0 l 125 734 l 304 734 m 234 -343 l 138 -288 q 216 -118 199 -203 l 228 -56 l 363 -56 l 359 -96 q 234 -343 348 -235 z "},"Ň":{"ha":958,"x_min":14,"x_max":966,"o":"m 795 0 l 602 0 l 328 659 l 213 0 l 14 0 l 186 987 l 378 987 l 653 328 l 768 987 l 966 987 l 795 0 m 598 1156 l 711 1252 l 881 1256 l 882 1242 l 659 1055 l 538 1055 l 361 1244 l 361 1257 l 519 1253 l 598 1156 z "},"ň":{"ha":762,"x_min":-2,"x_max":746,"o":"m 304 734 l 288 648 q 502 747 376 750 q 655 671 606 745 q 691 467 705 597 l 614 0 l 422 0 l 501 469 q 503 517 505 495 q 416 588 494 586 q 281 518 340 591 l 189 0 l -2 0 l 125 734 l 304 734 m 463 946 l 576 1042 l 745 1046 l 746 1031 l 524 844 l 402 844 l 226 1034 l 226 1046 l 384 1042 l 463 946 z "},"ŉ":{"ha":762,"x_min":-3,"x_max":705,"o":"m 304 734 l 288 648 q 502 747 376 750 q 655 671 606 745 q 691 467 705 597 l 614 0 l 422 0 l 501 469 q 503 517 505 495 q 416 588 494 586 q 281 518 340 591 l 189 0 l -2 0 l 125 734 l 304 734 m 93 754 l -3 810 q 75 979 58 895 l 87 1042 l 222 1042 l 218 1002 q 93 754 207 862 z "},"Ō":{"ha":937,"x_min":61,"x_max":904,"o":"m 411 -14 q 238 33 313 -12 q 119 161 163 77 q 68 353 75 245 q 92 591 61 465 q 193 812 123 717 q 355 956 262 908 q 557 1001 448 1003 q 731 954 656 999 q 848 824 806 909 q 897 633 891 740 q 871 387 904 513 q 770 169 839 261 q 610 31 702 77 q 411 -14 518 -16 m 692 521 l 698 585 q 666 768 705 706 q 547 833 627 831 q 350 724 423 838 q 268 405 277 610 q 300 220 261 285 q 420 153 338 155 q 596 236 526 148 q 688 484 666 323 l 692 521 m 810 1082 l 355 1082 l 374 1195 l 829 1195 l 810 1082 z "},"ō":{"ha":768,"x_min":30,"x_max":725,"o":"m 422 747 q 589 697 519 746 q 692 564 659 649 q 715 375 725 479 q 594 92 700 200 q 332 -14 488 -16 q 166 36 236 -12 q 63 168 96 83 q 39 355 30 253 q 163 644 57 537 q 422 747 269 751 m 229 286 q 259 183 230 220 q 341 144 288 145 q 479 225 429 141 q 526 445 530 309 q 495 549 524 510 q 412 589 466 588 q 276 509 327 592 q 229 286 224 426 m 680 872 l 225 872 l 243 985 l 699 985 l 680 872 z "},"Ŏ":{"ha":937,"x_min":61,"x_max":904,"o":"m 411 -14 q 238 33 313 -12 q 119 161 163 77 q 68 353 75 245 q 92 591 61 465 q 193 812 123 717 q 355 956 262 908 q 557 1001 448 1003 q 731 954 656 999 q 848 824 806 909 q 897 633 891 740 q 871 387 904 513 q 770 169 839 261 q 610 31 702 77 q 411 -14 518 -16 m 692 521 l 698 585 q 666 768 705 706 q 547 833 627 831 q 350 724 423 838 q 268 405 277 610 q 300 220 261 285 q 420 153 338 155 q 596 236 526 148 q 688 484 666 323 l 692 521 m 830 1246 q 759 1097 826 1152 q 591 1044 692 1041 q 438 1099 498 1045 q 378 1246 379 1153 l 512 1245 q 590 1156 509 1157 q 661 1179 634 1154 q 694 1245 687 1204 l 830 1246 z "}}}
